<svg width="32" height="32" viewBox="0 0 32 32" fill="none" xmlns="http://www.w3.org/2000/svg">
<path fill-rule="evenodd" clip-rule="evenodd" d="M15.7076 7.74498C20.7346 7.74498 24.7862 11.7524 24.7862 16.6669C24.7862 21.5814 20.7346 25.5888 15.7076 25.5888C12.6639 25.5888 9.97393 24.1182 8.32696 21.8633C8.04463 21.4768 7.50243 21.3924 7.11591 21.6747C6.72939 21.957 6.64493 22.4992 6.92725 22.8857C8.89069 25.5738 12.0941 27.3222 15.7076 27.3222C21.6658 27.3222 26.5195 22.5646 26.5195 16.6669C26.5195 10.7692 21.6658 6.01164 15.7076 6.01164C12.0941 6.01164 8.89069 7.76 6.92725 10.4481C6.64493 10.8346 6.72939 11.3768 7.11591 11.6591C7.50243 11.9414 8.04463 11.857 8.32696 11.4705C9.97393 9.21564 12.6639 7.74498 15.7076 7.74498Z" fill="currentColor"/>
<path fill-rule="evenodd" clip-rule="evenodd" d="M5.47998 12.2009C5.47998 12.6795 5.868 13.0675 6.34665 13.0675L13.0676 13.0675C13.5462 13.0675 13.9342 12.6795 13.9342 12.2009C13.9342 11.7222 13.5462 11.3342 13.0676 11.3342L7.21331 11.3342L7.21332 5.47995C7.21332 5.0013 6.8253 4.61328 6.34665 4.61328C5.868 4.61328 5.47998 5.0013 5.47998 5.47995V12.2009Z" fill="currentColor"/>
</svg>
