<svg width="24" height="24" viewBox="0 0 24 24" fill="none" xmlns="http://www.w3.org/2000/svg">
<g id="icon-pricing-x">
<path id="Ellipse 140" d="M21.6 12C21.6 17.302 17.302 21.6 12 21.6C6.69809 21.6 2.40002 17.302 2.40002 12C2.40002 6.69809 6.69809 2.40002 12 2.40002C17.302 2.40002 21.6 6.69809 21.6 12Z" fill="#FF7A88"/>
<path id="Union" d="M10.4486 8.7515C9.97992 8.28287 9.22013 8.28287 8.7515 8.7515C8.28287 9.22013 8.28287 9.97992 8.7515 10.4486L10.303 12L8.7515 13.5515C8.28287 14.0201 8.28287 14.7799 8.7515 15.2486C9.22013 15.7172 9.97992 15.7172 10.4486 15.2486L12 13.6971L13.5515 15.2486C14.0201 15.7172 14.7799 15.7172 15.2486 15.2486C15.7172 14.7799 15.7172 14.0201 15.2486 13.5515L13.6971 12L15.2486 10.4486C15.7172 9.97992 15.7172 9.22013 15.2486 8.7515C14.7799 8.28287 14.0201 8.28287 13.5515 8.7515L12 10.303L10.4486 8.7515Z" fill="#1A1D24"/>
</g>
</svg>
