<svg width="24" height="24" viewBox="0 0 24 24" fill="none" xmlns="http://www.w3.org/2000/svg">
<g id="icon-pricing-check">
<path id="Ellipse 140" d="M21.6 12C21.6 17.302 17.302 21.6 12 21.6C6.69809 21.6 2.40002 17.302 2.40002 12C2.40002 6.69809 6.69809 2.40002 12 2.40002C17.302 2.40002 21.6 6.69809 21.6 12Z" fill="#58D3DB"/>
<path id="Union" d="M14.2968 9.95145C14.7654 9.48282 15.5252 9.48282 15.9939 9.95145C16.4625 10.4201 16.4625 11.1799 15.9939 11.6485L11.6584 15.984C11.3461 16.2963 10.9045 16.4004 10.506 16.2966C10.306 16.2446 10.1168 16.1403 9.96009 15.9837L7.55148 13.5751C7.08285 13.1064 7.08285 12.3466 7.55148 11.878C8.02011 11.4094 8.77991 11.4094 9.24854 11.878L10.8094 13.4389L14.2968 9.95145Z" fill="#2B3038"/>
</g>
</svg>
