<svg width="14" height="16" viewBox="0 0 14 16" fill="none" xmlns="http://www.w3.org/2000/svg">
<path fill-rule="evenodd" clip-rule="evenodd" d="M5.99827 1.16287C6.62119 0.816804 7.37863 0.816803 8.00155 1.16287L12.6069 3.72143C13.6099 4.27865 13.6099 5.72112 12.607 6.27834L8.00155 8.83689C7.37863 9.18296 6.62119 9.18296 5.99827 8.83689L1.39287 6.27834C0.389877 5.72112 0.389875 4.27865 1.39287 3.72143L5.99827 1.16287ZM7.4552 2.1463C7.17206 1.98899 6.82777 1.98899 6.54462 2.1463L1.93922 4.70485C1.70776 4.83344 1.70776 5.16632 1.93922 5.29491L6.54462 7.85347C6.82777 8.01077 7.17206 8.01077 7.4552 7.85347L12.0606 5.29491C12.2921 5.16632 12.2921 4.83344 12.0606 4.70485L7.4552 2.1463Z" fill="#33373D"/>
<path d="M1.20311 10.4374C1.51377 10.4374 1.76562 10.6892 1.76562 10.9999C1.76563 11.1194 1.8229 11.2303 1.93922 11.2949L6.54462 13.8535C6.82777 14.0108 7.17206 14.0108 7.4552 13.8535L12.0606 11.2949C12.1769 11.2303 12.2342 11.1194 12.2342 10.9999C12.2342 10.6892 12.486 10.4374 12.7967 10.4374C13.1074 10.4374 13.3592 10.6892 13.3592 10.9999C13.3592 11.4956 13.1079 12.0001 12.607 12.2783L8.00155 14.8369C7.37863 15.183 6.62119 15.183 5.99827 14.8369L1.39287 12.2783C0.891972 12.0001 0.640634 11.4956 0.640625 10.9999C0.640619 10.6892 0.892455 10.4374 1.20311 10.4374Z" fill="#33373D"/>
<path d="M1.76562 7.99988C1.76562 7.68922 1.51377 7.43739 1.20311 7.43739C0.892455 7.4374 0.640619 7.68924 0.640625 7.9999C0.640634 8.49563 0.891972 9.00005 1.39287 9.27833L5.99827 11.8369C6.62119 12.183 7.37863 12.183 8.00155 11.8369L12.607 9.27833C13.1079 9.00005 13.3592 8.49563 13.3592 7.9999C13.3592 7.68924 13.1074 7.4374 12.7967 7.43739C12.486 7.43739 12.2342 7.68922 12.2342 7.99988C12.2342 8.11944 12.1769 8.23028 12.0606 8.2949L7.4552 10.8535C7.17206 11.0108 6.82777 11.0108 6.54462 10.8535L1.93922 8.29491C1.8229 8.23028 1.76563 8.11944 1.76562 7.99988Z" fill="#33373D"/>
</svg>
