<svg width="13" height="12" viewBox="0 0 13 12" fill="none" xmlns="http://www.w3.org/2000/svg">
<path d="M0.813315 6C0.813315 5.91814 0.830775 5.84036 0.862173 5.77018L0.954083 5.62745C0.961841 5.61867 0.96992 5.61007 0.978319 5.60167L6.41499 0.164997C6.63499 -0.0549982 6.99167 -0.0549982 7.21166 0.164995C7.43165 0.384989 7.43165 0.741669 7.21166 0.961663L2.73666 5.43667L12.4367 5.43667C12.7478 5.43667 13 5.68888 13 6C13 6.31112 12.7478 6.56333 12.4367 6.56333L2.73665 6.56333L7.21166 11.0383C7.43165 11.2583 7.43165 11.615 7.21166 11.835C6.99167 12.055 6.63498 12.055 6.41499 11.835L0.978322 6.39834L0.977119 6.39714C0.925251 6.34496 0.885701 6.28516 0.858471 6.22136C0.829406 6.1534 0.813315 6.07858 0.813315 6Z" fill="#33373D"/>
</svg>
