<svg width="24" height="24" viewBox="0 0 24 24" fill="none" xmlns="http://www.w3.org/2000/svg">
<path fill-rule="evenodd" clip-rule="evenodd" d="M6 4.75C5.30964 4.75 4.75 5.30964 4.75 6V8C4.75 8.41421 4.41421 8.75 4 8.75C3.58579 8.75 3.25 8.41421 3.25 8V6C3.25 4.48122 4.48122 3.25 6 3.25H8C8.41421 3.25 8.75 3.58579 8.75 4C8.75 4.41421 8.41421 4.75 8 4.75H6Z" fill="currentColor"/>
<path fill-rule="evenodd" clip-rule="evenodd" d="M18 4.75C18.6904 4.75 19.25 5.30964 19.25 6V8C19.25 8.41421 19.5858 8.75 20 8.75C20.4142 8.75 20.75 8.41421 20.75 8V6C20.75 4.48122 19.5188 3.25 18 3.25H16C15.5858 3.25 15.25 3.58579 15.25 4C15.25 4.41421 15.5858 4.75 16 4.75H18Z" fill="currentColor"/>
<path fill-rule="evenodd" clip-rule="evenodd" d="M6 19.25C5.30964 19.25 4.75 18.6904 4.75 18V16C4.75 15.5858 4.41421 15.25 4 15.25C3.58579 15.25 3.25 15.5858 3.25 16V18C3.25 19.5188 4.48122 20.75 6 20.75H8C8.41421 20.75 8.75 20.4142 8.75 20C8.75 19.5858 8.41421 19.25 8 19.25H6Z" fill="currentColor"/>
<path fill-rule="evenodd" clip-rule="evenodd" d="M18 19.25C18.6904 19.25 19.25 18.6904 19.25 18V16C19.25 15.5858 19.5858 15.25 20 15.25C20.4142 15.25 20.75 15.5858 20.75 16V18C20.75 19.5188 19.5188 20.75 18 20.75H16C15.5858 20.75 15.25 20.4142 15.25 20C15.25 19.5858 15.5858 19.25 16 19.25H18Z" fill="currentColor"/>
</svg>
