<svg width="24" height="24" viewBox="0 0 24 24" fill="none" xmlns="http://www.w3.org/2000/svg">
<path d="M5.25 14.5C5.35915 14.5 5.46285 14.4767 5.55643 14.4349L5.74673 14.3123C5.75844 14.302 5.7699 14.2912 5.7811 14.28L9.03 11.0311C9.32333 10.7378 9.32333 10.2622 9.03001 9.96887C8.73668 9.67555 8.26111 9.67555 7.96778 9.96887L6.00111 11.9355C6.00111 10.6546 6.00083 10.2487 6.00055 9.84277C6.00028 9.43685 6 9.03093 6 7.75C6 6.50736 7.00736 5.5 8.25 5.5H15.75C16.1642 5.5 16.5 5.16421 16.5 4.75C16.5 4.33579 16.1642 4 15.75 4H8.25C6.17893 4 4.5 5.67893 4.5 7.75C4.5 9.03093 4.49972 9.43685 4.49945 9.84277C4.49917 10.2487 4.4989 10.6546 4.4989 11.9356L2.53222 9.96888C2.23889 9.67555 1.76332 9.67555 1.46999 9.96888C1.17667 10.2622 1.17667 10.7378 1.46999 11.0311L4.71888 14.28L4.72049 14.2816C4.79005 14.3508 4.86979 14.4035 4.95486 14.4398C5.04546 14.4785 5.14523 14.5 5.25 14.5Z" fill="currentColor"/>
<path d="M18.5 9.5C18.3909 9.5 18.2871 9.52328 18.1936 9.56514L18.0033 9.68769C17.9916 9.69803 17.9801 9.70881 17.9689 9.72001L14.72 12.9689C14.4267 13.2622 14.4267 13.7378 14.72 14.0311C15.0133 14.3245 15.4889 14.3245 15.7822 14.0311L17.7489 12.0645C17.7489 13.3454 17.7492 13.7513 17.7494 14.1572C17.7497 14.5632 17.75 14.9691 17.75 16.25C17.75 17.4926 16.7426 18.5 15.5 18.5H8C7.58579 18.5 7.25 18.8358 7.25 19.25C7.25 19.6642 7.58579 20 8 20H15.5C17.5711 20 19.25 18.3211 19.25 16.25C19.25 14.9691 19.2503 14.5631 19.2506 14.1572C19.2508 13.7513 19.2511 13.3454 19.2511 12.0644L21.2178 14.0311C21.5111 14.3244 21.9867 14.3244 22.28 14.0311C22.5733 13.7378 22.5733 13.2622 22.28 12.9689L19.0311 9.72001L19.0295 9.7184C18.9599 9.64925 18.8802 9.59651 18.7951 9.56021C18.7045 9.52145 18.6048 9.5 18.5 9.5Z" fill="currentColor"/>
</svg>
