<svg width="1600" height="580" viewBox="0 0 1600 580" fill="none" xmlns="http://www.w3.org/2000/svg">
<path opacity="0.8" d="M0.738525 0.338067C0.738525 0.338067 262.718 452.301 419.61 452.301C576.502 452.301 677.889 263.76 859.943 263.76C1042 263.76 1183.35 580 1349.12 580C1514.9 580 1600 420.208 1600 420.208" stroke="#E58A57"/>
<path opacity="0.8" d="M0.738525 69.8625C0.738525 69.8625 262.718 467.617 419.61 467.617C576.502 467.617 677.889 301.69 859.943 301.69C1042 301.69 1183.35 580 1349.12 580C1514.9 580 1600 439.374 1600 439.374" stroke="#E58A57"/>
<path opacity="0.8" d="M0.73877 139.388C0.73877 139.388 262.718 482.933 419.61 482.933C576.502 482.933 677.89 339.619 859.943 339.619C1042 339.619 1183.35 580 1349.12 580C1514.9 580 1600 458.539 1600 458.539" stroke="#C15772"/>
<path opacity="0.8" d="M0.73877 208.913C0.73877 208.913 262.718 498.25 419.61 498.25C576.502 498.25 677.89 377.549 859.943 377.549C1042 377.549 1183.35 580 1349.12 580C1514.9 580 1600 477.705 1600 477.705" stroke="#C15772"/>
<path opacity="0.8" d="M0.73877 278.437C0.73877 278.437 262.718 513.566 419.61 513.566C576.502 513.566 677.89 415.479 859.943 415.479C1042 415.479 1183.35 580 1349.12 580C1514.9 580 1600 496.87 1600 496.87" stroke="#A83E87"/>
<path opacity="0.8" d="M0.73877 347.962C0.73877 347.962 262.718 528.882 419.61 528.882C576.502 528.882 677.89 453.409 859.943 453.409C1042 453.409 1183.35 580 1349.12 580C1514.9 580 1600 516.035 1600 516.035" stroke="#A83E87"/>
<path opacity="0.8" d="M0.73877 417.486C0.73877 417.486 262.718 544.198 419.61 544.198C576.502 544.198 677.89 491.339 859.943 491.339C1042 491.339 1183.35 580 1349.12 580C1514.9 580 1600 535.201 1600 535.201" stroke="#88299C"/>
<path opacity="0.7" d="M0.73877 469.63C0.73877 469.63 262.718 555.686 419.61 555.686C576.502 555.685 677.89 519.787 859.943 519.786C1042 519.786 1183.35 580 1349.12 580C1514.9 580 1600 549.575 1600 549.575" stroke="#88299C"/>
<path opacity="0.7" d="M0.73877 521.773C0.73877 521.773 262.718 567.173 419.61 567.173C576.502 567.173 677.89 548.234 859.943 548.234C1042 548.234 1183.35 580 1349.12 580C1514.9 580 1600 563.949 1600 563.949" stroke="#531B9F"/>
<path opacity="0.7" d="M0.73877 573.917C0.73877 573.917 262.718 578.66 419.61 578.66C576.502 578.66 677.89 576.681 859.943 576.681C1042 576.681 1183.35 580 1349.12 580C1514.9 580 1600 578.323 1600 578.323" stroke="#0A1482"/>
</svg>
