<svg width="60" height="60" viewBox="0 0 60 60" fill="none" xmlns="http://www.w3.org/2000/svg">
<path d="M2.57492e-05 19.38C2.57492e-05 22.805 2.77653 25.5815 6.20152 25.5815C9.62651 25.5815 12.403 22.805 12.403 19.38C12.403 15.955 9.62651 13.1785 6.20152 13.1785C2.77653 13.1785 2.57492e-05 15.955 2.57492e-05 19.38Z" fill="#FFCC33"/>
<path d="M2.57492e-05 50.3874C2.57492e-05 53.8124 2.77653 56.5889 6.20152 56.5889C9.62651 56.5889 12.403 53.8124 12.403 50.3874C12.403 46.9624 9.62651 44.1859 6.20152 44.1859C2.77653 44.1859 2.57492e-05 46.9624 2.57492e-05 50.3874Z" fill="#FFCC33"/>
<path d="M2.32558 34.884C2.32558 37.0247 4.06093 38.76 6.20158 38.76C8.34223 38.76 10.0776 37.0247 10.0776 34.884C10.0776 32.7434 8.34223 31.008 6.20158 31.008C4.06093 31.008 2.32558 32.7434 2.32558 34.884Z" fill="#FFCC33"/>
<path d="M2.32558 3.876C2.32558 6.01665 4.06093 7.75199 6.20158 7.75199C8.34223 7.75199 10.0776 6.01665 10.0776 3.876C10.0776 1.73534 8.34223 0 6.20158 0C4.06093 0 2.32558 1.73534 2.32558 3.876Z" fill="#FFCC33"/>
<path d="M23.7983 40.62C23.7983 44.045 26.5748 46.8215 29.9998 46.8215C33.4248 46.8215 36.2013 44.045 36.2013 40.62C36.2013 37.195 33.4248 34.4185 29.9998 34.4185C26.5748 34.4185 23.7983 37.195 23.7983 40.62Z" fill="#FFCC33"/>
<path d="M26.1239 56.124C26.1239 58.2647 27.8592 60 29.9999 60C32.1405 60 33.8759 58.2647 33.8759 56.124C33.8759 53.9834 32.1405 52.248 29.9999 52.248C27.8592 52.248 26.1239 53.9834 26.1239 56.124Z" fill="#FFCC33"/>
<path d="M26.1239 25.1165C26.1239 27.2571 27.8592 28.9925 29.9999 28.9925C32.1405 28.9925 33.8759 27.2571 33.8759 25.1165C33.8759 22.9758 32.1405 21.2405 29.9999 21.2405C27.8592 21.2405 26.1239 22.9758 26.1239 25.1165Z" fill="#FFCC33"/>
<path d="M26.1239 9.61245C26.1239 11.7531 27.8592 13.4884 29.9999 13.4884C32.1405 13.4884 33.8759 11.7531 33.8759 9.61245C33.8759 7.47179 32.1405 5.73645 29.9999 5.73645C27.8592 5.73645 26.1239 7.47179 26.1239 9.61245Z" fill="#FFCC33"/>
<path d="M47.5968 19.38C47.5968 22.805 50.3733 25.5815 53.7983 25.5815C57.2233 25.5815 59.9998 22.805 59.9998 19.38C59.9998 15.955 57.2233 13.1785 53.7983 13.1785C50.3733 13.1785 47.5968 15.955 47.5968 19.38Z" fill="#FFCC33"/>
<path d="M49.9224 3.876C49.9224 6.01665 51.6577 7.75199 53.7984 7.75199C55.939 7.75199 57.6744 6.01665 57.6744 3.876C57.6744 1.73534 55.939 0 53.7984 0C51.6577 0 49.9224 1.73534 49.9224 3.876Z" fill="#FFCC33"/>
<path d="M49.9224 34.884C49.9224 37.0247 51.6577 38.76 53.7984 38.76C55.939 38.76 57.6744 37.0247 57.6744 34.884C57.6744 32.7434 55.939 31.008 53.7984 31.008C51.6577 31.008 49.9224 32.7434 49.9224 34.884Z" fill="#FFCC33"/>
<path d="M49.9224 50.3875C49.9224 52.5281 51.6577 54.2635 53.7984 54.2635C55.939 54.2635 57.6744 52.5281 57.6744 50.3875C57.6744 48.2468 55.939 46.5115 53.7984 46.5115C51.6577 46.5115 49.9224 48.2468 49.9224 50.3875Z" fill="#FFCC33"/>
</svg>
