<svg width="256" height="256" viewBox="0 0 256 256" fill="none" xmlns="http://www.w3.org/2000/svg">
<rect width="256" height="256" fill="#1A1C1F"/>
<path d="M51.2005 100.813C51.2005 109.581 58.3083 116.689 67.0763 116.689C75.8443 116.689 82.9521 109.581 82.9521 100.813C82.9521 92.0449 75.8443 84.937 67.0763 84.937C58.3083 84.937 51.2005 92.0449 51.2005 100.813Z" fill="#FFCC00"/>
<path d="M51.2005 180.192C51.2005 188.96 58.3083 196.068 67.0763 196.068C75.8443 196.068 82.9521 188.96 82.9521 180.192C82.9521 171.424 75.8443 164.316 67.0763 164.316C58.3083 164.316 51.2005 171.424 51.2005 180.192Z" fill="#FFCC00"/>
<path d="M57.1529 140.503C57.1529 145.983 61.5954 150.426 67.0755 150.426C72.5556 150.426 76.998 145.983 76.998 140.503C76.998 135.023 72.5556 130.581 67.0755 130.581C61.5954 130.581 57.1529 135.023 57.1529 140.503Z" fill="#FFCC00"/>
<path d="M57.1529 61.1226C57.1529 66.6027 61.5954 71.0452 67.0755 71.0452C72.5556 71.0452 76.998 66.6027 76.998 61.1226C76.998 55.6426 72.5556 51.2001 67.0755 51.2001C61.5954 51.2001 57.1529 55.6426 57.1529 61.1226Z" fill="#FFCC00"/>
<path d="M112.124 155.187C112.124 163.955 119.232 171.063 128 171.063C136.768 171.063 143.876 163.955 143.876 155.187C143.876 146.419 136.768 139.311 128 139.311C119.232 139.311 112.124 146.419 112.124 155.187Z" fill="#FFCC00"/>
<path d="M118.078 194.878C118.078 200.358 122.52 204.8 128 204.8C133.48 204.8 137.923 200.358 137.923 194.878C137.923 189.397 133.48 184.955 128 184.955C122.52 184.955 118.078 189.397 118.078 194.878Z" fill="#FFCC00"/>
<path d="M118.078 115.498C118.078 120.978 122.52 125.421 128 125.421C133.48 125.421 137.923 120.978 137.923 115.498C137.923 110.018 133.48 105.576 128 105.576C122.52 105.576 118.078 110.018 118.078 115.498Z" fill="#FFCC00"/>
<path d="M118.078 75.8081C118.078 81.2881 122.52 85.7306 128 85.7306C133.48 85.7306 137.923 81.2881 137.923 75.8081C137.923 70.328 133.48 65.8855 128 65.8855C122.52 65.8855 118.078 70.328 118.078 75.8081Z" fill="#FFCC00"/>
<path d="M173.048 100.813C173.048 109.581 180.156 116.689 188.924 116.689C197.692 116.689 204.8 109.581 204.8 100.813C204.8 92.0449 197.692 84.937 188.924 84.937C180.156 84.937 173.048 92.0449 173.048 100.813Z" fill="#FFCC00"/>
<path d="M179.002 61.1226C179.002 66.6027 183.444 71.0452 188.924 71.0452C194.404 71.0452 198.847 66.6027 198.847 61.1226C198.847 55.6426 194.404 51.2001 188.924 51.2001C183.444 51.2001 179.002 55.6426 179.002 61.1226Z" fill="#FFCC00"/>
<path d="M179.002 140.503C179.002 145.983 183.444 150.426 188.924 150.426C194.404 150.426 198.847 145.983 198.847 140.503C198.847 135.023 194.404 130.581 188.924 130.581C183.444 130.581 179.002 135.023 179.002 140.503Z" fill="#FFCC00"/>
<path d="M179.002 180.192C179.002 185.672 183.444 190.115 188.924 190.115C194.404 190.115 198.847 185.672 198.847 180.192C198.847 174.712 194.404 170.27 188.924 170.27C183.444 170.27 179.002 174.712 179.002 180.192Z" fill="#FFCC00"/>
</svg>
