<svg width="24" height="24" viewBox="0 0 24 24" fill="none" xmlns="http://www.w3.org/2000/svg">
<path fill-rule="evenodd" clip-rule="evenodd" d="M14.742 1.88577C13.2276 0.371409 10.7724 0.371409 9.258 1.88577L1.88577 9.258C0.371409 10.7724 0.371409 13.2276 1.88577 14.742L9.258 22.1142C10.7724 23.6286 13.2276 23.6286 14.742 22.1142L22.1142 14.742C23.6286 13.2276 23.6286 10.7724 22.1142 9.258L14.742 1.88577ZM10.3187 2.94643C11.2472 2.01786 12.7528 2.01786 13.6813 2.94643L21.0536 10.3187C21.9821 11.2472 21.9821 12.7528 21.0536 13.6813L13.6813 21.0536C12.7528 21.9821 11.2472 21.9821 10.3187 21.0536L2.94643 13.6813C2.01786 12.7528 2.01786 11.2472 2.94643 10.3187L8.46083 4.80427C8.53893 4.72616 8.66556 4.72616 8.74367 4.80427L9.86921 5.92981C9.92919 5.98979 9.94398 6.08075 9.91227 6.15941C9.80761 6.41911 9.75 6.70283 9.75 7C9.75 7.92967 10.3138 8.72765 11.1182 9.07063C11.1962 9.10388 11.25 9.17864 11.25 9.26341V14.7366C11.25 14.8214 11.1962 14.8961 11.1182 14.9294C10.3138 15.2724 9.75 16.0703 9.75 17C9.75 18.2426 10.7574 19.25 12 19.25C13.2426 19.25 14.25 18.2426 14.25 17C14.25 16.0703 13.6862 15.2724 12.8818 14.9294C12.8038 14.8961 12.75 14.8214 12.75 14.7366V9.24112C12.75 9.16971 12.7955 9.10654 12.8615 9.07918C12.9275 9.05181 13.0039 9.06449 13.0544 9.11502L14.8692 10.9298C14.9292 10.9898 14.944 11.0807 14.9123 11.1594C14.8076 11.4191 14.75 11.7028 14.75 12C14.75 13.2426 15.7574 14.25 17 14.25C18.2426 14.25 19.25 13.2426 19.25 12C19.25 10.7574 18.2426 9.75 17 9.75C16.7029 9.75 16.4192 9.8076 16.1595 9.91224C16.0808 9.94394 15.9899 9.92915 15.9299 9.86918L14.1308 8.0701C14.0709 8.01013 14.0561 7.91917 14.0878 7.84051C14.1924 7.58083 14.25 7.29714 14.25 7C14.25 5.75736 13.2426 4.75 12 4.75C11.7029 4.75 11.4192 4.8076 11.1595 4.91224C11.0808 4.94394 10.9899 4.92915 10.9299 4.86918L9.80433 3.74361C9.72622 3.6655 9.72622 3.53887 9.80433 3.46076L10.3187 2.94643ZM16.25 12C16.25 11.5858 16.5858 11.25 17 11.25C17.4142 11.25 17.75 11.5858 17.75 12C17.75 12.4142 17.4142 12.75 17 12.75C16.5858 12.75 16.25 12.4142 16.25 12ZM12 6.25C11.5858 6.25 11.25 6.58579 11.25 7C11.25 7.41421 11.5858 7.75 12 7.75C12.4142 7.75 12.75 7.41421 12.75 7C12.75 6.58579 12.4142 6.25 12 6.25ZM11.25 17C11.25 16.5858 11.5858 16.25 12 16.25C12.4142 16.25 12.75 16.5858 12.75 17C12.75 17.4142 12.4142 17.75 12 17.75C11.5858 17.75 11.25 17.4142 11.25 17Z" fill="currentColor"/>
</svg>
