<svg width="24" height="24" viewBox="0 0 24 24" fill="none" xmlns="http://www.w3.org/2000/svg">
<path fill-rule="evenodd" clip-rule="evenodd" d="M11.6492 1.25C11.011 1.25 10.4075 1.5401 10.0088 2.03843L7.01484 5.78087C6.77762 6.07739 6.41848 6.25 6.03875 6.25H4C3.0335 6.25 2.25 7.0335 2.25 8V15C2.25 16.5188 3.48122 17.75 5 17.75H17.4634C18.7087 17.75 19.8004 16.9135 20.1181 15.7063C20.4096 14.599 20.8122 13.0565 21.1422 11.745C21.307 11.0898 21.4547 10.4885 21.5615 10.0268C21.6148 9.79652 21.659 9.59587 21.6904 9.4384C21.715 9.31499 21.75 9.13429 21.75 9L21.75 8.97866C21.7503 8.72142 21.7512 8.05291 21.4012 7.4404C20.9954 6.73027 20.2211 6.25 19 6.25H14.9997C14.3095 6.25 13.75 5.69049 13.75 5V3.35078C13.75 2.19055 12.8094 1.25 11.6492 1.25ZM11.1801 2.97548C11.2941 2.83296 11.4667 2.75 11.6492 2.75C11.981 2.75 12.25 3.01898 12.25 3.35078V5C12.25 6.51865 13.4808 7.75 14.9997 7.75H19C19.7789 7.75 20.0046 8.01973 20.0988 8.1846C20.2351 8.42316 20.2493 8.72417 20.25 8.98026C20.2496 8.98023 20.2485 8.98498 20.2465 8.99711C20.2427 9.01997 20.235 9.06664 20.2193 9.14547C20.1923 9.28086 20.152 9.46437 20.1001 9.68878C19.9965 10.1364 19.8516 10.7267 19.6875 11.379C19.3595 12.6824 18.9586 14.2186 18.6675 15.3245C18.524 15.8698 18.0304 16.25 17.4634 16.25H7.75V7.15273C7.90971 7.02578 8.05623 6.88029 8.18614 6.71791L11.1801 2.97548ZM6.25 7.74189C6.18 7.74727 6.10954 7.75 6.03875 7.75H4C3.86193 7.75 3.75 7.86193 3.75 8V15C3.75 15.6904 4.30964 16.25 5 16.25H6.25V7.74189Z" fill="currentColor"/>
</svg>
