<svg width="24" height="24" viewBox="0 0 24 24" fill="none" xmlns="http://www.w3.org/2000/svg">
<path fill-rule="evenodd" clip-rule="evenodd" d="M16.75 19.675C18.2193 19.3767 19.3767 18.2193 19.675 16.75H21.5C21.9142 16.75 22.25 16.4142 22.25 16C22.25 15.5858 21.9142 15.25 21.5 15.25H19.75V12.75H21.5C21.9142 12.75 22.25 12.4142 22.25 12C22.25 11.5858 21.9142 11.25 21.5 11.25H19.75V8.75H21.5C21.9142 8.75 22.25 8.41421 22.25 8C22.25 7.58579 21.9142 7.25 21.5 7.25H19.675C19.3767 5.78065 18.2193 4.62328 16.75 4.32501V2.5C16.75 2.08579 16.4142 1.75 16 1.75C15.5858 1.75 15.25 2.08579 15.25 2.5V4.25H12.75V2.5C12.75 2.08579 12.4142 1.75 12 1.75C11.5858 1.75 11.25 2.08579 11.25 2.5V4.25H8.75V2.5C8.75 2.08579 8.41421 1.75 8 1.75C7.58579 1.75 7.25 2.08579 7.25 2.5V4.32501C5.78065 4.62328 4.62328 5.78065 4.32501 7.25H2.5C2.08579 7.25 1.75 7.58579 1.75 8C1.75 8.41421 2.08579 8.75 2.5 8.75H4.25V11.25H2.5C2.08579 11.25 1.75 11.5858 1.75 12C1.75 12.4142 2.08579 12.75 2.5 12.75H4.25V15.25H2.5C2.08579 15.25 1.75 15.5858 1.75 16C1.75 16.4142 2.08579 16.75 2.5 16.75H4.32501C4.62328 18.2193 5.78065 19.3767 7.25 19.675V21.5C7.25 21.9142 7.58579 22.25 8 22.25C8.41421 22.25 8.75 21.9142 8.75 21.5V19.75H11.25V21.5C11.25 21.9142 11.5858 22.25 12 22.25C12.4142 22.25 12.75 21.9142 12.75 21.5V19.75H15.25V21.5C15.25 21.9142 15.5858 22.25 16 22.25C16.4142 22.25 16.75 21.9142 16.75 21.5V19.675ZM5.75 8C5.75 6.75736 6.75736 5.75 8 5.75H16C17.2426 5.75 18.25 6.75736 18.25 8V16C18.25 17.2426 17.2426 18.25 16 18.25H8C6.75736 18.25 5.75 17.2426 5.75 16V8Z" fill="currentColor"/>
</svg>
