<svg xmlns="http://www.w3.org/2000/svg" width="24" height="24" viewBox="0 0 24 24" fill="none">
  <path d="M9 3.25C8.58579 3.25 8.25 3.58579 8.25 4C8.25 4.41421 8.58579 4.75 9 4.75H10.25V19.25H9C8.58579 19.25 8.25 19.5858 8.25 20C8.25 20.4142 8.58579 20.75 9 20.75H11.75V12.7073C11.8282 12.735 11.9123 12.75 12 12.75H21C21.4142 12.75 21.75 12.4142 21.75 12C21.75 11.5858 21.4142 11.25 21 11.25H12C11.9123 11.25 11.8282 11.265 11.75 11.2927V3.25H9Z" fill="currentColor"/>
  <path d="M5.5 12C5.5 12.5523 5.05228 13 4.5 13C3.94772 13 3.5 12.5523 3.5 12C3.5 11.4477 3.94772 11 4.5 11C5.05228 11 5.5 11.4477 5.5 12Z" fill="currentColor"/>
  <path d="M7.5 13C8.05228 13 8.5 12.5523 8.5 12C8.5 11.4477 8.05228 11 7.5 11C6.94772 11 6.5 11.4477 6.5 12C6.5 12.5523 6.94772 13 7.5 13Z" fill="currentColor"/>
</svg>
