<svg width="24" height="24" viewBox="0 0 24 24" fill="none" xmlns="http://www.w3.org/2000/svg">
<path fill-rule="evenodd" clip-rule="evenodd" d="M3.75 12C3.75 7.44365 7.44365 3.75 12 3.75C16.5563 3.75 20.25 7.44365 20.25 12C20.25 13.1193 19.9224 13.883 19.4974 14.3698C19.0695 14.8601 18.5048 15.1152 17.9428 15.1582C17.3766 15.2015 16.8294 15.0288 16.4306 14.6809C16.0431 14.3427 15.75 13.7994 15.75 13V12.1461C15.7501 12.1299 15.7501 12.1138 15.75 12.0976V9C15.75 8.58579 15.4142 8.25 15 8.25C14.5923 8.25 14.2606 8.57524 14.2503 8.9804C13.6421 8.5249 12.8845 8.25 12.0467 8.25H11.9484C9.97745 8.25 8.25 9.84889 8.25 11.9508V12.0492C8.25 14.0366 9.86283 15.75 12.0467 15.75C13.035 15.75 13.9486 15.3614 14.621 14.7246C14.8245 15.1495 15.1047 15.5147 15.4444 15.8111C16.1706 16.4448 17.1234 16.7252 18.0572 16.6538C18.9952 16.5821 19.9305 16.1548 20.6276 15.3562C21.3276 14.554 21.75 13.422 21.75 12C21.75 6.61522 17.3848 2.25 12 2.25C6.61522 2.25 2.25 6.61522 2.25 12C2.25 17.3848 6.61522 21.75 12 21.75C13.3435 21.75 14.6253 21.4778 15.7919 20.985C16.1735 20.8237 16.3521 20.3838 16.1909 20.0022C16.0297 19.6206 15.5897 19.442 15.2081 19.6032C14.2229 20.0195 13.1393 20.25 12 20.25C7.44365 20.25 3.75 16.5563 3.75 12ZM9.75 11.9508C9.75 10.7085 10.7744 9.75 11.9484 9.75H12.0467C13.2865 9.75 14.245 10.7743 14.245 11.9508C14.245 11.9655 14.2455 11.9802 14.2463 11.9948C14.3178 13.2106 13.3119 14.25 12.0467 14.25C10.6924 14.25 9.75 13.2093 9.75 12.0492V11.9508Z" fill="currentColor"/>
</svg>
