<svg width="24" height="24" viewBox="0 0 24 24" fill="none" xmlns="http://www.w3.org/2000/svg">
<path fill-rule="evenodd" clip-rule="evenodd" d="M12 8.74997C10.2051 8.74997 8.75 10.205 8.75 12C8.75 13.7949 10.2051 15.25 12 15.25C13.7949 15.25 15.25 13.7949 15.25 12C15.25 10.205 13.7949 8.74997 12 8.74997ZM10.25 12C10.25 11.0335 11.0335 10.25 12 10.25C12.9665 10.25 13.75 11.0335 13.75 12C13.75 12.9665 12.9665 13.75 12 13.75C11.0335 13.75 10.25 12.9665 10.25 12Z" fill="currentColor"/>
<path fill-rule="evenodd" clip-rule="evenodd" d="M10.9394 1.71997C9.64994 1.71997 8.60369 2.76627 8.60369 4.05572V4.66324C8.60369 5.31201 7.90874 5.71355 7.34783 5.39225L7.34578 5.39108L6.82343 5.09405C5.69732 4.44208 4.27773 4.84243 3.63098 5.9404L2.56786 7.77764C1.91362 8.9042 2.31369 10.3256 3.41257 10.9729L3.94649 11.2765C4.50294 11.5961 4.503 12.4035 3.94665 12.7232L3.94564 12.7237L3.42252 13.0211L3.41645 13.0247C2.29725 13.675 1.9174 15.1019 2.56816 16.2226L3.62876 18.0555C4.27858 19.1738 5.70305 19.5543 6.82336 18.9058L7.34578 18.6087L7.34783 18.6075C7.90875 18.2862 8.60369 18.6878 8.60369 19.3365V19.944C8.60369 21.2335 9.64994 22.2798 10.9394 22.2798H13.0606C14.3501 22.2798 15.3964 21.2335 15.3964 19.944V19.3365C15.3964 18.6877 16.0913 18.2862 16.6522 18.6075L16.6542 18.6087L17.1767 18.9058C18.3028 19.5577 19.7223 19.1573 20.369 18.0594L21.4319 16.2226C22.0865 15.0959 21.6865 13.6742 20.5874 13.0268L20.0544 12.7237L20.0533 12.7231C19.4971 12.4034 19.4971 11.5961 20.0535 11.2765L20.0544 11.276L20.5775 10.9786L20.5836 10.9751C21.7009 10.3258 22.0848 8.88901 21.4312 7.77598L21.4296 7.77328L20.3719 5.94543L20.3713 5.94425C19.7214 4.82593 18.2969 4.44542 17.1766 5.09405L16.6542 5.39108L16.6522 5.39225C16.0913 5.71355 15.3964 5.31202 15.3964 4.66324V4.05572C15.3964 2.76625 14.3501 1.71997 13.0606 1.71997H10.9394ZM10.1037 4.05572C10.1037 3.59467 10.4784 3.21997 10.9394 3.21997H13.0606C13.5216 3.21997 13.8964 3.59469 13.8964 4.05572V4.66324C13.8964 6.46471 15.8365 7.58705 17.3966 6.69449L17.3978 6.69384L17.9209 6.39643L17.9269 6.3929C18.3298 6.15878 18.8391 6.29387 19.0743 6.69788L20.1342 8.52958L20.1372 8.53459C20.3664 8.92372 20.2362 9.44021 19.8325 9.67664L19.3109 9.97326L19.3088 9.97443C17.7453 10.8701 17.7453 13.1297 19.3088 14.0253L19.3109 14.0265L19.8303 14.3219C20.2314 14.5611 20.365 15.0731 20.1349 15.469L20.1342 15.4702L19.0766 17.298L19.0752 17.3003C18.8365 17.7029 18.3235 17.8373 17.927 17.6068L17.3978 17.3059L17.3968 17.3054C15.8366 16.4127 13.8964 17.535 13.8964 19.3365V19.944C13.8964 20.4051 13.5216 20.7798 13.0606 20.7798H10.9394C10.4784 20.7798 10.1037 20.4051 10.1037 19.944V19.3365C10.1037 17.535 8.16343 16.4127 6.60335 17.3053L6.60226 17.3059L6.07916 17.6033L6.0731 17.6069C5.67014 17.841 5.1609 17.706 4.92569 17.3019L3.86579 15.4702L3.8651 15.469C3.63135 15.0667 3.76495 14.5589 4.16747 14.3231L4.68914 14.0265L4.69121 14.0253C6.25476 13.1297 6.25476 10.8701 4.69121 9.97443L4.16974 9.67791C3.76866 9.43868 3.63502 8.9267 3.8651 8.53075L4.92471 6.69958C5.16342 6.29692 5.67646 6.16246 6.07309 6.39293L6.60226 6.69384L6.60349 6.69454C8.16355 7.587 10.1037 6.46469 10.1037 4.66324V4.05572Z" fill="currentColor"/>
</svg>
