<svg width="24" height="24" viewBox="0 0 24 24" fill="none" xmlns="http://www.w3.org/2000/svg">
<path d="M14.0303 6.03033C14.3232 5.73744 14.3232 5.26256 14.0303 4.96967C13.7374 4.67678 13.2626 4.67678 12.9697 4.96967L10.5803 7.35906C10.3642 7.4907 10.22 7.7285 10.22 8C10.22 8.2715 10.3642 8.5093 10.5803 8.64094L12.9697 11.0303C13.2626 11.3232 13.7374 11.3232 14.0303 11.0303C14.3232 10.7374 14.3232 10.2626 14.0303 9.96967L12.8107 8.75H17C18.7949 8.75 20.25 10.2051 20.25 12C20.25 13.7949 18.7949 15.25 17 15.25H16.14C15.7258 15.25 15.39 15.5858 15.39 16C15.39 16.4142 15.7258 16.75 16.14 16.75H17C19.6234 16.75 21.75 14.6233 21.75 12C21.75 9.37665 19.6234 7.25 17 7.25H12.8107L14.0303 6.03033Z" fill="currentColor"/>
<path d="M9.96967 17.9697C9.67678 18.2626 9.67678 18.7374 9.96967 19.0303C10.2626 19.3232 10.7374 19.3232 11.0303 19.0303L13.4197 16.6409C13.6358 16.5093 13.78 16.2715 13.78 16C13.78 15.7285 13.6358 15.4907 13.4197 15.3591L11.0303 12.9697C10.7374 12.6768 10.2626 12.6768 9.96967 12.9697C9.67678 13.2626 9.67678 13.7374 9.96967 14.0303L11.1893 15.25H7C5.20507 15.25 3.75 13.7949 3.75 12C3.75 10.2051 5.20506 8.75 6.99998 8.75H7.86003C8.27424 8.75 8.61003 8.41421 8.61003 8C8.61003 7.58579 8.27424 7.25 7.86003 7.25H6.99998C4.37662 7.25 2.25 9.37665 2.25 12C2.25 14.6234 4.37665 16.75 7 16.75H11.1893L9.96967 17.9697Z" fill="currentColor"/>
</svg>
