<svg width="24" height="24" viewBox="0 0 24 24" fill="none" xmlns="http://www.w3.org/2000/svg">
<path d="M8 10.25C8.41421 10.25 8.75 10.5858 8.75 11V17C8.75 17.4142 8.41421 17.75 8 17.75C7.58579 17.75 7.25 17.4142 7.25 17V11C7.25 10.5858 7.58579 10.25 8 10.25Z" fill="currentColor"/>
<path d="M11.75 17V13.5C11.75 12.5335 12.5335 11.75 13.5 11.75C14.4665 11.75 15.25 12.5335 15.25 13.5V17C15.25 17.4142 15.5858 17.75 16 17.75C16.4142 17.75 16.75 17.4142 16.75 17V13.5C16.75 11.7051 15.2949 10.25 13.5 10.25C12.8419 10.25 12.2295 10.4456 11.7178 10.7818C11.6243 10.474 11.3383 10.25 11 10.25C10.5858 10.25 10.25 10.5858 10.25 11V17C10.25 17.4142 10.5858 17.75 11 17.75C11.4142 17.75 11.75 17.4142 11.75 17Z" fill="currentColor"/>
<path d="M8 9C8.55228 9 9 8.55228 9 8C9 7.44772 8.55228 7 8 7C7.44772 7 7 7.44772 7 8C7 8.55228 7.44772 9 8 9Z" fill="currentColor"/>
<path fill-rule="evenodd" clip-rule="evenodd" d="M2.25 6C2.25 3.92893 3.92893 2.25 6 2.25H18C20.0711 2.25 21.75 3.92893 21.75 6V18C21.75 20.0711 20.0711 21.75 18 21.75H6C3.92893 21.75 2.25 20.0711 2.25 18V6ZM6 3.75C4.75736 3.75 3.75 4.75736 3.75 6V18C3.75 19.2426 4.75736 20.25 6 20.25H18C19.2426 20.25 20.25 19.2426 20.25 18V6C20.25 4.75736 19.2426 3.75 18 3.75H6Z" fill="currentColor"/>
</svg>
