<svg width="24" height="24" viewBox="0 0 24 24" fill="none" xmlns="http://www.w3.org/2000/svg">
<path fill-rule="evenodd" clip-rule="evenodd" d="M9.5 5.25281C9.5 3.73403 8.26878 2.50281 6.75 2.50281H5.75C4.23122 2.50281 3 3.73403 3 5.25281V15.744C3 16.8165 4.05324 18.7944 4.64935 20.1432C5.26371 21.5333 7.23629 21.5333 7.85065 20.1432C8.40946 18.8788 9.5 16.8165 9.5 15.744V6.75608L9.50001 6.75281L9.5 6.74954V5.25281ZM7.6809 16.8165L6.47867 19.5369C6.3909 19.7354 6.1091 19.7354 6.02134 19.5369L4.8191 16.8165H7.6809ZM4.5 15.3165H8V7.50281L4.5 7.50281V15.3165ZM4.5 5.25281V6.00282H8V5.25281C8 4.56245 7.44036 4.00281 6.75 4.00281H5.75C5.05964 4.00281 4.5 4.56245 4.5 5.25281Z" fill="currentColor"/>
<path fill-rule="evenodd" clip-rule="evenodd" d="M21 3.40002C21 2.43353 20.2165 1.65002 19.25 1.65002H15.25C14.2835 1.65002 13.5 2.43353 13.5 3.40002V20.4C13.5 21.3665 14.2835 22.15 15.25 22.15H19.25C20.2165 22.15 21 21.3665 21 20.4V3.40002ZM19.25 3.15002C19.3881 3.15002 19.5 3.26195 19.5 3.40002V5.25H17.25C16.8358 5.25 16.5 5.58579 16.5 6C16.5 6.41421 16.8358 6.75 17.25 6.75H19.5V8.25H18.25C17.8358 8.25 17.5 8.58579 17.5 9C17.5 9.41421 17.8358 9.75 18.25 9.75H19.5V11.25H17.25C16.8358 11.25 16.5 11.5858 16.5 12C16.5 12.4142 16.8358 12.75 17.25 12.75H19.5V14.25H18.25C17.8358 14.25 17.5 14.5858 17.5 15C17.5 15.4142 17.8358 15.75 18.25 15.75H19.5V17.25H17.25C16.8358 17.25 16.5 17.5858 16.5 18C16.5 18.4142 16.8358 18.75 17.25 18.75H19.5V20.4C19.5 20.5381 19.3881 20.65 19.25 20.65H15.25C15.1119 20.65 15 20.5381 15 20.4V3.40002C15 3.26195 15.1119 3.15002 15.25 3.15002H19.25Z" fill="currentColor"/>
</svg>
