<svg width="24" height="24" viewBox="0 0 24 24" fill="none" xmlns="http://www.w3.org/2000/svg">
<path d="M8.5 8.25C8.08579 8.25 7.75 8.58579 7.75 9C7.75 9.41421 8.08579 9.75 8.5 9.75H15.5C15.9142 9.75 16.25 9.41421 16.25 9C16.25 8.58579 15.9142 8.25 15.5 8.25H8.5Z" fill="currentColor"/>
<path d="M7.75 12C7.75 11.5858 8.08579 11.25 8.5 11.25H15.5C15.9142 11.25 16.25 11.5858 16.25 12C16.25 12.4142 15.9142 12.75 15.5 12.75H8.5C8.08579 12.75 7.75 12.4142 7.75 12Z" fill="currentColor"/>
<path d="M8.5 14.25C8.08579 14.25 7.75 14.5858 7.75 15C7.75 15.4142 8.08579 15.75 8.5 15.75H15.5C15.9142 15.75 16.25 15.4142 16.25 15C16.25 14.5858 15.9142 14.25 15.5 14.25H8.5Z" fill="currentColor"/>
<path fill-rule="evenodd" clip-rule="evenodd" d="M6 2.25C3.92893 2.25 2.25 3.92893 2.25 6V18C2.25 20.0711 3.92893 21.75 6 21.75H18C20.0711 21.75 21.75 20.0711 21.75 18V6C21.75 3.92893 20.0711 2.25 18 2.25H6ZM3.75 6C3.75 4.75736 4.75736 3.75 6 3.75H18C19.2426 3.75 20.25 4.75736 20.25 6V18C20.25 19.2426 19.2426 20.25 18 20.25H6C4.75736 20.25 3.75 19.2426 3.75 18V6Z" fill="currentColor"/>
</svg>
