<svg width="24" height="24" viewBox="0 0 24 24" fill="none" xmlns="http://www.w3.org/2000/svg">
<path fill-rule="evenodd" clip-rule="evenodd" d="M10.6221 2.20421C11.5845 1.91245 12.6168 1.93335 13.5693 2.26671L21.2686 4.96105C22.1557 5.27158 22.7498 6.10904 22.75 7.04894C22.75 8.27083 21.759 9.26183 20.5371 9.26183H19.75V16.7618H20.5C21.4665 16.7618 22.2499 17.5454 22.25 18.5118V20.0118C22.25 20.9783 21.4665 21.7618 20.5 21.7618H3.5C2.5335 21.7618 1.75 20.9783 1.75 20.0118V18.5118C1.75007 17.5454 2.53354 16.7618 3.5 16.7618H4.25V9.26183H3.46289C2.241 9.26183 1.25 8.27083 1.25 7.04894C1.25025 6.10904 1.84428 5.27158 2.73145 4.96105L10.4307 2.26671L10.6221 2.20421ZM3.5 18.2618C3.36197 18.2618 3.25007 18.3738 3.25 18.5118V20.0118C3.25 20.1499 3.36193 20.2618 3.5 20.2618H20.5C20.6381 20.2618 20.75 20.1499 20.75 20.0118V18.5118C20.7499 18.3738 20.638 18.2618 20.5 18.2618H3.5ZM15.25 9.26183V16.7618H18.25V9.26183H15.25ZM5.75 16.7618H8.75V9.26183H5.75V16.7618ZM10.25 16.7618H13.75V9.26183H10.25V16.7618ZM13.0732 3.68175C12.4651 3.46903 11.8094 3.44297 11.1895 3.60265L10.9268 3.68175L3.22754 6.37707C2.94198 6.47701 2.75025 6.74643 2.75 7.04894C2.75 7.4424 3.06942 7.76183 3.46289 7.76183H20.5371C20.9306 7.76183 21.25 7.44241 21.25 7.04894C21.2498 6.74643 21.058 6.47701 20.7725 6.37707L13.0732 3.68175Z" fill="currentColor"/>
</svg>
