<svg width="24" height="24" viewBox="0 0 24 24" fill="none" xmlns="http://www.w3.org/2000/svg">
<path d="M9.01009 5.39314C9.55028 5.1492 10.1297 4.96797 10.7411 4.86016C10.955 4.82243 11.1685 4.7945 11.381 4.77605C11.585 4.7588 11.7915 4.75 12 4.75C13.7796 4.75 15.4094 5.39116 16.6711 6.45508C17.4836 7.14027 18.1434 8.00081 18.5922 8.97836C18.8437 9.52793 19.03 10.1182 19.1399 10.7411C19.1422 10.7543 19.1449 10.7674 19.1479 10.7803C19.215 11.1769 19.25 11.5844 19.25 12C19.25 16.0041 16.0041 19.25 12 19.25C7.99594 19.25 4.75 16.0041 4.75 12C4.75 11.5858 4.41421 11.25 4 11.25C3.58579 11.25 3.25 11.5858 3.25 12C3.25 16.8325 7.16751 20.75 12 20.75C16.8325 20.75 20.75 16.8325 20.75 12C20.75 10.6987 20.466 9.46383 19.9565 8.35388C18.8699 5.98658 16.7578 4.18774 14.1891 3.52607C13.248 3.28234 12.2539 3.19314 11.2412 3.28246C10.1999 3.37193 9.21087 3.64379 8.30605 4.06579C7.70571 4.34488 7.14579 4.6886 6.63374 5.08671C6.32064 5.33013 6.02552 5.59382 5.75 5.87542V3.75C5.75 3.33579 5.41421 3 5 3C4.58579 3 4.25 3.33579 4.25 3.75V8C4.25 8.41421 4.58579 8.75 5 8.75L9.25 8.74999C9.66421 8.74999 10 8.4142 10 7.99999C10 7.58578 9.66421 7.24999 9.25 7.24999L6.52255 7.25C7.20421 6.46459 8.05157 5.82757 9.01009 5.39314Z" fill="currentColor"/>
</svg>
