<svg xmlns="http://www.w3.org/2000/svg" width="14" height="14" viewBox="0 0 14 14" fill="none">
  <path fill-rule="evenodd" clip-rule="evenodd" d="M7.67082 2.5884C7.36331 2.0887 6.63697 2.0887 6.32946 2.5884L4.50416 5.55451L2.39956 4.50221C1.88694 4.2459 1.30974 4.7089 1.44875 5.26492L2.49237 9.43942C2.54106 9.63418 2.71605 9.77081 2.91681 9.77081H11.0835C11.2842 9.77081 11.4592 9.63418 11.5079 9.43942L12.5515 5.26492C12.6905 4.7089 12.1133 4.2459 11.6007 4.50221L9.49612 5.55451L7.67082 2.5884ZM5.20737 6.08133L7.00014 3.16808L8.79291 6.08133C9.0068 6.42889 9.45076 6.55547 9.81577 6.37296L11.595 5.48335L10.7419 8.89581H3.2584L2.40528 5.48335L4.18451 6.37296C4.54952 6.55547 4.99349 6.42889 5.20737 6.08133ZM3.20848 10.3542C2.96685 10.3542 2.77098 10.55 2.77098 10.7917C2.77098 11.0333 2.96685 11.2292 3.20848 11.2292H10.7918C11.0334 11.2292 11.2293 11.0333 11.2293 10.7917C11.2293 10.55 11.0334 10.3542 10.7918 10.3542H3.20848Z" fill="#6645D1"/>
</svg>
