<svg width="24" height="24" viewBox="0 0 24 24" fill="none" xmlns="http://www.w3.org/2000/svg">
<path fill-rule="evenodd" clip-rule="evenodd" d="M10.2496 3.64992C11.1608 2.73869 12.6382 2.73869 13.5494 3.64992L20.1491 10.2496C21.0603 11.1608 21.0603 12.6382 20.1491 13.5494L13.5494 20.1491C12.6382 21.0603 11.1608 21.0603 10.2496 20.1491L3.6499 13.5494C2.73867 12.6382 2.73867 11.1608 3.6499 10.2496L10.2496 3.64992ZM12.6494 4.54987C12.2352 4.13568 11.5637 4.13568 11.1495 4.54987L4.54985 11.1495C4.13566 11.5637 4.13566 12.2353 4.54985 12.6495L11.1495 19.2491C11.5637 19.6633 12.2352 19.6633 12.6494 19.2491L19.2491 12.6495C19.6633 12.2353 19.6633 11.5637 19.2491 11.1495L12.6494 4.54987Z" fill="currentColor"/>
</svg>
