<svg width="24" height="24" viewBox="0 0 24 24" fill="none" xmlns="http://www.w3.org/2000/svg">
<path fill-rule="evenodd" clip-rule="evenodd" d="M18.5 8.75C18.0059 8.75 17.5375 8.86027 17.1182 9.05753L14.9425 6.88181C15.1397 6.46247 15.25 5.99411 15.25 5.5C15.25 3.70507 13.7949 2.25 12 2.25C10.2051 2.25 8.75 3.70507 8.75 5.5C8.75 5.99411 8.86027 6.46247 9.05753 6.88181L6.88181 9.05753C6.46247 8.86027 5.99411 8.75 5.5 8.75C3.70507 8.75 2.25 10.2051 2.25 12C2.25 13.7949 3.70507 15.25 5.5 15.25C5.99411 15.25 6.46247 15.1397 6.88181 14.9425L9.05753 17.1182C8.86027 17.5375 8.75 18.0059 8.75 18.5C8.75 20.2949 10.2051 21.75 12 21.75C13.7949 21.75 15.25 20.2949 15.25 18.5C15.25 18.0059 15.1397 17.5375 14.9425 17.1182L17.1182 14.9425C17.5375 15.1397 18.0059 15.25 18.5 15.25C20.2949 15.25 21.75 13.7949 21.75 12C21.75 10.2051 20.2949 8.75 18.5 8.75ZM10.5915 17.4613C10.5974 17.4537 10.6032 17.446 10.6088 17.4382C10.9286 17.0199 11.4328 16.75 12 16.75C12.5673 16.75 13.0715 17.0199 13.3912 17.4383L13.3992 17.4492L13.4085 17.4613C13.6231 17.7518 13.75 18.1111 13.75 18.5C13.75 19.4665 12.9665 20.25 12 20.25C11.0335 20.25 10.25 19.4665 10.25 18.5C10.25 18.1111 10.3769 17.7518 10.5915 17.4613ZM9.99929 15.9386L8.06137 14.0007C8.34524 13.6378 8.55366 13.213 8.66303 12.75H15.337C15.4463 13.213 15.6548 13.6378 15.9386 14.0007L14.0007 15.9386C13.4491 15.5072 12.7546 15.25 12 15.25C11.2454 15.25 10.5509 15.5072 9.99929 15.9386ZM6.56174 13.3912C6.98011 13.0715 7.25 12.5672 7.25 12C7.25 11.4328 6.98011 10.9285 6.56174 10.6088C6.55398 10.6032 6.54631 10.5974 6.53872 10.5915C6.2482 10.3769 5.88891 10.25 5.5 10.25C4.5335 10.25 3.75 11.0335 3.75 12C3.75 12.9665 4.5335 13.75 5.5 13.75C5.88891 13.75 6.2482 13.6231 6.53872 13.4085C6.54631 13.4026 6.55398 13.3968 6.56174 13.3912ZM12 3.75C11.0335 3.75 10.25 4.5335 10.25 5.5C10.25 5.88891 10.3769 6.24818 10.5915 6.5387C10.5974 6.5463 10.6032 6.55399 10.6088 6.56175C10.9286 6.98012 11.4328 7.25 12 7.25C12.5672 7.25 13.0715 6.98011 13.3912 6.56174C13.3968 6.55398 13.4026 6.54631 13.4085 6.53872C13.6231 6.2482 13.75 5.88891 13.75 5.5C13.75 4.5335 12.9665 3.75 12 3.75ZM12 8.75C12.7546 8.75 13.4491 8.49284 14.0007 8.06137L15.9386 9.99929C15.6548 10.3622 15.4463 10.787 15.337 11.25H8.66303C8.55366 10.787 8.34524 10.3622 8.06137 9.99929L9.99929 8.06137C10.5509 8.49284 11.2454 8.75 12 8.75ZM17.4613 10.5915C17.4537 10.5974 17.446 10.6032 17.4382 10.6088C17.0199 10.9286 16.75 11.4328 16.75 12C16.75 12.5672 17.0199 13.0714 17.4382 13.3912C17.446 13.3968 17.4537 13.4026 17.4613 13.4085C17.7518 13.6231 18.1111 13.75 18.5 13.75C19.4665 13.75 20.25 12.9665 20.25 12C20.25 11.0335 19.4665 10.25 18.5 10.25C18.1111 10.25 17.7518 10.3769 17.4613 10.5915Z" fill="currentColor"/>
</svg>
