<svg width="24" height="24" viewBox="0 0 24 24" fill="none" xmlns="http://www.w3.org/2000/svg">
<path fill-rule="evenodd" clip-rule="evenodd" d="M10.3228 3.26472C11.0679 2.91176 11.9321 2.91176 12.6772 3.26472L19.9855 6.72655C20.6929 7.06164 20.75 7.85596 20.75 8.47094V15.415C21.6239 15.7239 22.25 16.5573 22.25 17.537C22.25 18.5166 21.6239 19.3501 20.75 19.6589V20.75C20.75 21.1642 20.4142 21.5 20 21.5C19.5858 21.5 19.25 21.1642 19.25 20.75V19.6589C18.3761 19.3501 17.75 18.5166 17.75 17.537C17.75 16.5573 18.3761 15.7239 19.25 15.415V9.6958L18.25 10.1695V14.037C18.25 14.5877 17.9218 15.0522 17.5777 15.387C17.2127 15.7422 16.7144 16.0664 16.1318 16.3406C14.9621 16.8911 13.352 17.287 11.5 17.287C9.60869 17.287 7.98908 16.7475 6.83658 16.1373C6.26112 15.8327 5.78741 15.5027 5.4461 15.1983C5.2769 15.0473 5.12538 14.8895 5.00945 14.7315C4.92029 14.6099 4.74999 14.3555 4.75 14.037V10.1695L3.01446 9.34739C1.90875 8.82364 1.90876 7.2503 3.01446 6.72655L10.3228 3.26472ZM12.6772 12.8092L16.75 10.88V14.0239C16.75 14.0239 16.7492 14.0254 16.7483 14.0279C16.7405 14.0481 16.703 14.1452 16.5317 14.3119C16.3186 14.5193 15.9731 14.7575 15.4932 14.9834C14.5379 15.4329 13.148 15.787 11.5 15.787C9.89131 15.787 8.51092 15.3265 7.53841 14.8116C7.05138 14.5538 6.68133 14.29 6.44452 14.0788C6.35314 13.9973 6.29008 13.9312 6.25 13.8835L6.25 10.88L10.3228 12.8092C11.0679 13.1622 11.9321 13.1622 12.6772 12.8092ZM12.0351 4.62033C11.6964 4.45989 11.3036 4.45989 10.9649 4.62033L4.13356 7.85622C3.98105 7.92846 3.98105 8.14547 4.13356 8.21772L10.9649 11.4536C11.3036 11.614 11.6964 11.614 12.0351 11.4536L18.8664 8.21772C19.0189 8.14547 19.0189 7.92846 18.8664 7.85622L12.0351 4.62033ZM6.19813 13.812C6.19813 13.812 6.20225 13.8175 6.20732 13.8278C6.20014 13.817 6.19813 13.812 6.19813 13.812ZM20.75 17.537C20.75 17.9512 20.4142 18.287 20 18.287C19.5858 18.287 19.25 17.9512 19.25 17.537C19.25 17.1227 19.5858 16.787 20 16.787C20.4142 16.787 20.75 17.1227 20.75 17.537Z" fill="currentColor"/>
</svg>
