<svg width="24" height="24" viewBox="0 0 24 24" fill="none" xmlns="http://www.w3.org/2000/svg">
<path d="M17.8608 17.7069C18.0681 18.0655 18.5269 18.1882 18.8855 17.9809C19.2441 17.7736 19.3668 17.3149 19.1595 16.9563L15.2297 10.1577C15.0061 9.77088 15.006 9.29411 15.2294 8.90716L15.6517 8.1757C16.8253 6.14295 16.1288 3.54369 14.0961 2.37009C12.0633 1.19648 9.46407 1.89295 8.29046 3.9257L7.04046 6.09076C6.83336 6.44948 6.95626 6.90817 7.31498 7.11528C7.6737 7.32239 8.13239 7.19948 8.3395 6.84076L9.5895 4.6757C10.3489 3.36039 12.0308 2.90974 13.3461 3.66913C14.6614 4.42852 15.112 6.11039 14.3526 7.4257L13.9303 8.15716C13.4388 9.00845 13.4391 10.0573 13.931 10.9084L17.8608 17.7069Z" fill="currentColor"/>
<path d="M12.2848 5.64369C12.6436 5.85061 12.7668 6.30924 12.5599 6.66807L8.63705 13.4706C8.14599 14.3222 7.23776 14.8469 6.25477 14.8469H5.41016C3.89137 14.8469 2.66016 16.0781 2.66016 17.5969C2.66016 19.1157 3.89137 20.3469 5.41016 20.3469H7.91016C8.32437 20.3469 8.66016 20.6827 8.66016 21.0969C8.66016 21.5111 8.32437 21.8469 7.91016 21.8469H5.41016C3.06295 21.8469 1.16016 19.9441 1.16016 17.5969C1.16016 15.2497 3.06295 13.3469 5.41016 13.3469H6.25477C6.70158 13.3469 7.11442 13.1084 7.33762 12.7213L11.2604 5.91873C11.4674 5.55991 11.926 5.43676 12.2848 5.64369Z" fill="currentColor"/>
<path d="M4.79636 17.5727C4.79614 17.1585 5.13176 16.8225 5.54597 16.8223L13.3986 16.8183C14.3816 16.8178 15.2901 17.342 15.7816 18.1933L16.2039 18.9247C16.9633 20.24 18.6451 20.6907 19.9604 19.9313C21.2758 19.1719 21.7264 17.49 20.967 16.1747L19.717 14.0097C19.5099 13.651 19.6328 13.1923 19.9915 12.9852C20.3503 12.778 20.8089 12.901 21.0161 13.2597L22.2661 15.4247C23.4397 17.4575 22.7432 20.0567 20.7104 21.2303C18.6777 22.4039 16.0784 21.7075 14.9048 19.6747L14.4825 18.9433C14.2591 18.5563 13.8462 18.318 13.3994 18.3183L5.54674 18.3223C5.13253 18.3225 4.79657 17.9869 4.79636 17.5727Z" fill="currentColor"/>
</svg>
