<svg width="24" height="24" viewBox="0 0 24 24" fill="none" xmlns="http://www.w3.org/2000/svg">
<path fill-rule="evenodd" clip-rule="evenodd" d="M9.78172 5.25688L9.35821 8.03995L13.8017 4.82167C13.7058 4.72872 13.6004 4.63131 13.4879 4.53434C13.2326 4.31433 12.9555 4.10977 12.6816 3.96326C12.4021 3.81375 12.1729 3.75 12 3.75C11.8271 3.75 11.5979 3.81375 11.3184 3.96326C11.0445 4.10977 10.7674 4.31433 10.5121 4.53434C10.259 4.75242 10.0421 4.97275 9.88804 5.13946C9.84785 5.18294 9.81224 5.22244 9.78172 5.25688ZM15.1966 5.66351L12.7621 7.42674L18.3501 8.21397C18.3482 8.07598 18.3426 7.9271 18.3311 7.77308C18.3061 7.43697 18.2549 7.09639 18.1648 6.79912C18.0729 6.49577 17.9559 6.28863 17.8336 6.16637C17.7114 6.04411 17.5042 5.92713 17.2009 5.83521C16.9036 5.74513 16.563 5.69386 16.2269 5.66888C15.8937 5.64412 15.5846 5.64655 15.3578 5.65548C15.2973 5.65786 15.2432 5.66068 15.1966 5.66351ZM18.7464 9.78461L15.7272 9.35928L19.1611 13.8194C19.2592 13.7189 19.3627 13.6074 19.4657 13.4879C19.6857 13.2326 19.8902 12.9555 20.0367 12.6816C20.1862 12.4021 20.25 12.1729 20.25 12C20.25 11.8271 20.1862 11.5979 20.0367 11.3184C19.8902 11.0445 19.6857 10.7674 19.4657 10.5121C19.2476 10.259 19.0272 10.0421 18.8605 9.88804C18.8184 9.84911 18.7801 9.81449 18.7464 9.78461ZM18.3372 15.2081L16.3933 12.6832L15.7621 18.3504C15.9067 18.3488 16.0639 18.3432 16.2269 18.3311C16.563 18.3061 16.9036 18.2549 17.2009 18.1648C17.5042 18.0729 17.7114 17.9559 17.8336 17.8336C17.9559 17.7114 18.0729 17.5042 18.1648 17.2009C18.2549 16.9036 18.3061 16.563 18.3311 16.2269C18.3559 15.8937 18.3534 15.5846 18.3445 15.3578C18.3423 15.3022 18.3398 15.2521 18.3372 15.2081ZM14.2077 18.755L14.5588 15.6027L10.1671 19.1479C10.2712 19.2499 10.3872 19.3581 10.5121 19.4657C10.7674 19.6857 11.0445 19.8902 11.3184 20.0367C11.5979 20.1862 11.8271 20.25 12 20.25C12.1729 20.25 12.4021 20.1862 12.6816 20.0367C12.9555 19.8902 13.2326 19.6857 13.4879 19.4657C13.741 19.2476 13.9579 19.0272 14.112 18.8605C14.1476 18.822 14.1796 18.7866 14.2077 18.755ZM8.78271 18.3377L11.15 16.4267L5.64971 15.7687C5.65134 15.9115 5.65695 16.0664 5.66888 16.2269C5.69386 16.563 5.74513 16.9036 5.83521 17.2009C5.92713 17.5042 6.04411 17.7114 6.16637 17.8336C6.28863 17.9559 6.49577 18.0729 6.79912 18.1648C7.09639 18.2549 7.43697 18.3061 7.77308 18.3311C8.10626 18.3559 8.41542 18.3534 8.64225 18.3445C8.69394 18.3425 8.741 18.3401 8.78271 18.3377ZM5.24741 14.2099L8.09523 14.5506L4.83095 10.1887C4.73521 10.2872 4.63454 10.3958 4.53434 10.5121C4.31433 10.7674 4.10977 11.0445 3.96326 11.3184C3.81375 11.5979 3.75 11.8271 3.75 12C3.75 12.1729 3.81375 12.4021 3.96326 12.6816C4.10977 12.9555 4.31433 13.2326 4.53434 13.4879C4.75242 13.741 4.97275 13.9579 5.13946 14.112C5.17901 14.1485 5.21526 14.1813 5.24741 14.2099ZM5.66314 8.79728L7.37716 11.0876L8.20462 5.65006C8.06926 5.65206 7.92362 5.65769 7.77308 5.66888C7.43697 5.69386 7.09639 5.74513 6.79912 5.83521C6.49577 5.92713 6.28863 6.04411 6.16637 6.16637C6.04411 6.28863 5.92713 6.49577 5.83521 6.79912C5.74513 7.09639 5.69386 7.43697 5.66888 7.77308C5.64412 8.10626 5.64655 8.41542 5.65548 8.64225C5.65776 8.70005 5.66044 8.75207 5.66314 8.79728ZM8.75206 4.15878C8.76322 4.14657 8.7747 4.13409 8.78648 4.12133C8.96728 3.92573 9.22542 3.66298 9.53297 3.39798C9.83829 3.13491 10.2075 2.85639 10.6109 2.64059C11.0088 2.42779 11.488 2.25 12 2.25C12.512 2.25 12.9912 2.42779 13.3891 2.64059C13.7925 2.85639 14.1617 3.13491 14.467 3.39798C14.7746 3.66298 15.0327 3.92573 15.2135 4.12133C15.2253 4.13409 15.2368 4.14657 15.2479 4.15878C15.2645 4.15804 15.2814 4.15733 15.2988 4.15664C15.5649 4.14617 15.9332 4.14292 16.3381 4.173C16.74 4.20287 17.198 4.26699 17.6359 4.39967C18.0677 4.53051 18.5322 4.74365 18.8943 5.10571C19.2564 5.46777 19.4695 5.93234 19.6003 6.36413C19.733 6.802 19.7971 7.25999 19.827 7.66191C19.8571 8.06676 19.8538 8.43509 19.8434 8.70124C19.8427 8.71859 19.842 8.73554 19.8412 8.75206C19.8534 8.76322 19.8659 8.7747 19.8787 8.78648C20.0743 8.96728 20.337 9.22542 20.602 9.53297C20.8651 9.83829 21.1436 10.2075 21.3594 10.6109C21.5722 11.0088 21.75 11.488 21.75 12C21.75 12.512 21.5722 12.9912 21.3594 13.3891C21.1436 13.7925 20.8651 14.1617 20.602 14.467C20.337 14.7746 20.0743 15.0327 19.8787 15.2135C19.8659 15.2253 19.8534 15.2368 19.8412 15.2479C19.842 15.2645 19.8427 15.2814 19.8434 15.2988C19.8538 15.5649 19.8571 15.9332 19.827 16.3381C19.7971 16.74 19.733 17.198 19.6003 17.6359C19.4695 18.0677 19.2564 18.5322 18.8943 18.8943C18.5322 19.2564 18.0677 19.4695 17.6359 19.6003C17.198 19.733 16.74 19.7971 16.3381 19.827C15.9332 19.8571 15.5649 19.8538 15.2988 19.8434C15.2814 19.8427 15.2645 19.842 15.2479 19.8412C15.2368 19.8534 15.2253 19.8659 15.2135 19.8787C15.0327 20.0743 14.7746 20.337 14.467 20.602C14.1617 20.8651 13.7925 21.1436 13.3891 21.3594C12.9912 21.5722 12.512 21.75 12 21.75C11.488 21.75 11.0088 21.5722 10.6109 21.3594C10.2075 21.1436 9.83829 20.8651 9.53297 20.602C9.22542 20.337 8.96728 20.0743 8.78648 19.8787C8.7747 19.8659 8.76322 19.8534 8.75206 19.8412C8.73554 19.842 8.71859 19.8427 8.70124 19.8434C8.43509 19.8538 8.06676 19.8571 7.66191 19.827C7.25999 19.7971 6.802 19.733 6.36413 19.6003C5.93234 19.4695 5.46777 19.2564 5.10571 18.8943C4.74365 18.5322 4.53051 18.0677 4.39967 17.6359C4.26699 17.198 4.20287 16.74 4.173 16.3381C4.14292 15.9332 4.14617 15.5649 4.15664 15.2988C4.15733 15.2814 4.15804 15.2645 4.15878 15.2479C4.14657 15.2368 4.13409 15.2253 4.12133 15.2135C3.92573 15.0327 3.66298 14.7746 3.39798 14.467C3.13491 14.1617 2.85639 13.7925 2.64059 13.3891C2.42779 12.9912 2.25 12.512 2.25 12C2.25 11.488 2.42779 11.0088 2.64059 10.6109C2.85639 10.2075 3.13491 9.83829 3.39798 9.53297C3.66298 9.22542 3.92573 8.96728 4.12133 8.78648C4.13409 8.7747 4.14657 8.76322 4.15878 8.75206C4.15804 8.73554 4.15733 8.71859 4.15664 8.70124C4.14617 8.43509 4.14292 8.06676 4.173 7.66191C4.20287 7.25999 4.26699 6.802 4.39967 6.36413C4.53051 5.93234 4.74365 5.46777 5.10571 5.10571C5.46777 4.74365 5.93234 4.53051 6.36413 4.39967C6.802 4.26699 7.25999 4.20287 7.66191 4.173C8.06676 4.14292 8.43509 4.14617 8.70124 4.15664C8.71859 4.15733 8.73554 4.15804 8.75206 4.15878ZM8.63805 12.7724L10.153 14.7968L12.7799 15.111L14.7947 13.4845L15.0747 10.9707L13.6557 9.12753C13.6391 9.10594 13.6238 9.08373 13.6099 9.061L11.0111 8.69489L9.04145 10.1215L8.63805 12.7724Z" fill="currentColor"/>
</svg>
