<svg width="24" height="24" viewBox="0 0 24 24" fill="none" xmlns="http://www.w3.org/2000/svg">
<path fill-rule="evenodd" clip-rule="evenodd" d="M20.75 17.6724C20.75 17.6716 20.75 17.6708 20.75 17.67V6.33002C20.75 5.62105 20.3739 5.02956 19.8762 4.5765C19.3787 4.12368 18.7006 3.75032 17.9263 3.4522C16.3727 2.85405 14.2772 2.5 12 2.5C9.7228 2.5 7.6273 2.85405 6.07368 3.4522C5.29936 3.75032 4.6213 4.12368 4.12382 4.5765C3.6261 5.02956 3.25 5.62105 3.25 6.33002V17.67C3.25 18.3788 3.62619 18.9702 4.12382 19.4231C4.62124 19.8758 5.29924 20.2492 6.07354 20.5474C7.62712 21.1457 9.72263 21.5 12 21.5C14.2774 21.5 16.3729 21.1457 17.9265 20.5474C18.7008 20.2492 19.3788 19.8758 19.8762 19.4231C20.3732 18.9707 20.7491 18.3802 20.75 17.6724ZM4.75 6.33002C4.75 6.18847 4.82162 5.9697 5.13354 5.68578C5.44571 5.40162 5.93922 5.1113 6.61262 4.85204C7.95443 4.33544 9.85892 4 12 4C14.1411 4 16.0456 4.33544 17.3874 4.85204C18.0608 5.1113 18.5543 5.40162 18.8665 5.68578C19.1784 5.9697 19.25 6.18847 19.25 6.33002C19.25 6.47156 19.1784 6.69033 18.8665 6.97425C18.5543 7.25839 18.0608 7.54871 17.3874 7.80796C16.0456 8.32455 14.1411 8.65997 12 8.65997C9.85892 8.65997 7.95442 8.32455 6.61261 7.80796C5.93921 7.54871 5.4457 7.25839 5.13353 6.97425C4.82162 6.69033 4.75 6.47156 4.75 6.33002ZM19.25 8.55633C18.8606 8.80384 18.4124 9.02065 17.9263 9.2078C16.3727 9.80594 14.2772 10.16 12 10.16C9.7228 10.16 7.6273 9.80594 6.07368 9.2078C5.58756 9.02065 5.13938 8.80384 4.75 8.55633V10.11C4.75 10.2512 4.8215 10.4698 5.13348 10.7538C5.22893 10.8406 5.34132 10.9281 5.47063 11.0151C5.76426 11.2126 6.14508 11.4076 6.6126 11.5876C7.95439 12.1043 9.85888 12.44 12 12.44C14.1411 12.44 16.0456 12.1043 17.3874 11.5876C18.0608 11.3283 18.5543 11.0379 18.8665 10.7538C19.1785 10.4698 19.25 10.2512 19.25 10.11V8.55633ZM19.25 12.3359C18.8607 12.5834 18.4125 12.8002 17.9265 12.9874C16.3729 13.5857 14.2774 13.94 12 13.94C9.72263 13.94 7.62712 13.5857 6.07354 12.9874C5.68173 12.8365 5.31457 12.6664 4.983 12.4764C4.90322 12.4307 4.82551 12.3839 4.75 12.3359V13.1747V13.9C4.75 14.0412 4.8215 14.2598 5.13348 14.5438C5.44567 14.8279 5.9392 15.1183 6.6126 15.3776C7.95439 15.8944 9.85888 16.23 12 16.23C14.1411 16.23 16.0456 15.8944 17.3874 15.3776C18.0608 15.1183 18.5543 14.8279 18.8665 14.5438C19.1785 14.2598 19.25 14.0412 19.25 13.9V12.3359ZM19.25 16.1259C18.8607 16.3734 18.4125 16.5902 17.9265 16.7774C16.3729 17.3757 14.2774 17.73 12 17.73C9.72263 17.73 7.62712 17.3757 6.07354 16.7774C5.58746 16.5902 5.13933 16.3734 4.75 16.1259V17.67C4.75 17.8112 4.8215 18.0298 5.13348 18.3138C5.44567 18.5979 5.9392 18.8883 6.6126 19.1476C7.95439 19.6643 9.85888 20 12 20C14.1411 20 16.0456 19.6643 17.3874 19.1476C18.0608 18.8883 18.5543 18.5979 18.8665 18.3138C19.1785 18.0298 19.25 17.8112 19.25 17.67V16.1259Z" fill="currentColor"/>
</svg>
