<svg width="24" height="24" viewBox="0 0 24 24" fill="none" xmlns="http://www.w3.org/2000/svg">
<path d="M16.5 6.5C17.3284 6.5 18 5.82843 18 5C18 4.17157 17.3284 3.5 16.5 3.5C15.6716 3.5 15 4.17157 15 5C15 5.82843 15.6716 6.5 16.5 6.5Z" fill="currentColor"/>
<path d="M9 12C9 12.8284 8.32843 13.5 7.5 13.5C6.67157 13.5 6 12.8284 6 12C6 11.1716 6.67157 10.5 7.5 10.5C8.32843 10.5 9 11.1716 9 12Z" fill="currentColor"/>
<path d="M18 19C18 19.8284 17.3284 20.5 16.5 20.5C15.6716 20.5 15 19.8284 15 19C15 18.1716 15.6716 17.5 16.5 17.5C17.3284 17.5 18 18.1716 18 19Z" fill="currentColor"/>
<path d="M7.5 6.5C8.32843 6.5 9 5.82843 9 5C9 4.17157 8.32843 3.5 7.5 3.5C6.67157 3.5 6 4.17157 6 5C6 5.82843 6.67157 6.5 7.5 6.5Z" fill="currentColor"/>
<path d="M9 19C9 19.8284 8.32843 20.5 7.5 20.5C6.67157 20.5 6 19.8284 6 19C6 18.1716 6.67157 17.5 7.5 17.5C8.32843 17.5 9 18.1716 9 19Z" fill="currentColor"/>
<path d="M16.5 13.5C17.3284 13.5 18 12.8284 18 12C18 11.1716 17.3284 10.5 16.5 10.5C15.6716 10.5 15 11.1716 15 12C15 12.8284 15.6716 13.5 16.5 13.5Z" fill="currentColor"/>
</svg>
