<svg xmlns="http://www.w3.org/2000/svg" fill="none" viewBox="0 0 20 22"><path fill="currentColor" d="M19.8 9.75a8.06 8.06 0 0 0-.76-2.7 8.2 8.2 0 0 0-1.59-2.19c.3-1.2-.36-2.23-.36-2.23a3.31 3.31 0 0 0-2.15.55c-.05-.01-.1-.04-.14-.06a8.13 8.13 0 0 0-1.9-.52l-.12-.02C12.28.98 10.84.31 10.84.31a4.24 4.24 0 0 0-1.9 2.44l-.02.09-.27.07-.37.13a9.46 9.46 0 0 0-1.08.5c-.23.13-.45.27-.67.42l-.06-.02a5.55 5.55 0 0 0-4.2.17 6.07 6.07 0 0 0 1.1 4.13l-.14.44a10.22 10.22 0 0 0-.4 1.9C.77 11.6.16 13.68.16 13.68a5.87 5.87 0 0 0 3.72 2.1 9.05 9.05 0 0 0 1.32 1.77c-.63 1.8.09 3.28.09 3.28 1.9.07 3.16-.84 3.42-1.05a8.43 8.43 0 0 0 2.82.44h.31a3.85 3.85 0 0 0 2.48 1.47 3.95 3.95 0 0 0 1.19-2.61v-.11a7.22 7.22 0 0 0 1.84-1.9l.09-.15a3.17 3.17 0 0 0 2.17-.79 3.32 3.32 0 0 0-1.12-2.1h-.02l-.01-.02-.03-.02.02-.24v-.85l-.02-.12v-.11l-.02-.11-.02-.12a5.66 5.66 0 0 0-.73-2.03 5.4 5.4 0 0 0-4.7-2.63h-.29l-.1.01a4 4 0 0 0-1.78.58 4.3 4.3 0 0 0-1.76 2.08c-.16.4-.24.83-.27 1.23v.47l.01.15a3.22 3.22 0 0 0 2.25 2.76c.3.09.6.12.87.12h.21l.08-.01h.03l.03-.01h.05l.1-.02.1-.03.18-.05c.12-.04.23-.09.33-.14l.3-.18.07-.06c.1-.08.12-.22.04-.31a.22.22 0 0 0-.28-.05l-.07.03a1.91 1.91 0 0 1-.53.18l-.15.02h-.34l-.04-.01-.08-.01a2.3 2.3 0 0 1-1.24-.58 2.26 2.26 0 0 1-.74-1.7v-.16l.01-.05.03-.22A2.83 2.83 0 0 1 12 9.61a2.88 2.88 0 0 1 .7-.1h.18l.06.01a3.53 3.53 0 0 1 2.88 1.91 3.29 3.29 0 0 1 .36 1.27v.53l-.03.3c0 .09-.03.18-.04.27a3.86 3.86 0 0 1-.25.83 4.56 4.56 0 0 1-4.02 2.86h-.29l-.31-.02a6.16 6.16 0 0 1-2.36-.68 6.04 6.04 0 0 1-3.18-4.9v-.6a7.06 7.06 0 0 1 .29-1.8A6.4 6.4 0 0 1 8.1 6.1a6.01 6.01 0 0 1 1.27-.76l.12-.05c.17-.07.34-.13.52-.18l.12-.05c.05 0 .1-.02.13-.03l.27-.07a.3.3 0 0 0 .13-.03l.14-.02.14-.03.06-.01.07-.01.14-.02.15-.02.15-.01.1-.02h.13l.15-.02h.08s.03 0 0 0h.06l.13-.01a7.6 7.6 0 0 1 1.51.11A7.08 7.08 0 0 1 17 6.46l.08.07.08.07.15.14.15.14.14.15a7.68 7.68 0 0 1 1.26 1.76l.03.07.04.07.06.14.07.14c.01.05.04.09.06.13l.19.51c.09.26.15.49.2.7.02.07.1.13.18.11.1 0 .16-.07.16-.16 0-.21 0-.47-.03-.75Z"/></svg>
