<svg width="24" height="24" viewBox="0 0 24 24" fill="none" xmlns="http://www.w3.org/2000/svg">
<path fill-rule="evenodd" clip-rule="evenodd" d="M14.5592 19.798C18.2073 17.924 20.758 14.1963 20.5408 8.92593L22.1431 6.25533C22.2821 6.02363 22.2858 5.73507 22.1527 5.49994C22.0195 5.2648 21.7702 5.11946 21.5 5.11946H19.0053C18.0972 4.03696 16.6518 3.40002 15.1955 3.40002C13.649 3.40002 12.4322 4.06336 11.619 5.0871C10.9798 5.89168 10.6047 6.89718 10.4802 7.94439C9.0864 7.79064 7.52111 7.22344 6.19243 6.6195C5.42689 6.27152 4.76462 5.923 4.29407 5.66158C4.04639 5.52397 3.79977 5.38364 3.55883 5.23445L3.55701 5.23332C3.3595 5.10996 3.1159 5.08533 2.89769 5.16668C2.67942 5.24805 2.51136 5.42622 2.44285 5.64887C1.23277 9.58164 1.98124 12.5154 3.07843 14.4747C3.62151 15.4445 4.26427 16.1842 4.75216 16.6623L2.10669 18.2917C1.87635 18.4335 1.74026 18.6885 1.75054 18.9588C1.76083 19.2291 1.91591 19.473 2.15636 19.5969C6.17489 21.6684 10.8942 21.6806 14.5592 19.798ZM11.9336 8.73511C11.9336 7.6872 12.242 6.71433 12.7935 6.02013C13.3306 5.34396 14.1198 4.90002 15.1955 4.90002C16.3495 4.90002 17.4466 5.46285 18.0156 6.29335C18.1554 6.49745 18.3869 6.61946 18.6343 6.61946H20.1754L19.1375 8.34927C19.0602 8.47811 19.0233 8.62721 19.0318 8.77724C19.3017 13.5789 17.0483 16.833 13.8738 18.4637C11.0284 19.9253 7.40033 20.1013 4.09793 18.827L6.41867 17.3976C6.63626 17.2636 6.77064 17.028 6.77523 16.7725C6.77981 16.5178 6.65485 16.2783 6.4435 16.1364C6.25382 15.9468 6.11133 15.8942 5.78015 15.5696C5.37252 15.1701 4.8471 14.5631 4.38719 13.7418C3.55947 12.2637 2.91792 10.0488 3.62796 7.00735C4.11995 7.279 4.79451 7.63177 5.57173 7.98505C7.16625 8.70983 9.29525 9.48511 11.1836 9.48511C11.5978 9.48511 11.9336 9.14932 11.9336 8.73511Z" fill="currentColor"/>
</svg>
