<svg width="24" height="24" viewBox="0 0 24 24" fill="none" xmlns="http://www.w3.org/2000/svg">
<path fill-rule="evenodd" clip-rule="evenodd" d="M11.8588 5.14124C10.0038 3.28625 6.99623 3.28625 5.14124 5.14124C3.28625 6.99623 3.28625 10.0038 5.14124 11.8588C6.44572 13.1632 8.32099 13.5514 9.96644 13.0192C10.2344 12.9325 10.5284 13.0033 10.7276 13.2025L12.6265 15.1014C12.6734 15.1483 12.737 15.1746 12.8033 15.1746H14.5104C14.9246 15.1746 15.2604 15.5104 15.2604 15.9246V17.2959H16.6317C17.0459 17.2959 17.3817 17.6317 17.3817 18.0459V19.753C17.3817 19.8194 17.4081 19.8829 17.455 19.9298L17.9298 20.4047C17.9767 20.4516 18.0403 20.4779 18.1066 20.4779H20.2279C20.366 20.4779 20.4779 20.366 20.4779 20.2279V18.1066C20.4779 18.0403 20.4516 17.9767 20.4047 17.9298L13.2025 10.7276C13.0033 10.5284 12.9325 10.2344 13.0192 9.96644C13.5514 8.32099 13.1632 6.44572 11.8588 5.14124ZM4.08058 4.08058C6.52136 1.63981 10.4786 1.63981 12.9194 4.08058C14.5192 5.68038 15.0695 7.93096 14.5737 9.97746L21.4654 16.8692C21.7935 17.1974 21.9779 17.6425 21.9779 18.1066V20.2279C21.9779 21.1944 21.1944 21.9779 20.2279 21.9779H18.1066C17.6425 21.9779 17.1974 21.7935 16.8692 21.4654L16.3943 20.9905C16.0661 20.6623 15.8817 20.2172 15.8817 19.753V18.7959H14.5104C14.0962 18.7959 13.7604 18.4602 13.7604 18.0459V16.6746H12.8033C12.3392 16.6746 11.8941 16.4902 11.5659 16.1621L9.97746 14.5737C7.93096 15.0695 5.68038 14.5192 4.08058 12.9194C1.63981 10.4786 1.63981 6.52136 4.08058 4.08058ZM5.84835 5.84835C6.72703 4.96967 8.15165 4.96967 9.03033 5.84835C9.90901 6.72703 9.90901 8.15165 9.03033 9.03033C8.15165 9.90901 6.72703 9.90901 5.84835 9.03033C4.96967 8.15165 4.96967 6.72703 5.84835 5.84835ZM7.96967 6.90901C7.67678 6.61612 7.2019 6.61612 6.90901 6.90901C6.61612 7.2019 6.61612 7.67678 6.90901 7.96967C7.2019 8.26256 7.67678 8.26256 7.96967 7.96967C8.26256 7.67678 8.26256 7.2019 7.96967 6.90901Z" fill="currentColor"/>
</svg>
