<svg width="24" height="24" viewBox="0 0 24 24" fill="none" xmlns="http://www.w3.org/2000/svg">
<path d="M6.6374 5.08934C7.72468 4.24401 9.02832 3.64372 10.4814 3.3875C15.238 2.54879 19.7738 5.72485 20.6125 10.4814C20.6845 10.8893 21.0735 11.1617 21.4814 11.0898C21.8893 11.0179 22.1617 10.6289 22.0898 10.2209C21.1072 4.64853 15.7933 0.927727 10.2209 1.91029C8.52143 2.20996 6.99224 2.91345 5.71671 3.90514C5.37577 4.17021 5.05303 4.45581 4.75001 4.75972V3.70004C4.75001 3.28583 4.41422 2.95004 4.00001 2.95004C3.5858 2.95004 3.25001 3.28583 3.25001 3.70004V6.70004C3.25001 6.93872 3.3615 7.15136 3.53525 7.28872C3.57286 7.32773 3.61531 7.36324 3.66242 7.39434C4.00805 7.62261 4.4733 7.52747 4.70157 7.18183C5.22641 6.38714 5.87959 5.67852 6.6374 5.08934Z" fill="currentColor"/>
<path d="M3.38747 13.5187C3.31555 13.1107 2.92655 12.8384 2.51863 12.9103C2.11071 12.9822 1.83833 13.3712 1.91026 13.7791C2.89283 19.3515 8.20669 23.0724 13.7791 22.0898C15.9347 21.7097 17.8137 20.6808 19.25 19.2403V20.3C19.25 20.7142 19.5858 21.05 20 21.05C20.4142 21.05 20.75 20.7142 20.75 20.3V17.3C20.75 17.0613 20.6385 16.8486 20.4647 16.7113C20.4271 16.6723 20.3847 16.6368 20.3376 16.6057C19.992 16.3775 19.5267 16.4726 19.2985 16.8182C18.0202 18.7537 15.9817 20.1783 13.5186 20.6126C8.76206 21.4513 4.22619 18.2752 3.38747 13.5187Z" fill="currentColor"/>
<path fill-rule="evenodd" clip-rule="evenodd" d="M9.25001 12C9.25001 10.4812 10.4812 9.25003 12 9.25003C13.5188 9.25003 14.75 10.4812 14.75 12C14.75 13.5188 13.5188 14.75 12 14.75C10.4812 14.75 9.25001 13.5188 9.25001 12ZM12 10.75C11.3097 10.75 10.75 11.3097 10.75 12C10.75 12.6904 11.3097 13.25 12 13.25C12.6904 13.25 13.25 12.6904 13.25 12C13.25 11.3097 12.6904 10.75 12 10.75Z" fill="currentColor"/>
<path fill-rule="evenodd" clip-rule="evenodd" d="M9.30699 6.1648C9.30699 5.10771 10.1646 4.25003 11.2218 4.25003H12.7798C13.8369 4.25003 14.6946 5.10769 14.6946 6.1648V6.61105C14.6946 6.93454 15.0396 7.13378 15.319 6.97376L15.321 6.97259L15.7041 6.75475C16.6222 6.22378 17.7896 6.53597 18.3219 7.45195L18.3225 7.45313L19.1003 8.79719C19.6363 9.71066 19.3208 10.8877 18.4057 11.4194L18.3996 11.4229L18.0159 11.6411C17.7408 11.7994 17.7401 12.2002 18.0152 12.3585L18.4096 12.5828C19.3089 13.1125 19.6379 14.277 19.1012 15.2013L18.3196 16.5519C17.7905 17.4503 16.628 17.7796 15.7042 17.2453L15.321 17.0275L15.319 17.0263C15.0396 16.8663 14.6946 17.0655 14.6946 17.389V17.8353C14.6946 18.8924 13.8369 19.75 12.7798 19.75H11.2218C10.1646 19.75 9.30699 18.8923 9.30699 17.8353V17.389C9.30699 17.0655 8.96196 16.8663 8.68259 17.0263L8.68055 17.0275L8.29745 17.2453C7.37943 17.7763 6.21197 17.4641 5.67971 16.5481L5.67903 16.5469L4.90067 15.2018C4.36747 14.2834 4.67897 13.1134 5.59588 12.5806L5.60196 12.5771L5.98566 12.359C6.26073 12.2007 6.26149 11.7998 5.98641 11.6415L5.592 11.4173C4.69272 10.8875 4.36371 9.72317 4.90028 8.79892L5.68194 7.4481C6.21113 6.5497 7.37371 6.22042 8.29752 6.75479L8.68055 6.9726L8.68259 6.97376C8.96195 7.13378 9.30699 6.93452 9.30699 6.61105V6.1648ZM11.2218 5.75003C10.9931 5.75003 10.807 5.93611 10.807 6.1648V6.61105C10.807 8.08722 9.21673 9.00725 7.93821 8.27603L7.54726 8.05371C7.35282 7.94073 7.09662 8.00425 6.97553 8.20752L6.1983 9.5507L6.19761 9.55188C6.08497 9.74572 6.14779 10.001 6.3496 10.1225L6.73123 10.3395C8.01322 11.0739 8.01322 12.9262 6.73122 13.6605L6.72916 13.6617L6.34718 13.8789C6.14674 13.997 6.08135 14.2481 6.19761 14.4482L6.1983 14.4494L6.97665 15.7945C7.0943 15.9964 7.34657 16.063 7.54727 15.9464L7.55333 15.9429L7.93702 15.7247L7.93814 15.7241C9.21666 14.9928 10.807 15.9128 10.807 17.389V17.8353C10.807 18.0639 10.9931 18.25 11.2218 18.25H12.7798C13.0085 18.25 13.1946 18.0639 13.1946 17.8353V17.389C13.1946 15.9128 14.785 14.9927 16.0635 15.7241L16.0646 15.7247L16.4543 15.9463C16.6488 16.0593 16.905 15.9958 17.0261 15.7925L17.804 14.4482C17.9166 14.2543 17.8538 13.9991 17.652 13.8776L17.2724 13.6617L17.2704 13.6605C15.9884 12.9262 15.9884 11.0739 17.2704 10.3395L17.2724 10.3383L17.6544 10.1212C17.8559 10.0024 17.9179 9.74541 17.8062 9.55572L17.8033 9.55071L17.0249 8.20558C16.9073 8.00361 16.6551 7.93704 16.4543 8.05368L16.4483 8.05721L16.0646 8.27535L16.0635 8.27597C14.7849 9.0073 13.1946 8.08725 13.1946 6.61105V6.1648C13.1946 5.93613 13.0085 5.75003 12.7798 5.75003H11.2218Z" fill="currentColor"/>
</svg>
