<svg width="24" height="24" viewBox="0 0 24 24" fill="none" xmlns="http://www.w3.org/2000/svg">
<mask id="path-1-inside-1_13_36" fill="white">
<path fill-rule="evenodd" clip-rule="evenodd" d="M2 3C2 1.89543 2.89543 1 4 1H4.34943H18.7899H19.14C20.2446 1 21.14 1.89543 21.14 3V21.2366V23.33H20.4564L15.3296 21.2366H4C2.89543 21.2366 2 20.3411 2 19.2366V18.4544V3.54283V3Z"/>
</mask>
<path d="M21.14 23.33V24.83H22.64V23.33H21.14ZM20.4564 23.33L19.8894 24.7187L20.162 24.83H20.4564V23.33ZM15.3296 21.2366L15.8967 19.8479L15.6241 19.7366H15.3296V21.2366ZM4 -0.5C2.067 -0.5 0.5 1.067 0.5 3H3.5C3.5 2.72386 3.72386 2.5 4 2.5V-0.5ZM4.34943 -0.5H4V2.5H4.34943V-0.5ZM4.34943 2.5H18.7899V-0.5H4.34943V2.5ZM19.14 -0.5H18.7899V2.5H19.14V-0.5ZM22.64 3C22.64 1.067 21.073 -0.5 19.14 -0.5V2.5C19.4161 2.5 19.64 2.72386 19.64 3H22.64ZM22.64 21.2366V3H19.64V21.2366H22.64ZM22.64 23.33V21.2366H19.64V23.33H22.64ZM20.4564 24.83H21.14V21.83H20.4564V24.83ZM14.7626 22.6253L19.8894 24.7187L21.0235 21.9413L15.8967 19.8479L14.7626 22.6253ZM4 22.7366H15.3296V19.7366H4V22.7366ZM0.5 19.2366C0.5 21.1696 2.067 22.7366 4 22.7366V19.7366C3.72386 19.7366 3.5 19.5127 3.5 19.2366H0.5ZM0.5 18.4544V19.2366H3.5V18.4544H0.5ZM3.5 18.4544V3.54283H0.5V18.4544H3.5ZM0.5 3V3.54283H3.5V3H0.5Z" fill="black" mask="url(#path-1-inside-1_13_36)"/>
<path d="M6.25333 12.6434L7.48287 13.862C8.18464 14.5575 9.04998 15.0655 9.99935 15.3392L10.1022 15.3688C11.153 15.6718 12.2699 15.657 13.3123 15.3264V15.3264C14.1505 15.0606 14.9133 14.5992 15.5378 13.9803L16.8867 12.6434" stroke="black" stroke-width="1.5" stroke-linecap="round"/>
</svg>
