<svg width="24" height="24" viewBox="0 0 24 24" fill="none" xmlns="http://www.w3.org/2000/svg">
<path fill-rule="evenodd" clip-rule="evenodd" d="M7.58671 16.4331L7.45434 14.5401L7.14745 9.93682C6.96032 7.1298 9.18674 4.75 12 4.75C14.8133 4.75 17.0397 7.1298 16.8525 9.93682L16.5457 14.5399L16.4133 16.4331C16.4109 16.4666 16.4108 16.4997 16.4128 16.5323L16.3761 17.0831C16.3324 17.7398 15.787 18.25 15.1289 18.25H14.6046C14.3079 17.517 13.5893 17 12.75 17H11.25C10.1454 17 9.25 17.8954 9.25 19C9.25 20.1046 10.1454 21 11.25 21H12.75C13.5893 21 14.3079 20.483 14.6046 19.75H15.1289C16.5448 19.75 17.7236 18.6763 17.8649 17.2777C19.8205 17.2821 21.4719 15.769 21.6104 13.7892C21.7495 11.8003 20.3111 10.0654 18.3604 9.80973C18.4734 6.23649 15.6049 3.25 12 3.25C8.39509 3.25 5.52661 6.23649 5.63962 9.80973C3.6889 10.0654 2.25054 11.8003 2.38962 13.7892C2.53409 15.8552 4.32605 17.4129 6.39207 17.2684L6.89085 17.2336C7.30406 17.2047 7.6156 16.8463 7.58671 16.4331ZM5.7251 11.3142L5.95782 14.6423L5.98499 15.0499C5.98606 15.0658 5.98761 15.0816 5.98963 15.0972L6.03709 15.7758C4.90616 15.7303 3.96675 14.8399 3.88596 13.6845C3.80518 12.5292 4.61153 11.5167 5.7251 11.3142ZM13.25 19C13.25 18.7239 13.0261 18.5 12.75 18.5H11.25C10.9739 18.5 10.75 18.7239 10.75 19C10.75 19.2761 10.9739 19.5 11.25 19.5H12.75C13.0261 19.5 13.25 19.2761 13.25 19ZM20.114 13.6845C20.0333 14.8386 19.0959 15.7283 17.9666 15.7757L18.0422 14.6422L18.2749 11.3142C19.3885 11.5167 20.1948 12.5292 20.114 13.6845Z" fill="currentColor"/>
</svg>
