<svg width="24" height="24" viewBox="0 0 24 24" fill="none" xmlns="http://www.w3.org/2000/svg">
<path fill-rule="evenodd" clip-rule="evenodd" d="M18.7982 4.48572C17.5603 4.59402 16.6446 5.68534 16.7529 6.92326C16.8612 8.16117 17.9525 9.0769 19.1904 8.96859C19.6031 8.93249 19.9668 9.23773 20.0029 9.65037C20.039 10.063 19.7338 10.4268 19.3212 10.4629C17.5232 10.6202 15.9108 9.48138 15.4065 7.82059L9.71283 8.45322C9.59347 9.17306 9.19453 9.79848 8.63132 10.2141L9.89526 13.5846C10.5576 13.3675 11.2651 13.25 12 13.25C15.4744 13.25 18.3357 15.8751 18.7088 19.25H20C20.4142 19.25 20.75 19.5858 20.75 20C20.75 20.4142 20.4142 20.75 20 20.75H4C3.58579 20.75 3.25 20.4142 3.25 20C3.25 19.5858 3.58579 19.25 4 19.25H5.2912C5.52793 17.1085 6.76652 15.2689 8.52789 14.2103L7.22682 10.7408C7.15202 10.7469 7.07637 10.75 7 10.75C5.48122 10.75 4.25 9.5188 4.25 8.00002C4.25 6.48124 5.48122 5.25002 7 5.25002C8.15165 5.25002 9.13795 5.95794 9.5475 6.96235L15.265 6.32708C15.4506 4.57943 16.8509 3.15036 18.6675 2.99142C19.0801 2.95532 19.4439 3.26057 19.48 3.6732C19.5161 4.08584 19.2109 4.44962 18.7982 4.48572ZM6.80317 19.25H17.1968C16.8329 16.7058 14.6449 14.75 12 14.75C9.35515 14.75 7.16709 16.7058 6.80317 19.25ZM5.75 8.00002C5.75 7.30967 6.30964 6.75002 7 6.75002C7.69036 6.75002 8.25 7.30967 8.25 8.00002C8.25 8.69038 7.69036 9.25002 7 9.25002C6.30964 9.25002 5.75 8.69038 5.75 8.00002Z" fill="currentColor"/>
</svg>
