<svg width="24" height="24" viewBox="0 0 24 24" fill="none" xmlns="http://www.w3.org/2000/svg">
<path d="M10.741 4.86014C9.53621 5.07259 8.45564 5.57021 7.55441 6.27089C7.17787 6.56364 6.83246 6.89199 6.52244 7.24998H8.99999C9.4142 7.24998 9.74999 7.58576 9.74999 7.99998C9.74999 8.41419 9.4142 8.74998 8.99999 8.74998H4.99999C4.58577 8.74998 4.24999 8.41419 4.24999 7.99998V3.99998C4.24999 3.58576 4.58577 3.24998 4.99999 3.24998C5.4142 3.24998 5.74999 3.58576 5.74999 3.99998V5.8754C6.02551 5.5938 6.32063 5.33011 6.63372 5.08669C7.7232 4.23965 9.02933 3.63882 10.4806 3.38293C15.2396 2.54378 19.7779 5.7215 20.6171 10.4806C20.689 10.8885 20.4166 11.2775 20.0087 11.3494C19.6008 11.4213 19.2118 11.149 19.1398 10.741C18.4445 6.79782 14.6843 4.16484 10.741 4.86014Z" fill="currentColor"/>
<path d="M3.99129 12.6506C4.39921 12.5787 4.7882 12.851 4.86013 13.2589C5.55543 17.2022 9.3157 19.8352 13.2589 19.1399C14.965 18.839 16.4253 17.9652 17.4776 16.75H15C14.5858 16.75 14.25 16.4142 14.25 16C14.25 15.5858 14.5858 15.25 15 15.25H19C19.4142 15.25 19.75 15.5858 19.75 16V20C19.75 20.4142 19.4142 20.75 19 20.75C18.5858 20.75 18.25 20.4142 18.25 20V18.1245C17.0161 19.3856 15.3896 20.2873 13.5194 20.6171C8.76033 21.4562 4.22207 18.2785 3.38292 13.5194C3.31099 13.1115 3.58337 12.7225 3.99129 12.6506Z" fill="currentColor"/>
</svg>
