<svg width="24" height="24" viewBox="0 0 24 24" fill="none" xmlns="http://www.w3.org/2000/svg">
<path fill-rule="evenodd" clip-rule="evenodd" d="M22.955 1.54511C23.2479 1.838 23.2479 2.31288 22.955 2.60577L15.6946 9.86613C16.2407 10.8431 16.1446 12.0824 15.4063 12.967L17.3611 14.9218C18.4351 15.9958 18.4351 17.737 17.3611 18.8109L15.9283 20.2438C15.219 20.9531 14.5984 21.5296 14.0367 21.9605C13.4789 22.3885 12.935 22.7079 12.3776 22.8535C11.1398 23.1767 10.1663 22.5762 9.2294 21.6394L1.01807 13.428C0.173449 12.5834 0.40451 11.1595 1.47288 10.6253C2.30245 10.2106 2.99154 9.846 3.55392 9.28361L4.93599 7.90154C4.95113 7.88323 4.96726 7.86547 4.9844 7.84833C5.00154 7.83119 5.0193 7.81506 5.03761 7.79993L5.69387 7.14367C6.76781 6.06973 8.50901 6.06973 9.58295 7.14367L11.533 9.09373C12.4176 8.35535 13.657 8.25925 14.634 8.80545L21.8943 1.54511C22.1872 1.25222 22.6621 1.25222 22.955 1.54511ZM4.61458 10.3443L5.51713 9.44172L15.0631 18.9877L14.8676 19.1831C14.172 19.8787 13.6064 20.4001 13.1236 20.7704C12.6372 21.1437 12.2785 21.3291 11.9986 21.4022C11.5617 21.5162 11.121 21.4096 10.2901 20.5787L10.0534 20.3421C10.5764 20.0736 11.2143 19.6497 11.8787 18.9853C12.1716 18.6924 12.1716 18.2175 11.8787 17.9246C11.5858 17.6317 11.1109 17.6317 10.818 17.9246C10.1787 18.5639 9.59174 18.9117 9.18187 19.098C9.08339 19.1427 8.9948 19.1783 8.91781 19.2065L7.40182 17.6905C7.92472 17.4219 8.56261 16.9981 9.22703 16.3336C9.51993 16.0407 9.51993 15.5659 9.22703 15.273C8.93414 14.9801 8.45927 14.9801 8.16637 15.273C7.52707 15.9123 6.94007 16.2601 6.53019 16.4464C6.43173 16.4911 6.34316 16.5267 6.26619 16.5548L4.75019 15.0388C5.27309 14.7703 5.91097 14.3464 6.57539 13.682C6.86828 13.3891 6.86828 12.9143 6.57539 12.6214C6.2825 12.3285 5.80762 12.3285 5.51473 12.6214C4.87543 13.2607 4.28842 13.6084 3.87855 13.7947C3.7801 13.8395 3.69154 13.8751 3.61457 13.9032L2.07873 12.3674C1.95807 12.2467 1.99108 12.0433 2.1437 11.967C2.95869 11.5595 3.85816 11.1007 4.61458 10.3443ZM16.3005 17.7503L16.1237 17.927L6.57779 8.38106L6.75453 8.20433C7.24268 7.71618 8.03414 7.71618 8.52229 8.20433L16.3005 15.9825C16.7886 16.4707 16.7886 17.2621 16.3005 17.7503ZM14.3359 11.8965L12.6035 10.1641C13.0888 9.84256 13.7492 9.89559 14.1768 10.3232C14.6044 10.7508 14.6574 11.4112 14.3359 11.8965Z" fill="currentColor"/>
</svg>
