<svg width="24" height="24" viewBox="0 0 24 24" fill="none" xmlns="http://www.w3.org/2000/svg">
<path fill-rule="evenodd" clip-rule="evenodd" d="M4.25 6C4.25 3.92893 5.92893 2.25 8 2.25H16C18.0711 2.25 19.75 3.92893 19.75 6V18C19.75 20.0711 18.0711 21.75 16 21.75H8C5.92893 21.75 4.25 20.0711 4.25 18V6ZM8 3.75C6.75736 3.75 5.75 4.75736 5.75 6V18C5.75 19.2426 6.75736 20.25 8 20.25H16C17.2426 20.25 18.25 19.2426 18.25 18V6C18.25 4.75736 17.2426 3.75 16 3.75H8Z" fill="currentColor"/>
<path fill-rule="evenodd" clip-rule="evenodd" d="M6.75 6.5C6.75 5.5335 7.5335 4.75 8.5 4.75H15.5C16.4665 4.75 17.25 5.5335 17.25 6.5V8C17.25 8.9665 16.4665 9.75 15.5 9.75H8.5C7.5335 9.75 6.75 8.9665 6.75 8V6.5ZM8.5 6.25C8.36193 6.25 8.25 6.36193 8.25 6.5V8C8.25 8.13807 8.36193 8.25 8.5 8.25H15.5C15.6381 8.25 15.75 8.13807 15.75 8V6.5C15.75 6.36193 15.6381 6.25 15.5 6.25H8.5Z" fill="currentColor"/>
<path d="M9 12C9 12.5523 8.55228 13 8 13C7.44772 13 7 12.5523 7 12C7 11.4477 7.44772 11 8 11C8.55228 11 9 11.4477 9 12Z" fill="currentColor"/>
<path d="M9 15C9 15.5523 8.55228 16 8 16C7.44772 16 7 15.5523 7 15C7 14.4477 7.44772 14 8 14C8.55228 14 9 14.4477 9 15Z" fill="currentColor"/>
<path d="M9 18C9 18.5523 8.55228 19 8 19C7.44772 19 7 18.5523 7 18C7 17.4477 7.44772 17 8 17C8.55228 17 9 17.4477 9 18Z" fill="currentColor"/>
<path d="M13 12C13 12.5523 12.5523 13 12 13C11.4477 13 11 12.5523 11 12C11 11.4477 11.4477 11 12 11C12.5523 11 13 11.4477 13 12Z" fill="currentColor"/>
<path d="M13 15C13 15.5523 12.5523 16 12 16C11.4477 16 11 15.5523 11 15C11 14.4477 11.4477 14 12 14C12.5523 14 13 14.4477 13 15Z" fill="currentColor"/>
<path d="M13 18C13 18.5523 12.5523 19 12 19C11.4477 19 11 18.5523 11 18C11 17.4477 11.4477 17 12 17C12.5523 17 13 17.4477 13 18Z" fill="currentColor"/>
<path d="M17 12C17 12.5523 16.5523 13 16 13C15.4477 13 15 12.5523 15 12C15 11.4477 15.4477 11 16 11C16.5523 11 17 11.4477 17 12Z" fill="currentColor"/>
<path d="M17 15C17 15.5523 16.5523 16 16 16C15.4477 16 15 15.5523 15 15C15 14.4477 15.4477 14 16 14C16.5523 14 17 14.4477 17 15Z" fill="currentColor"/>
<path d="M17 18C17 18.5523 16.5523 19 16 19C15.4477 19 15 18.5523 15 18C15 17.4477 15.4477 17 16 17C16.5523 17 17 17.4477 17 18Z" fill="currentColor"/>
</svg>
