<svg width="24" height="24" viewBox="0 0 24 24" fill="none" xmlns="http://www.w3.org/2000/svg">
<path d="M7.30644 4.06514C7.21287 4.02328 7.10916 4 7.00002 4C6.89524 4 6.79548 4.02145 6.70487 4.06021C6.6198 4.09651 6.54007 4.14925 6.4705 4.2184L6.46889 4.22001L2.22001 8.4689C1.92668 8.76222 1.92668 9.2378 2.22001 9.53112C2.51334 9.82445 2.98891 9.82445 3.28223 9.53112L6.24891 6.56444V17.4978C6.24891 17.9126 6.58519 18.2489 7.00002 18.2489C7.41484 18.2489 7.75112 17.9126 7.75112 17.4978V6.56446L10.7178 9.53113C11.0111 9.82445 11.4867 9.82445 11.78 9.53113C12.0733 9.2378 12.0733 8.76223 11.78 8.4689L7.53112 4.22001C7.51992 4.20881 7.50845 4.19803 7.49674 4.18769L7.30644 4.06514Z" fill="currentColor"/>
<path d="M17.3064 19.9338C17.2129 19.9756 17.1092 19.9989 17 19.9989C16.8952 19.9989 16.7955 19.9775 16.7049 19.9387C16.6198 19.9024 16.5401 19.8497 16.4705 19.7805L16.4689 19.7789L12.22 15.53C11.9267 15.2367 11.9267 14.7611 12.22 14.4678C12.5133 14.1745 12.9889 14.1745 13.2822 14.4678L16.2489 17.4345V6.50111C16.2489 6.08628 16.5852 5.75 17 5.75C17.4148 5.75 17.7511 6.08628 17.7511 6.50111V17.4345L20.7178 14.4678C21.0111 14.1745 21.4867 14.1745 21.78 14.4678C22.0733 14.7611 22.0733 15.2367 21.78 15.53L17.5311 19.7789C17.5199 19.7901 17.5085 19.8009 17.4967 19.8112L17.3064 19.9338Z" fill="currentColor"/>
</svg>
