<svg width="24" height="24" viewBox="0 0 24 24" fill="none" xmlns="http://www.w3.org/2000/svg">
<path fill-rule="evenodd" clip-rule="evenodd" d="M9.6512 2.12802C9.44569 1.76839 8.98755 1.64344 8.62791 1.84895C8.26827 2.05445 8.14332 2.51259 8.34883 2.87223L9.07842 4.14901C8.56021 4.79214 8.25001 5.60991 8.25001 6.50013C8.25001 6.60911 8.25998 6.71577 8.27904 6.81924C6.96769 7.07461 5.90059 8.01334 5.46348 9.24971C4.23768 9.23021 3.25 8.23045 3.25 7V6C3.25 5.58579 2.91421 5.25 2.5 5.25C2.08579 5.25 1.75 5.58579 1.75 6V7C1.75 8.98706 3.29549 10.6132 5.25 10.7418V12.9419L4.58505 13.1414C3.96504 13.3274 3.29495 13.2374 2.74602 12.8943L1.89748 12.364C1.54623 12.1444 1.08351 12.2512 0.86398 12.6025C0.644447 12.9537 0.751227 13.4164 1.10248 13.636L1.95102 14.1663C2.8659 14.7381 3.98271 14.8882 5.01607 14.5782L5.25 14.508V15.7145C5.25 15.8974 5.25887 16.0782 5.27621 16.2566C3.30932 16.3723 1.75 18.0041 1.75 20V21C1.75 21.4142 2.08579 21.75 2.5 21.75C2.91421 21.75 3.25 21.4142 3.25 21V20C3.25 18.7574 4.25736 17.75 5.5 17.75H5.63625C6.44728 19.8 8.44707 21.25 10.7855 21.25C11.2449 21.25 11.6671 21.0909 12 20.8247C12.3329 21.0909 12.7551 21.25 13.2145 21.25C15.5529 21.25 17.5527 19.8 18.3638 17.75H18.5C19.7426 17.75 20.75 18.7574 20.75 20V21C20.75 21.4142 21.0858 21.75 21.5 21.75C21.9142 21.75 22.25 21.4142 22.25 21V20C22.25 18.0041 20.6907 16.3723 18.7238 16.2566C18.7411 16.0782 18.75 15.8974 18.75 15.7145V14.508L18.9839 14.5782C20.0173 14.8882 21.1341 14.7381 22.049 14.1663L22.8975 13.636C23.2488 13.4164 23.3556 12.9537 23.136 12.6025C22.9165 12.2512 22.4538 12.1444 22.1025 12.364L21.254 12.8943C20.7051 13.2374 20.035 13.3274 19.4149 13.1414L18.75 12.9419V10.7418C20.7045 10.6132 22.25 8.98706 22.25 7V6C22.25 5.58579 21.9142 5.25 21.5 5.25C21.0858 5.25 20.75 5.58579 20.75 6V7C20.75 8.23045 19.7623 9.23021 18.5365 9.24971C18.0994 8.01335 17.0323 7.07462 15.721 6.81924C15.7401 6.71577 15.75 6.60911 15.75 6.50013C15.75 5.60991 15.4398 4.79214 14.9216 4.14901L15.6512 2.87223C15.8567 2.51259 15.7318 2.05445 15.3721 1.84895C15.0125 1.64344 14.5543 1.76839 14.3488 2.12802L13.7471 3.1811C13.2254 2.90591 12.6309 2.75013 12 2.75013C11.3692 2.75013 10.7747 2.90591 10.253 3.1811L9.6512 2.12802ZM6.75 13.4841C6.75024 13.4949 6.75023 13.5057 6.75 13.5165V15.7145C6.75 17.9432 8.55677 19.75 10.7855 19.75C11.0318 19.75 11.2315 19.5506 11.2319 19.3043L11.2496 8.25H9C7.75736 8.25 6.75 9.25736 6.75 10.5V13.4841ZM17.25 13.4841V10.5C17.25 9.25736 16.2426 8.25 15 8.25H12.7504L12.7681 19.3043C12.7685 19.5506 12.9682 19.75 13.2145 19.75C15.4432 19.75 17.25 17.9432 17.25 15.7145V13.5164C17.2498 13.5057 17.2498 13.4949 17.25 13.4841ZM14.0081 6.75C14.1424 6.74573 14.25 6.63549 14.25 6.50013C14.25 5.25749 13.2427 4.25013 12 4.25013C10.7574 4.25013 9.75001 5.25749 9.75001 6.50013C9.75001 6.63549 9.8576 6.74573 9.99193 6.75H14.0081Z" fill="currentColor"/>
</svg>
