<svg width="24" height="24" viewBox="0 0 24 24" fill="none" xmlns="http://www.w3.org/2000/svg">
<path d="M10.7601 14.3865C10.9014 14.5285 11.0927 14.6081 11.2921 14.6081C11.4915 14.6081 11.6829 14.5285 11.8231 14.3865L15.7288 10.4599C16.0223 10.1649 16.0223 9.68649 15.7288 9.39142C15.4352 9.09635 14.9603 9.09635 14.6667 9.39142L11.2921 12.7832L9.92845 11.4106C9.63488 11.1155 9.15795 11.1155 8.86538 11.4106C8.57181 11.7047 8.57181 12.184 8.86438 12.4791L10.7601 14.3865Z" fill="currentColor"/>
<path fill-rule="evenodd" clip-rule="evenodd" d="M11.7826 22.4678C11.8537 22.4899 11.9269 22.5 12 22.5C12.0731 22.5 12.1463 22.4899 12.2174 22.4678C12.5531 22.3661 20.4385 19.8866 20.4385 12.956C20.4385 11.0486 20.4628 9.66354 20.4808 8.64227L20.4816 8.59573C20.5276 6.04175 20.5373 5.50825 19.8804 4.84801C19.0918 4.05544 13.1352 2 12 2C10.8638 2 4.90716 4.05544 4.12063 4.84801C3.46275 5.50824 3.47235 6.04174 3.51837 8.59865L3.51919 8.64535C3.53716 9.66661 3.56153 11.0516 3.56153 12.956C3.56153 19.8866 11.4469 22.3661 11.7826 22.4678ZM5.17168 5.92658C5.78988 5.40794 11.1503 3.51061 12 3.51061C12.8497 3.51061 18.2111 5.40794 18.8173 5.91651C19.0107 6.10987 19.0177 6.43012 18.9796 8.57217C18.9606 9.60542 18.9355 11.0103 18.9355 12.956C18.9355 18.1786 13.1993 20.5171 11.999 20.9471C10.7976 20.5191 5.06447 18.1938 5.06447 12.956C5.06447 11.0424 5.04019 9.65202 5.02222 8.62342L5.02138 8.57519C4.98231 6.43113 4.98932 6.11088 5.17168 5.92658Z" fill="currentColor"/>
</svg>
