<svg xmlns="http://www.w3.org/2000/svg" width="24" height="24" viewBox="0 0 24 24" fill="currentColor">
  <path d="M15.6857 4.02113C15.6857 6.02944 14.0576 7.65749 12.0493 7.65749C10.041 7.65749 8.41295 6.02944 8.41295 4.02113C8.41295 2.01282 10.041 0.384766 12.0493 0.384766C14.0576 0.384766 15.6857 2.01282 15.6857 4.02113Z" fill="#E4E6EB"/>
  <path d="M15.6857 20.7484C15.6857 22.7567 14.0576 24.3848 12.0493 24.3848C10.041 24.3848 8.41295 22.7567 8.41295 20.7484C8.41295 18.7401 10.041 17.112 12.0493 17.112C14.0576 17.112 15.6857 18.7401 15.6857 20.7484Z" fill="#E4E6EB"/>
  <path d="M3.68568 16.0211C5.69399 16.0211 7.32204 14.3931 7.32204 12.3848C7.32204 10.3765 5.69399 8.7484 3.68568 8.7484C1.67737 8.7484 0.0493164 10.3765 0.0493164 12.3848C0.0493164 14.3931 1.67737 16.0211 3.68568 16.0211Z" fill="#E4E6EB"/>
  <path d="M24.0493 12.3848C24.0493 14.3931 22.4213 16.0211 20.413 16.0211C18.4046 16.0211 16.7766 14.3931 16.7766 12.3848C16.7766 10.3765 18.4046 8.7484 20.413 8.7484C22.4213 8.7484 24.0493 10.3765 24.0493 12.3848Z" fill="#E4E6EB"/>
  <path d="M9.39737 7.55099C9.46837 7.62199 9.46837 7.73711 9.39737 7.80812L7.47268 9.73281C7.40168 9.80381 7.28656 9.80381 7.21555 9.73281L6.70129 9.21855C6.63029 9.14754 6.63029 9.03242 6.70129 8.96142L8.62598 7.03673C8.69698 6.96573 8.81211 6.96573 8.88311 7.03673L9.39737 7.55099Z" fill="#E4E6EB"/>
  <path d="M15.8675 12.7484C15.8675 12.8488 15.7861 12.9302 15.6857 12.9302H8.41297C8.31255 12.9302 8.23115 12.8488 8.23115 12.7484V12.0211C8.23115 11.9207 8.31256 11.8393 8.41297 11.8393H15.6857C15.7861 11.8393 15.8675 11.9207 15.8675 12.0211V12.7484Z" fill="#E4E6EB"/>
  <path d="M15.4727 17.7328C15.4017 17.8038 15.2866 17.8038 15.2156 17.7328L14.7013 17.2185C14.6303 17.1475 14.6303 17.0324 14.7013 16.9614L16.626 15.0367C16.697 14.9657 16.8121 14.9657 16.8831 15.0367L17.3974 15.551C17.4684 15.622 17.4684 15.7371 17.3974 15.8081L15.4727 17.7328Z" fill="#E4E6EB"/>
  <path d="M14.7013 7.55099C14.6303 7.62199 14.6303 7.73711 14.7013 7.80812L16.626 9.73281C16.697 9.80381 16.8121 9.80381 16.8831 9.73281L17.3974 9.21855C17.4684 9.14754 17.4684 9.03242 17.3974 8.96142L15.4727 7.03673C15.4017 6.96573 15.2866 6.96573 15.2156 7.03673L14.7013 7.55099Z" fill="#E4E6EB"/>
  <path d="M8.62599 17.7328C8.69699 17.8038 8.81211 17.8038 8.88312 17.7328L9.39738 17.2185C9.46838 17.1475 9.46838 17.0324 9.39738 16.9614L7.47269 15.0367C7.40168 14.9657 7.28656 14.9657 7.21556 15.0367L6.7013 15.551C6.63029 15.622 6.63029 15.7371 6.7013 15.8081L8.62599 17.7328Z" fill="#E4E6EB"/>
</svg>
