<svg width="24" height="24" viewBox="0 0 24 24" fill="none" xmlns="http://www.w3.org/2000/svg">
<path fill-rule="evenodd" clip-rule="evenodd" d="M3.21975 20.0537C3.36575 20.2007 3.55775 20.2738 3.74975 20.2738C3.94175 20.2738 4.13375 20.2007 4.27975 20.0537L20.0537 4.28075C20.3467 3.98775 20.3467 3.51275 20.0537 3.21975C19.7607 2.92675 19.2867 2.92675 18.9937 3.21975L16.7331 5.48044C15.4575 4.74635 13.8936 4.25 12 4.25C8.28216 4.25 5.83535 6.16335 4.34608 8.03266C3.60379 8.96436 3.09172 9.89252 2.76492 10.5868C2.22725 11.7291 2.22725 12.2709 2.76492 13.4132C3.09172 14.1075 3.60379 15.0356 4.34608 15.9673C4.61397 16.3036 4.91284 16.6413 5.24452 16.969L3.21975 18.9937C2.92675 19.2867 2.92675 19.7607 3.21975 20.0537ZM6.30481 15.9087L8.42242 13.7911C8.15213 13.2522 7.99999 12.6439 7.99999 12C7.99999 9.79086 9.79086 8 12 8C12.6439 8 13.2522 8.15214 13.7911 8.42243L15.6265 6.58698C14.6193 6.07713 13.4205 5.75 12 5.75C8.87162 5.75 6.81843 7.33665 5.51927 8.96734C4.86732 9.78564 4.41306 10.6075 4.12209 11.2257C3.80589 11.8974 3.80589 12.1026 4.12209 12.7743C4.41306 13.3925 4.86732 14.2144 5.51927 15.0327C5.75553 15.3292 6.01674 15.6243 6.30481 15.9087ZM12.6327 9.58077C12.4306 9.52806 12.2186 9.5 12 9.5C10.6193 9.5 9.49999 10.6193 9.49999 12C9.49999 12.2186 9.52805 12.4306 9.58076 12.6327L12.6327 9.58077Z" fill="currentColor"/>
<path d="M7.82835 18.8174C7.38425 18.6012 7.31751 18.0161 7.66678 17.6669C7.91009 17.4236 8.28396 17.3757 8.59582 17.5211C9.55587 17.9686 10.6826 18.25 12 18.25C15.1284 18.25 17.1816 16.6633 18.4807 15.0327C19.1327 14.2144 19.5869 13.3925 19.8779 12.7743C20.1941 12.1026 20.1941 11.8974 19.8779 11.2257C19.5869 10.6075 19.1327 9.78564 18.4807 8.96734C18.3349 8.78425 18.1795 8.60171 18.0142 8.42192C17.7265 8.10904 17.7142 7.62012 18.0147 7.31957C18.2993 7.03504 18.76 7.02518 19.0357 7.31828C19.2579 7.5544 19.4637 7.79389 19.6539 8.03266C20.3962 8.96436 20.9083 9.89252 21.2351 10.5868C21.786 11.7572 21.7946 12.2245 21.2351 13.4132C20.9083 14.1075 20.3962 15.0356 19.6539 15.9673C18.1647 17.8367 15.7178 19.75 12 19.75C10.3755 19.75 8.99367 19.3847 7.82835 18.8174Z" fill="currentColor"/>
<path d="M10.6445 14.6894C10.2742 15.0596 10.352 15.6835 10.8537 15.8333C11.2169 15.9418 11.6016 16 12 16C14.2091 16 16 14.2091 16 12C16 11.6017 15.9418 11.217 15.8334 10.854C15.6836 10.3523 15.0597 10.2744 14.6895 10.6446C14.4568 10.8773 14.4008 11.2263 14.4596 11.55C14.4861 11.696 14.5 11.8464 14.5 12C14.5 13.3807 13.3807 14.5 12 14.5C11.8463 14.5 11.6959 14.4861 11.5498 14.4596C11.2261 14.4007 10.8771 14.4567 10.6445 14.6894Z" fill="currentColor"/>
</svg>
