<svg width="24" height="24" viewBox="0 0 24 24" fill="none" xmlns="http://www.w3.org/2000/svg">
<path d="M14.25 12C14.25 11.5858 14.5858 11.25 15 11.25H18C18.4142 11.25 18.75 11.5858 18.75 12C18.75 12.4142 18.4142 12.75 18 12.75H15C14.5858 12.75 14.25 12.4142 14.25 12Z" fill="currentColor"/>
<path d="M5.30304 12.6975C5.48485 12.8877 5.74459 13 6.00433 13C6.27273 13 6.52381 12.8963 6.70563 12.6975C6.89611 12.5074 7 12.2568 7 11.9976C7 11.7297 6.89611 11.4791 6.70563 11.289C6.67377 11.2509 6.63722 11.2221 6.59944 11.1923C6.58588 11.1816 6.57215 11.1708 6.55843 11.1594C6.52813 11.1464 6.49999 11.1313 6.47186 11.1162C6.44372 11.1011 6.41559 11.0859 6.38529 11.073C6.36776 11.068 6.34952 11.0623 6.33096 11.0564C6.28535 11.0421 6.23789 11.0273 6.19481 11.0211C5.99568 10.9779 5.79653 11.0038 5.61471 11.073C5.4935 11.1162 5.38095 11.2026 5.29437 11.289C5.19913 11.3754 5.12987 11.4878 5.07792 11.6087C5.02597 11.7384 5 11.868 5 11.9976C5 12.2568 5.11256 12.5074 5.30304 12.6975Z" fill="currentColor"/>
<path d="M14.25 18C14.25 17.5858 14.5858 17.25 15 17.25H18C18.4142 17.25 18.75 17.5858 18.75 18C18.75 18.4142 18.4142 18.75 18 18.75H15C14.5858 18.75 14.25 18.4142 14.25 18Z" fill="currentColor"/>
<path d="M5.30304 18.6975C5.48485 18.8877 5.74459 19 6.00433 19C6.27273 19 6.52381 18.8963 6.70563 18.6975C6.89611 18.5074 7 18.2568 7 17.9976C7 17.7297 6.89611 17.4791 6.70563 17.289C6.67377 17.2508 6.63722 17.2221 6.59943 17.1923C6.58587 17.1816 6.57215 17.1708 6.55843 17.1594C6.52813 17.1464 6.5 17.1313 6.47186 17.1162C6.44373 17.1011 6.41559 17.0859 6.38529 17.073C6.36776 17.068 6.34952 17.0623 6.33096 17.0564C6.28535 17.0421 6.23789 17.0273 6.19481 17.0211C5.99568 16.9779 5.79653 17.0038 5.61471 17.073C5.4935 17.1162 5.38095 17.2026 5.29437 17.289C5.19913 17.3754 5.12987 17.4878 5.07792 17.6087C5.02597 17.7384 5 17.868 5 17.9976C5 18.2568 5.11256 18.5074 5.30304 18.6975Z" fill="currentColor"/>
<path d="M14.25 6C14.25 5.58579 14.5858 5.25 15 5.25H18C18.4142 5.25 18.75 5.58579 18.75 6C18.75 6.41421 18.4142 6.75 18 6.75H15C14.5858 6.75 14.25 6.41421 14.25 6Z" fill="currentColor"/>
<path d="M5.30304 6.69755C5.48485 6.88766 5.74459 7 6.00433 7C6.27273 7 6.52381 6.8963 6.70563 6.69755C6.89611 6.50744 7 6.25684 7 5.9976C7 5.72972 6.89611 5.47911 6.70563 5.289C6.67377 5.25085 6.63722 5.22206 6.59944 5.19229C6.58593 5.18165 6.5721 5.17075 6.55843 5.15939C6.52813 5.14643 6.5 5.1313 6.47186 5.11618C6.44373 5.10106 6.41559 5.08593 6.38529 5.07297C6.36776 5.06797 6.34952 5.06225 6.33097 5.05644C6.28536 5.04214 6.23788 5.02726 6.19481 5.02112C5.99568 4.97792 5.79653 5.00384 5.61471 5.07297C5.4935 5.11618 5.38095 5.20259 5.29437 5.289C5.19913 5.37542 5.12987 5.48776 5.07792 5.60874C5.02597 5.73836 5 5.86798 5 5.9976C5 6.25684 5.11256 6.50744 5.30304 6.69755Z" fill="currentColor"/>
<path fill-rule="evenodd" clip-rule="evenodd" d="M2.25 5.90292C2.25 3.88562 3.89003 2.25 5.90764 2.25H18.0924C20.11 2.25 21.75 3.88563 21.75 5.90292V6.09709C21.75 7.28044 21.1857 8.33244 20.3119 9C21.1857 9.66758 21.75 10.7196 21.75 11.9029V12.0971C21.75 13.2804 21.1857 14.3324 20.3119 15C21.1857 15.6676 21.75 16.7196 21.75 17.9029V18.0971C21.75 20.1144 20.11 21.75 18.0924 21.75H5.90764C3.89004 21.75 2.25 20.1144 2.25 18.0971V17.9029C2.25 16.7196 2.81433 15.6676 3.68816 15C2.81433 14.3324 2.25 13.2804 2.25 12.0971V11.9029C2.25 10.7196 2.81433 9.66757 3.68816 9C2.81433 8.33244 2.25 7.28044 2.25 6.09709V5.90292ZM5.90764 14.25H18.0924C19.2839 14.25 20.25 13.2837 20.25 12.0971V11.9029C20.25 10.7163 19.2839 9.75 18.0924 9.75H5.90764C4.71616 9.75 3.75 10.7163 3.75 11.9029V12.0971C3.75 13.2837 4.71616 14.25 5.90764 14.25ZM18.0924 15.75H5.90764C4.71616 15.75 3.75 16.7163 3.75 17.9029V18.0971C3.75 19.2837 4.71616 20.25 5.90764 20.25H18.0924C19.2839 20.25 20.25 19.2837 20.25 18.0971V17.9029C20.25 16.7163 19.2839 15.75 18.0924 15.75ZM18.0924 8.25H5.90764C4.71616 8.25 3.75 7.28367 3.75 6.09709V5.90292C3.75 4.71634 4.71616 3.75 5.90764 3.75H18.0924C19.2839 3.75 20.25 4.71633 20.25 5.90292V6.09709C20.25 7.28368 19.2839 8.25 18.0924 8.25Z" fill="currentColor"/>
</svg>
