<svg width="24" height="24" viewBox="0 0 24 24" fill="none" xmlns="http://www.w3.org/2000/svg">
<path fill-rule="evenodd" clip-rule="evenodd" d="M10.4308 3.6255C11.0727 2.32482 12.9274 2.32482 13.5693 3.6255L15.5258 7.58974C15.5622 7.66352 15.6326 7.71466 15.714 7.7265L20.0888 8.36219C21.5242 8.57076 22.0974 10.3347 21.0587 11.3472L17.8931 14.4329C17.8342 14.4903 17.8073 14.5731 17.8212 14.6542L18.5685 19.0113C18.8137 20.4409 17.3132 21.531 16.0293 20.8561L12.1164 18.7989C12.0436 18.7606 11.9566 18.7606 11.8837 18.7989L7.97079 20.8561C6.68694 21.531 5.18643 20.4409 5.43163 19.0113L6.17893 14.6542C6.19284 14.5731 6.16595 14.4903 6.10703 14.4329L2.9414 11.3472C1.90275 10.3347 2.47589 8.57077 3.91128 8.36219L8.28607 7.7265C8.36749 7.71466 8.43789 7.66352 8.4743 7.58974L10.4308 3.6255ZM12.2242 4.28935C12.1325 4.10354 11.8676 4.10354 11.7759 4.28935L9.81941 8.25359C9.5645 8.77009 9.07176 9.12808 8.50176 9.21091L4.12697 9.8466C3.92192 9.8764 3.84004 10.1284 3.98842 10.273L7.15405 13.3588C7.5665 13.7608 7.75471 14.34 7.65734 14.9077L6.91004 19.2648C6.87501 19.4691 7.08937 19.6248 7.27278 19.5284L11.1857 17.4712C11.6955 17.2032 12.3046 17.2032 12.8144 17.4712L16.7273 19.5284C16.9107 19.6248 17.1251 19.4691 17.0901 19.2648L16.3428 14.9077C16.2454 14.34 16.4336 13.7608 16.8461 13.3588L20.0117 10.273C20.1601 10.1284 20.0782 9.8764 19.8731 9.8466L15.4983 9.21091C14.9284 9.12808 14.4356 8.77009 14.1807 8.25359L12.2242 4.28935Z" fill="currentColor"/>
</svg>
