<svg width="24" height="24" viewBox="0 0 24 24" fill="none" xmlns="http://www.w3.org/2000/svg">
<path fill-rule="evenodd" clip-rule="evenodd" d="M6.5 12.75C6.5 11.4819 7.40306 10.25 8.75 10.25C10.0969 10.25 11 11.4819 11 12.75C11 14.0181 10.0969 15.25 8.75 15.25C7.40306 15.25 6.5 14.0181 6.5 12.75ZM8.75 11.75C8.44009 11.75 8 12.0851 8 12.75C8 13.4149 8.44009 13.75 8.75 13.75C9.05991 13.75 9.5 13.4149 9.5 12.75C9.5 12.0851 9.05991 11.75 8.75 11.75Z" fill="currentColor"/>
<path fill-rule="evenodd" clip-rule="evenodd" d="M15.25 10.25C13.9031 10.25 13 11.4819 13 12.75C13 14.0181 13.9031 15.25 15.25 15.25C16.5969 15.25 17.5 14.0181 17.5 12.75C17.5 11.4819 16.5969 10.25 15.25 10.25ZM14.5 12.75C14.5 12.0851 14.9401 11.75 15.25 11.75C15.5599 11.75 16 12.0851 16 12.75C16 13.4149 15.5599 13.75 15.25 13.75C14.9401 13.75 14.5 13.4149 14.5 12.75Z" fill="currentColor"/>
<path fill-rule="evenodd" clip-rule="evenodd" d="M14.9455 18.4398C14.0149 18.6417 13.025 18.75 12 18.75C10.975 18.75 9.98506 18.6417 9.05445 18.4398C8.88606 18.7196 8.67438 19.0738 8.47631 19.4059C7.98935 20.2225 7.00879 20.8327 5.91603 20.4953C4.68533 20.1152 3.0414 19.3392 2.22608 18.6946C1.51114 18.1295 1.32902 17.2767 1.31879 16.5944C1.28333 14.2286 1.62785 11.8531 2.12293 9.95408C2.37048 9.00451 2.65969 8.15852 2.96655 7.48359C3.25808 6.84237 3.61327 6.24555 4.04231 5.91504C5.05312 5.13636 6.84812 4.39492 8.07958 4.12022C8.924 3.93187 9.66041 4.39056 10.0447 4.991L10.1693 5.1857C11.3968 5.02146 12.6032 5.02146 13.8307 5.1857L13.9554 4.99095C14.3397 4.39037 15.0772 3.9313 15.9225 4.12282C17.1609 4.40342 18.9776 5.16 19.9577 5.91504C20.3895 6.24769 20.7403 6.84803 21.026 7.48847C21.3271 8.16343 21.6094 9.00908 21.8521 9.95726C22.3378 11.8541 22.6813 14.2246 22.6813 16.5832C22.6813 17.2841 22.4847 18.1327 21.7739 18.6946C20.9586 19.3392 19.3147 20.1152 18.084 20.4953C16.9912 20.8327 16.0107 20.2225 15.5237 19.4059C15.3256 19.0738 15.1139 18.7196 14.9455 18.4398ZM8.78127 5.79958C8.65093 5.59592 8.49351 5.56476 8.40615 5.58424C7.32989 5.82432 5.75259 6.49099 4.95771 7.10333C4.84019 7.19387 4.6096 7.49393 4.33204 8.10441C4.06982 8.68118 3.80664 9.44171 3.57442 10.3325C3.10995 12.1141 2.78538 14.3545 2.81862 16.5719C2.8259 17.0574 2.95508 17.3588 3.15629 17.5179C3.77671 18.0083 5.23233 18.7143 6.35862 19.0621C6.61467 19.1411 6.95193 19.0335 7.18799 18.6377C7.30901 18.4347 7.43715 18.2201 7.55822 18.018C6.85976 17.7724 6.20758 17.4694 5.6157 17.1163C5.25999 16.904 5.1437 16.4436 5.35594 16.0879C5.56818 15.7322 6.02859 15.6159 6.3843 15.8282C7.10559 16.2585 7.9511 16.6113 8.88836 16.8579C9.84711 17.1101 10.897 17.25 12 17.25C13.103 17.25 14.1529 17.1101 15.1116 16.8579C16.0489 16.6113 16.8944 16.2585 17.6157 15.8282C17.9714 15.6159 18.4318 15.7322 18.6441 16.0879C18.8563 16.4436 18.74 16.904 18.3843 17.1163C17.7924 17.4694 17.1402 17.7724 16.4418 18.018C16.5628 18.2201 16.691 18.4347 16.812 18.6377C17.0481 19.0335 17.3853 19.1411 17.6414 19.0621C18.7677 18.7143 20.2233 18.0084 20.8437 17.5179C21.0491 17.3556 21.1813 17.0501 21.1813 16.5832C21.1813 14.3586 20.8557 12.1131 20.399 10.3293C20.1706 9.43715 19.9134 8.67627 19.6561 8.09953C19.3834 7.48827 19.1571 7.19174 19.0423 7.10333C18.2783 6.51477 16.6785 5.83214 15.591 5.58573C15.5053 5.5663 15.349 5.59607 15.2188 5.79954L14.8674 6.34861C14.6829 6.63677 14.346 6.7838 14.0134 6.72928C12.657 6.50693 11.343 6.50693 9.98663 6.72928C9.65401 6.7838 9.31707 6.63677 9.13264 6.3486L8.78127 5.79958Z" fill="currentColor"/>
</svg>
