<svg width="24" height="24" viewBox="0 0 24 24" fill="none" xmlns="http://www.w3.org/2000/svg">
<path fill-rule="evenodd" clip-rule="evenodd" d="M9.97073 2.74582C9.3829 2.35393 8.6171 2.35393 8.02927 2.74582L5.02927 4.74582C4.54243 5.07038 4.25 5.61679 4.25 6.2019V7.63413C4.25 7.71782 4.20812 7.79596 4.13843 7.8423L3.03096 8.57877C2.54314 8.90317 2.25 9.45015 2.25 10.036V13.9615C2.25 14.5467 2.54243 15.0931 3.02927 15.4176L4.13868 16.1572C4.20822 16.2036 4.25 16.2816 4.25 16.3652V17.7982C4.25 18.3833 4.54243 18.9297 5.02927 19.2543L8.02927 21.2543C8.6171 21.6462 9.3829 21.6462 9.97073 21.2543L11.9707 19.921C11.9805 19.9145 11.9901 19.9079 11.9997 19.9012L14.0293 21.2543C14.6171 21.6462 15.3829 21.6462 15.9707 21.2543L18.9707 19.2543C19.4576 18.9297 19.75 18.3833 19.75 17.7982V16.3652C19.75 16.2816 19.7918 16.2036 19.8613 16.1572L20.9707 15.4176C21.4576 15.0931 21.75 14.5467 21.75 13.9615V10.036C21.75 9.45015 21.4569 8.90317 20.969 8.57877L19.8616 7.8423C19.7919 7.79596 19.75 7.71782 19.75 7.63413V6.2019C19.75 5.61679 19.4576 5.07038 18.9707 4.74582L15.9707 2.74582C15.3829 2.35393 14.6171 2.35393 14.0293 2.74582L11.9997 4.09888C11.9901 4.09221 11.9805 4.08564 11.9707 4.07915L9.97073 2.74582ZM12.7451 5.40469C12.7484 5.44794 12.75 5.49148 12.75 5.53524V9.46487C12.75 9.54846 12.7918 9.62652 12.8613 9.67288L13.916 10.376C14.2607 10.6058 14.3538 11.0714 14.124 11.4161C13.8943 11.7607 13.4286 11.8539 13.084 11.6241L12.0293 10.921C11.5424 10.5964 11.25 10.05 11.25 9.46487V5.53524C11.25 5.45165 11.2082 5.37359 11.1387 5.32722L9.13868 3.99389C9.0547 3.93791 8.9453 3.93791 8.86132 3.99389L5.86133 5.99389C5.79178 6.04026 5.75 6.11832 5.75 6.2019V7.63413C5.75 8.21996 5.45686 8.76694 4.96904 9.09134L3.86157 9.82781C3.79188 9.87415 3.75 9.95229 3.75 10.036V13.9615C3.75 14.0451 3.79177 14.1232 3.86133 14.1695L4.97073 14.9092C5.45757 15.2337 5.75 15.7801 5.75 16.3652V17.7982C5.75 17.8818 5.79177 17.9598 5.86133 18.0062L8.86133 20.0062C8.9453 20.0622 9.0547 20.0622 9.13868 20.0062L11.1387 18.6729C11.2082 18.6265 11.25 18.5485 11.25 18.4649V13.5352C11.25 13.4516 11.2082 13.3736 11.1387 13.3272L10.084 12.6241C9.73933 12.3943 9.6462 11.9287 9.87596 11.584C10.1057 11.2394 10.5714 11.1463 10.916 11.376L11.9707 12.0792C12.4576 12.4037 12.75 12.9501 12.75 13.5352V18.4649C12.75 18.5086 12.7484 18.5522 12.7451 18.5954L14.8613 20.0062C14.9453 20.0622 15.0547 20.0622 15.1387 20.0062L18.1387 18.0062C18.2082 17.9598 18.25 17.8818 18.25 17.7982V16.3652C18.25 15.7801 18.5424 15.2337 19.0293 14.9092L20.1387 14.1695C20.2082 14.1232 20.25 14.0451 20.25 13.9615V10.036C20.25 9.95229 20.2081 9.87415 20.1384 9.82781L19.031 9.09134C18.5431 8.76694 18.25 8.21996 18.25 7.63413V6.2019C18.25 6.11832 18.2082 6.04026 18.1387 5.99389L15.1387 3.99389C15.0547 3.93791 14.9453 3.93791 14.8613 3.99389L12.7451 5.40469Z" fill="currentColor"/>
</svg>
