<svg width="24" height="24" viewBox="0 0 24 24" fill="none" xmlns="http://www.w3.org/2000/svg">
<path d="M8.04435 15.802C8.29178 15.4698 8.76166 15.4011 9.09385 15.6486C9.76846 16.1511 10.802 16.5 12 16.5C13.198 16.5 14.2315 16.1511 14.9061 15.6486C15.2383 15.4011 15.7082 15.4698 15.9556 15.802C16.2031 16.1342 16.1344 16.6041 15.8022 16.8515C14.8288 17.5765 13.4674 18 12 18C10.5325 18 9.17116 17.5765 8.19781 16.8515C7.86562 16.6041 7.79691 16.1342 8.04435 15.802Z" fill="currentColor"/>
<path d="M8.75 13.75C9.44036 13.75 10 13.1904 10 12.5C10 11.8096 9.44036 11.25 8.75 11.25C8.05964 11.25 7.5 11.8096 7.5 12.5C7.5 13.1904 8.05964 13.75 8.75 13.75Z" fill="currentColor"/>
<path d="M16.5 12.5C16.5 13.1904 15.9404 13.75 15.25 13.75C14.5596 13.75 14 13.1904 14 12.5C14 11.8096 14.5596 11.25 15.25 11.25C15.9404 11.25 16.5 11.8096 16.5 12.5Z" fill="currentColor"/>
<path fill-rule="evenodd" clip-rule="evenodd" d="M16.255 4.1512L14.2573 3.86582C14.1336 3.84815 14.0159 3.9245 13.9816 4.04463L12.9847 7.53364C14.4941 7.63733 15.908 7.97717 17.1417 8.50389C17.7328 7.886 18.5663 7.5 19.4905 7.5C21.2854 7.5 22.7405 8.95507 22.7405 10.75C22.7405 11.7248 22.3111 12.5987 21.633 13.1937C21.7098 13.5367 21.75 13.8895 21.75 14.25C21.75 16.2356 20.5428 17.9415 18.78 19.1167C17.012 20.2954 14.6127 21 12 21C9.3873 21 6.98802 20.2954 5.22001 19.1167C3.45725 17.9415 2.25 16.2356 2.25 14.25C2.25 13.8894 2.29028 13.5364 2.36707 13.1934C1.68926 12.5984 1.26001 11.7246 1.26001 10.75C1.26001 8.95507 2.71508 7.5 4.51001 7.5C5.43409 7.5 6.26757 7.88593 6.85867 8.50372C8.20613 7.92847 9.76734 7.57677 11.4311 7.51118L12.5393 3.63254C12.7795 2.79165 13.6037 2.25722 14.4694 2.38089L16.667 2.69484C17.075 2.12291 17.7439 1.75 18.5 1.75C19.7426 1.75 20.75 2.75736 20.75 4C20.75 5.24264 19.7426 6.25 18.5 6.25C17.3082 6.25 16.3328 5.32334 16.255 4.1512ZM17.75 4C17.75 3.58579 18.0858 3.25 18.5 3.25C18.9142 3.25 19.25 3.58579 19.25 4C19.25 4.41421 18.9142 4.75 18.5 4.75C18.0858 4.75 17.75 4.41421 17.75 4ZM6.01797 9.85542L6.01543 9.85693C5.70912 9.34218 5.14913 9 4.51001 9C3.54351 9 2.76001 9.7835 2.76001 10.75C2.76001 11.3771 3.08947 11.9281 3.58811 12.2379L3.75402 12.3279C3.99673 12.4596 4.08283 12.7621 3.98335 13.0197C3.8294 13.4184 3.75 13.83 3.75 14.25C3.75 15.5781 4.55747 16.8722 6.05206 17.8686C7.54141 18.8615 9.64214 19.5 12 19.5C14.3579 19.5 16.4586 18.8615 17.9479 17.8686C19.4425 16.8722 20.25 15.5781 20.25 14.25C20.25 13.8285 20.1701 13.4155 20.015 13.0155C19.9152 12.7581 20.001 12.4555 20.2436 12.3235L20.4715 12.1995C20.9369 11.8838 21.2405 11.352 21.2405 10.75C21.2405 9.7835 20.457 9 19.4905 9C18.8514 9 18.2914 9.34218 17.9851 9.85693L17.9839 9.85621L17.8941 10.0057C17.7519 10.2424 17.4452 10.3178 17.2005 10.1899C17.1108 10.143 17.0194 10.0973 16.9265 10.0527C15.5619 9.3981 13.867 9.00252 12.0177 9.00001C12.0062 9.00028 11.9946 9.00028 11.983 9.00001C10.0054 9.00258 8.20759 9.45447 6.80112 10.1891C6.55635 10.3169 6.24977 10.2415 6.10762 10.0047L6.01797 9.85542Z" fill="currentColor"/>
</svg>
