<svg width="24" height="24" viewBox="0 0 24 24" fill="none" xmlns="http://www.w3.org/2000/svg">
<path d="M22 21.9992C22 21.9996 21.9996 22 21.9992 22H2.00077C2.00038 22 2 21.9996 2 21.9992V2.00077C2 2.00038 2.00038 2 2.00077 2H21.9994C21.9998 2 22.0002 2.00038 22.0002 2.00077V21.9992H22Z" fill="#D00000"/>
<path d="M7.45976 17.4343C7.45976 17.4494 7.46857 17.4705 7.4791 17.481L7.82145 17.8234C7.83217 17.8341 7.85323 17.8427 7.86817 17.8427H9.03963C9.05476 17.8427 9.07585 17.8339 9.08639 17.8234L9.4287 17.481C9.43945 17.4703 9.44807 17.4492 9.44807 17.4343V13.7172C9.44807 13.7021 9.45707 13.6812 9.46798 13.6709L10.9563 12.2494C10.9672 12.2391 10.9831 12.2406 10.9915 12.2532L14.7519 17.8203C14.7603 17.8328 14.7797 17.8431 14.7946 17.8431H16.4542C16.4693 17.8431 16.4873 17.8322 16.4942 17.8188L16.7954 17.2352C16.8023 17.2218 16.8009 17.2008 16.7923 17.1883L12.3939 10.8128C12.3852 10.8004 12.3869 10.7816 12.3977 10.7709L16.4433 6.74423C16.454 6.73351 16.4626 6.71263 16.4626 6.69751V6.62316C16.4626 6.60804 16.4576 6.58448 16.4517 6.57048L16.2184 6.03388C16.2124 6.0201 16.195 6.00879 16.18 6.00879H14.5396C14.5245 6.00879 14.5034 6.0176 14.4929 6.02813L9.46779 11.0722C9.45707 11.0829 9.44845 11.0793 9.44845 11.0642V6.43676C9.44845 6.42163 9.44001 6.40038 9.42967 6.38926L9.09385 6.0291C9.08351 6.01801 9.06282 6.00898 9.04767 6.00898H7.86817C7.85304 6.00898 7.83235 6.01801 7.82201 6.0291L7.47813 6.40038C7.46779 6.41148 7.45954 6.43276 7.45954 6.44788V17.4343H7.45976Z" fill="white"/>
</svg>
