<svg width="24" height="24" viewBox="0 0 24 24" fill="none" xmlns="http://www.w3.org/2000/svg">
<path fill-rule="evenodd" clip-rule="evenodd" d="M17.4339 9.94235C17.3128 9.67321 17.0451 9.50012 16.75 9.50012C16.4549 9.50012 16.1872 9.67321 16.0661 9.94235L11.5661 19.9423C11.3961 20.3201 11.5645 20.7641 11.9422 20.9341C12.32 21.104 12.764 20.9356 12.9339 20.5579L14.3099 17.5001H19.1901L20.5661 20.5579C20.736 20.9356 21.18 21.104 21.5578 20.9341C21.9355 20.7641 22.1039 20.3201 21.9339 19.9423L17.4339 9.94235ZM18.5151 16.0001L16.75 12.0778L14.9849 16.0001H18.5151Z" fill="currentColor"/>
<path fill-rule="evenodd" clip-rule="evenodd" d="M8.97761 3.06828C8.87715 2.66643 8.46995 2.42211 8.0681 2.52257C7.66625 2.62303 7.42193 3.03023 7.5224 3.43208L7.88334 4.87587C7.89912 4.93898 7.85139 5.00012 7.78633 5.00012H4.76936C4.7567 4.9998 4.74399 4.9998 4.73124 5.00012H3.25C2.83579 5.00012 2.5 5.33591 2.5 5.75012C2.5 6.16434 2.83579 6.50012 3.25 6.50012H4.12707C4.17021 6.50012 4.20853 6.52799 4.22222 6.56891C5.0472 9.03584 6.28711 11.0372 7.69732 12.6103C5.96714 14.2006 4.09078 15.1418 2.5681 15.5225C2.16625 15.6229 1.92193 16.0301 2.0224 16.432C2.12286 16.8338 2.53006 17.0781 2.9319 16.9777C4.70549 16.5343 6.82345 15.4618 8.75005 13.6799C9.64447 14.5072 10.6399 15.2393 11.7073 15.8335C12.0606 16.0302 12.5005 15.8863 12.6899 15.5291C12.8872 15.1571 12.7377 14.6972 12.3718 14.4888C11.4483 13.9627 10.5826 13.3271 9.80272 12.6104C11.2139 11.0363 12.4532 9.03461 13.2778 6.56891C13.2915 6.52799 13.3298 6.50012 13.3729 6.50012H14.25C14.6642 6.50012 15 6.16434 15 5.75012C15 5.33591 14.6642 5.00012 14.25 5.00012H12.7688C12.756 4.9998 12.7433 4.9998 12.7306 5.00012H9.53865C9.49276 5.00012 9.45276 4.96889 9.44163 4.92438L8.97761 3.06828ZM8.74992 11.5368C9.89935 10.2373 10.9273 8.61314 11.6641 6.63416C11.6883 6.56915 11.6401 6.50012 11.5707 6.50012H5.92926C5.8599 6.50012 5.81167 6.56915 5.83587 6.63415C6.5723 8.61209 7.59976 10.2365 8.74992 11.5368Z" fill="currentColor"/>
</svg>
