<svg width="24" height="24" viewBox="0 0 24 24" fill="none" xmlns="http://www.w3.org/2000/svg">
<path d="M12.25 7C12.25 6.58579 11.9142 6.25 11.5 6.25C11.0858 6.25 10.75 6.58579 10.75 7V12.82C10.75 13.2342 11.0858 13.57 11.5 13.57H16C16.4142 13.57 16.75 13.2342 16.75 12.82C16.75 12.4058 16.4142 12.07 16 12.07H12.25V7Z" fill="currentColor"/>
<path fill-rule="evenodd" clip-rule="evenodd" d="M12 2.25C6.61522 2.25 2.25 6.61522 2.25 12C2.25 17.3848 6.61522 21.75 12 21.75C17.3848 21.75 21.75 17.3848 21.75 12C21.75 6.61522 17.3848 2.25 12 2.25ZM3.75 12C3.75 7.44365 7.44365 3.75 12 3.75C16.5563 3.75 20.25 7.44365 20.25 12C20.25 16.5563 16.5563 20.25 12 20.25C7.44365 20.25 3.75 16.5563 3.75 12Z" fill="currentColor"/>
</svg>
