<svg width="24" height="24" viewBox="0 0 24 24" fill="currentColor" xmlns="http://www.w3.org/2000/svg">
<path d="M13.5968 19.224C13.8741 19.352 14.1834 19.416 14.5248 19.416C15.3355 19.416 16.1568 19.0426 16.9888 18.296C17.8421 17.528 18.6101 16.5893 19.2928 15.48L18.6208 15C18.0661 15.704 17.5328 16.28 17.0208 16.728C16.5088 17.1546 16.0395 17.368 15.6128 17.368C15.2075 17.368 14.8768 17.2186 14.6208 16.92C14.3861 16.6 14.1728 16.0773 13.9808 15.352L12.8117 11.0177C13.0947 10.571 13.3778 10.1384 13.6608 9.71997C14.1515 8.97331 14.6421 8.27997 15.1328 7.63997C15.6235 6.97864 16.1141 6.37064 16.6048 5.81598C16.8233 5.53786 17.0326 5.31525 17.2326 5.14812L17.5648 5.68797C17.8208 6.11464 18.0768 6.4133 18.3328 6.58397C18.8726 6.91619 19.62 6.96081 20.0928 6.48798C20.7903 5.72706 20.3832 4.56662 19.5808 4.05597C19.1328 3.75731 18.6954 3.60797 18.2688 3.60797C17.7781 3.60797 17.3408 3.71465 16.9568 3.92798C16.5728 4.11996 16.1568 4.4933 15.7088 5.04797C15.2608 5.62398 14.6848 6.42397 13.9808 7.44797C13.5091 8.1555 13.0119 8.9547 12.4893 9.84555L11.5488 6.35997C11.2501 5.33597 10.9301 4.62131 10.5888 4.21597C10.2688 3.81064 9.79945 3.60797 9.18079 3.60797C8.7328 3.60797 8.2848 3.74664 7.8368 4.02397C7.38877 4.3013 6.95145 4.7173 6.52479 5.27197C6.11945 5.82664 5.7248 6.54131 5.3408 7.41597L5.98078 7.86397C6.51411 6.94664 6.98347 6.33864 7.38877 6.03998C7.79411 5.7413 8.10346 5.59196 8.31678 5.59196C8.63679 5.59196 8.87147 5.73064 9.02079 6.00797C9.17011 6.26398 9.3408 6.71198 9.53278 7.35197L10.841 12.073C10.5696 12.5089 10.3042 12.9299 10.0448 13.336C9.55412 14.0826 9.05277 14.7866 8.54078 15.448C8.05012 16.1093 7.54878 16.728 7.03678 17.304C6.81039 17.5757 6.55034 17.7979 6.26951 18.0094L5.88477 17.24C5.60746 16.728 5.35145 16.3973 5.1168 16.248C4.61601 15.9293 3.98677 15.9595 3.51679 16.312C2.5428 16.9113 3.1099 18.3344 3.86878 18.872C4.40211 19.2346 4.96745 19.416 5.5648 19.416C5.99146 19.416 6.38612 19.32 6.74879 19.128C7.11146 18.9573 7.47413 18.648 7.8368 18.2C8.43412 17.4746 9.07414 16.5893 9.75678 15.544C10.2014 14.8493 10.6731 14.0778 11.1719 13.2294L12.2528 16.984C12.4448 17.6453 12.6474 18.1573 12.8608 18.52C13.0741 18.8613 13.3195 19.096 13.5968 19.224Z" fill="currentColor"/>
</svg>
