<svg width="24" height="24" viewBox="0 0 24 24" fill="none" xmlns="http://www.w3.org/2000/svg">
<path fill-rule="evenodd" clip-rule="evenodd" d="M3.25 8C3.25 5.37665 5.37665 3.25 8 3.25H16.003C18.6242 3.25 20.7511 5.37101 20.7525 7.99382C20.7538 10.451 20.7552 13.5893 20.7549 16.0482C20.7546 18.6559 18.6486 20.75 16.0448 20.75H8C5.37665 20.75 3.25 18.6233 3.25 16V8ZM8 4.75C6.20507 4.75 4.75 6.20507 4.75 8V16C4.75 17.7949 6.20507 19.25 8 19.25H16.0448C17.8241 19.25 19.2547 17.8235 19.2549 16.0481C19.2552 13.5897 19.2538 10.4517 19.2525 7.99463C19.2515 6.20147 17.7977 4.75 16.003 4.75H8Z" fill="currentColor"/>
<path fill-rule="evenodd" clip-rule="evenodd" d="M8.8368 14.6024C7.4018 14.6024 6.2348 13.4344 6.2348 12.0004C6.2348 10.5654 7.4018 9.39844 8.8368 9.39844C9.96001 9.39922 10.917 10.1124 11.2814 11.1086C11.3117 11.1914 11.3888 11.2495 11.477 11.2495H17.0097C17.4237 11.2495 17.7597 11.5855 17.7597 11.9995V13.8525C17.7597 14.2665 17.4237 14.6025 17.0097 14.6025C16.5957 14.6025 16.2597 14.2665 16.2597 13.8525V12.9495C16.2597 12.8391 16.1702 12.7495 16.0597 12.7495H15.1315C15.021 12.7495 14.9315 12.8391 14.9315 12.9495V13.8525C14.9315 14.2665 14.5955 14.6025 14.1815 14.6025C13.7675 14.6025 13.4315 14.2665 13.4315 13.8525V12.9495C13.4315 12.8391 13.3419 12.7495 13.2315 12.7495H11.4775C11.3892 12.7495 11.3122 12.8077 11.2819 12.8906C10.9175 13.888 9.95913 14.6024 8.8368 14.6024ZM8.8388 10.8984C8.2288 10.8984 7.7348 11.3924 7.7348 12.0004C7.7348 12.6084 8.2288 13.1024 8.8368 13.1024C9.4438 13.1024 9.9388 12.6084 9.9388 12.0004C9.9388 11.3934 9.4448 10.8994 8.8388 10.8984Z" fill="currentColor"/>
</svg>
