<svg width="24" height="24" viewBox="0 0 24 24" fill="none" xmlns="http://www.w3.org/2000/svg">
<path d="M8.58333 8.58333H4.5C3.80964 8.58333 3.25 9.14298 3.25 9.83333V14.1667C3.25 14.857 3.80965 15.4167 4.5 15.4167H8.58333V19.5C8.58333 20.1904 9.14298 20.75 9.83333 20.75H14.1667C14.857 20.75 15.4167 20.1904 15.4167 19.5V15.4167H19.5C20.1904 15.4167 20.75 14.857 20.75 14.1667V9.83333C20.75 9.14298 20.1904 8.58333 19.5 8.58333H15.4167V4.5C15.4167 3.80964 14.857 3.25 14.1667 3.25H9.83333C9.14298 3.25 8.58333 3.80965 8.58333 4.5V8.58333Z" stroke="currentColor" stroke-width="1.5"/>
</svg>
