<svg width="24" height="24" viewBox="0 0 24 24" fill="none" xmlns="http://www.w3.org/2000/svg">
<path fill-rule="evenodd" clip-rule="evenodd" d="M11 2.25C6.16751 2.25 2.25 6.16751 2.25 11C2.25 15.8325 6.16751 19.75 11 19.75C13.1462 19.75 15.112 18.9773 16.6342 17.6949L19.9697 21.0303C20.2626 21.3232 20.7374 21.3232 21.0303 21.0303C21.3232 20.7374 21.3232 20.2626 21.0303 19.9697L17.6949 16.6342C18.9773 15.112 19.75 13.1462 19.75 11C19.75 6.16751 15.8325 2.25 11 2.25ZM3.75 11C3.75 6.99594 6.99594 3.75 11 3.75C15.0041 3.75 18.25 6.99594 18.25 11C18.25 15.0041 15.0041 18.25 11 18.25C6.99594 18.25 3.75 15.0041 3.75 11Z" fill="currentColor"/>
</svg>
