<svg width="24" height="24" viewBox="0 0 24 24" fill="none" xmlns="http://www.w3.org/2000/svg">
<path d="M8.5005 8.75C8.5005 9.30228 8.05279 9.75 7.5005 9.75C6.94822 9.75 6.5005 9.30228 6.5005 8.75C6.5005 8.19771 6.94822 7.75 7.5005 7.75C8.05279 7.75 8.5005 8.19771 8.5005 8.75Z" fill="currentColor"/>
<path d="M17.5005 8.75C17.5005 9.30228 17.0528 9.75 16.5005 9.75C15.9482 9.75 15.5005 9.30228 15.5005 8.75C15.5005 8.19772 15.9482 7.75 16.5005 7.75C17.0528 7.75 17.5005 8.19772 17.5005 8.75Z" fill="currentColor"/>
<path fill-rule="evenodd" clip-rule="evenodd" d="M10.0883 10.5911C11.0906 11.9123 12.9073 11.9123 13.9095 10.5911C14.7682 9.45909 9.24565 9.48025 10.0883 10.5911Z" fill="currentColor"/>
<path fill-rule="evenodd" clip-rule="evenodd" d="M4.38882 5.73855C6.15214 3.46593 8.90564 2 12.0012 2C15.0965 2 17.8498 3.46566 19.6132 5.73794L21.0013 4.86509C21.3519 4.6446 21.8149 4.75011 22.0354 5.10076C22.2559 5.45142 22.1504 5.91442 21.7997 6.13491L20.4386 6.99079C21.2046 8.37626 21.6406 9.96889 21.6406 11.6608C21.6406 12.6942 21.0775 13.7473 19.9651 14.1124C19.3477 14.3151 18.4979 14.5398 17.3811 14.726C19.671 16.2422 21.277 18.6997 21.6348 21.5465C21.6864 21.9575 21.3951 22.3325 20.9841 22.3842C20.5732 22.4358 20.1981 22.1445 20.1465 21.7336C20.079 21.1967 19.9587 20.6758 19.7908 20.1764C17.8147 21.4723 15.0332 22.25 12.0001 22.25C8.9661 22.25 6.18618 21.4721 4.2112 20.1776C4.04356 20.6767 3.92339 21.1971 3.85598 21.7336C3.80433 22.1445 3.42929 22.4358 3.01831 22.3842C2.60733 22.3325 2.31603 21.9575 2.36768 21.5465C2.72544 18.6997 4.3314 16.2422 6.62141 14.726C5.50454 14.5398 4.65477 14.3151 4.03733 14.1124C2.92494 13.7473 2.36183 12.6942 2.36183 11.6608C2.36183 9.96917 2.79772 8.37678 3.56347 6.99147L2.20127 6.13491C1.85061 5.91442 1.7451 5.45142 1.96559 5.10076C2.18608 4.75011 2.64909 4.6446 2.99974 4.86509L4.38882 5.73855ZM5.18254 7.20778C5.1969 7.1891 5.21051 7.16958 5.2233 7.14924C5.22985 7.13882 5.23611 7.12831 5.24209 7.11771C6.70391 4.93776 9.18646 3.5 12.0012 3.5C14.8108 3.5 17.2893 4.93243 18.7522 7.1056C18.7602 7.12032 18.7687 7.13487 18.7777 7.14924C18.793 7.17359 18.8095 7.19677 18.827 7.21873C19.6578 8.49807 20.1406 10.0242 20.1406 11.6608C20.1406 12.1886 19.8684 12.5655 19.4974 12.6872C18.2917 13.0829 15.925 13.6246 12.0012 13.6246C8.07746 13.6246 5.71081 13.0829 4.50506 12.6872C4.13409 12.5655 3.86183 12.1886 3.86183 11.6608C3.86183 10.0195 4.34742 8.48936 5.18254 7.20778ZM9.3102 15.0351C9.2619 15.0673 9.20907 15.0943 9.15218 15.1152C7.30809 15.792 5.77775 17.1062 4.83088 18.7858C6.51262 19.9644 9.07697 20.75 12.0001 20.75C14.9261 20.75 17.4903 19.963 19.1709 18.7846C18.237 17.1286 16.7359 15.828 14.926 15.1434C14.8531 15.1159 14.787 15.0782 14.7288 15.0326C13.9089 15.0906 13.0016 15.1246 12.0012 15.1246C11.0157 15.1246 10.1205 15.0916 9.3102 15.0351Z" fill="currentColor"/>
</svg>
