<svg width="24" height="24" viewBox="0 0 24 24" fill="none" xmlns="http://www.w3.org/2000/svg">
<path d="M17.3406 15.1654C19.7832 12.723 20.1891 9.16903 18.2473 7.22731C16.3057 5.28579 12.7518 5.69168 10.3094 8.13399C7.86694 10.5764 8.57347 15.2426 9.40284 16.0721C10.0731 16.7423 14.8983 17.6078 17.3406 15.1654Z" fill="#F89939"/>
<path d="M7.31816 11.6363C5.90116 10.2193 3.83899 9.98335 2.71213 11.1101C1.58556 12.2368 1.8211 14.2993 3.23839 15.716C4.65567 17.1334 7.36322 16.7234 7.84413 16.2421C8.23328 15.8536 8.7356 13.0534 7.31816 11.6363Z" fill="#3499CD"/>
<path d="M12.2073 14.5667C11.957 14.7971 11.7374 14.9672 11.5487 15.0764C11.3599 15.186 11.1799 15.2408 11.0086 15.2408C10.8116 15.2408 10.6527 15.1644 10.5322 15.0116C10.4114 14.8586 10.3513 14.6535 10.3513 14.3955C10.3513 14.0089 10.4351 13.5447 10.6027 13.0035C10.77 12.4619 10.9737 11.9628 11.213 11.5062L11.9147 11.2465C11.9367 11.2391 11.9534 11.2354 11.9645 11.2354C12.0177 11.2354 12.0617 11.2746 12.0955 11.3527C12.1296 11.4312 12.1468 11.5366 12.1468 11.6692C12.1468 12.0448 12.0603 12.4085 11.887 12.7602C11.7138 13.1121 11.4432 13.4876 11.0749 13.8873C11.0601 14.0788 11.0528 14.2104 11.0528 14.2822C11.0528 14.4426 11.0822 14.5694 11.1411 14.6634C11.2001 14.7575 11.2783 14.8042 11.3759 14.8042C11.4755 14.8042 11.5814 14.7686 11.6937 14.6968C11.8059 14.6248 11.9771 14.4758 12.2073 14.2491V14.5667H12.2073ZM11.1495 13.4869C11.3833 13.2269 11.5732 12.9353 11.7186 12.6127C11.864 12.2899 11.9366 12.0124 11.9366 11.7798C11.9366 11.712 11.9266 11.6569 11.9064 11.6155C11.8862 11.574 11.8602 11.5532 11.829 11.5532C11.7611 11.5532 11.662 11.7228 11.5321 12.0621C11.4022 12.4014 11.2747 12.8764 11.1495 13.4869Z" fill="#010101"/>
<path d="M14.2737 14.5668C14.0399 14.7972 13.83 14.9673 13.6439 15.0766C13.4579 15.1862 13.2528 15.2409 13.028 15.2409C12.7775 15.2409 12.5754 15.1608 12.4214 15.0008C12.2678 14.8403 12.191 14.6296 12.191 14.3681C12.191 13.9777 12.3263 13.6246 12.5973 13.3088C12.8677 12.9928 13.168 12.835 13.4976 12.835C13.6689 12.835 13.8059 12.8793 13.9092 12.9676C14.0123 13.0561 14.0639 13.1721 14.0639 13.3157C14.0639 13.697 13.6588 14.0062 12.8485 14.2438C12.9221 14.6027 13.1145 14.7825 13.4258 14.7825C13.5474 14.7825 13.6633 14.7498 13.7737 14.6846C13.8844 14.6191 14.0509 14.4739 14.2738 14.2494V14.5668H14.2737ZM12.8263 14.0559C13.2975 13.9232 13.5334 13.6785 13.5334 13.3212C13.5334 13.1444 13.4688 13.0561 13.3401 13.0561C13.2185 13.0561 13.1026 13.1485 12.9922 13.3337C12.8814 13.5187 12.8263 13.7593 12.8263 14.0559Z" fill="#010101"/>
<path d="M17.2238 14.5669C16.9291 14.8468 16.7182 15.0293 16.5913 15.1142C16.4642 15.1988 16.3427 15.2411 16.2266 15.2411C15.9356 15.2411 15.7985 14.9843 15.815 14.4704C15.6309 14.7337 15.4609 14.9279 15.3053 15.0534C15.1498 15.1786 14.9892 15.2411 14.8232 15.2411C14.6614 15.2411 14.5238 15.1653 14.4104 15.0133C14.2969 14.8614 14.2406 14.675 14.2406 14.4538C14.2406 14.1778 14.3164 13.9144 14.4682 13.6638C14.6203 13.4133 14.815 13.2109 15.0525 13.0563C15.29 12.9016 15.5001 12.8241 15.6822 12.8241C15.9125 12.8241 16.0737 12.93 16.1658 13.1417L16.7303 12.8297H16.8853L16.6414 13.639C16.5162 14.0461 16.4534 14.3251 16.4534 14.4761C16.4534 14.6343 16.5094 14.7135 16.6219 14.7135C16.6934 14.7135 16.7726 14.6754 16.8592 14.5989C16.9458 14.5223 17.0671 14.4059 17.2236 14.2494V14.5669H17.2238ZM15.2018 14.719C15.3859 14.719 15.5594 14.5621 15.7227 14.2482C15.8857 13.9341 15.9671 13.6443 15.9671 13.3792C15.9671 13.2762 15.9439 13.1955 15.8981 13.1376C15.8519 13.0794 15.7902 13.0506 15.713 13.0506C15.5288 13.0506 15.3541 13.2071 15.1896 13.5202C15.0248 13.8333 14.9422 14.1215 14.9422 14.3846C14.9422 14.4842 14.9667 14.5648 15.0155 14.6265C15.0642 14.6882 15.1261 14.719 15.2018 14.719Z" fill="#010101"/>
<path d="M19.2873 14.5669C18.825 15.0198 18.4686 15.2465 18.2182 15.2465C18.1058 15.2465 18.0109 15.1991 17.9337 15.1045C17.8565 15.0096 17.8176 14.8921 17.8176 14.7521C17.8176 14.4924 17.9568 14.1445 18.2349 13.708C18.0985 13.778 17.9495 13.8266 17.7874 13.8543C17.6676 14.0753 17.4797 14.3129 17.2238 14.5668H17.1604V14.3185C17.304 14.1693 17.4338 14.009 17.5499 13.8377C17.3913 13.7677 17.3122 13.6637 17.3122 13.5257C17.3122 13.3837 17.3604 13.2324 17.4574 13.071C17.554 12.9101 17.687 12.8296 17.8565 12.8296C18.0002 12.8296 18.0719 12.903 18.0719 13.0504C18.0719 13.1665 18.0305 13.3321 17.9475 13.5477C18.2531 13.5144 18.5202 13.2808 18.7486 12.846L18.9999 12.8349L18.743 13.5421C18.6363 13.8404 18.5672 14.0437 18.536 14.1512C18.5047 14.2588 18.4889 14.3543 18.4889 14.4371C18.4889 14.5145 18.507 14.5764 18.5427 14.6221C18.5786 14.6685 18.6271 14.6913 18.6878 14.6913C18.7541 14.6913 18.8177 14.6686 18.8785 14.6238C18.9392 14.5782 19.0755 14.4536 19.2874 14.2492V14.5669H19.2873Z" fill="#010101"/>
<path d="M22 14.5668C21.5746 15.0164 21.2098 15.241 20.9061 15.241C20.7827 15.241 20.6832 15.1978 20.6077 15.1111C20.5321 15.0247 20.4944 14.9087 20.4944 14.7632C20.4944 14.5662 20.5755 14.265 20.7376 13.8601C20.8241 13.6427 20.8675 13.5044 20.8675 13.4457C20.8675 13.3867 20.8443 13.3572 20.7985 13.3572C20.7727 13.3572 20.7385 13.3702 20.6962 13.3958C20.6573 13.4215 20.6123 13.4578 20.5607 13.5037C20.5148 13.5459 20.4631 13.5975 20.406 13.6581C20.3562 13.7101 20.3027 13.7689 20.246 13.835L20.0911 14.0147C20.0231 14.0975 19.9806 14.1848 19.9641 14.277C19.9364 14.4335 19.9181 14.5773 19.9087 14.7082C19.9031 14.8056 19.9005 14.9371 19.9005 15.1032L19.29 15.2466C19.2698 14.998 19.2595 14.8128 19.2595 14.6915C19.2595 14.395 19.2941 14.1141 19.3632 13.849C19.4323 13.5836 19.5431 13.2854 19.6961 12.9538L20.37 12.8241C20.2282 13.2054 20.1353 13.5054 20.0911 13.7244C20.3931 13.3875 20.6325 13.1543 20.81 13.0242C20.9872 12.8943 21.145 12.8297 21.2829 12.8297C21.3766 12.8297 21.4549 12.8651 21.5173 12.9358C21.58 13.0066 21.6111 13.0956 21.6111 13.2018C21.6111 13.3785 21.5319 13.6695 21.3738 14.0748C21.265 14.3527 21.2106 14.5331 21.2106 14.6164C21.2106 14.7273 21.2559 14.7826 21.3463 14.7826C21.4809 14.7826 21.699 14.6049 22 14.2495V14.5668Z" fill="#010101"/>
<path d="M13.2525 11.6077C13.2568 11.6564 13.269 11.6938 13.2891 11.7198C13.3259 11.767 13.3898 11.7905 13.4809 11.7905C13.535 11.7905 13.5827 11.7789 13.6239 11.7556C13.6651 11.7317 13.6857 11.6952 13.6857 11.6459C13.6857 11.6085 13.6692 11.58 13.6361 11.5605C13.615 11.5486 13.5733 11.5348 13.5109 11.5191L13.3947 11.4898C13.3205 11.4714 13.2658 11.4508 13.2305 11.428C13.1677 11.3885 13.1363 11.3338 13.1363 11.2639C13.1363 11.1815 13.1658 11.1149 13.2248 11.064C13.2844 11.013 13.3644 10.9875 13.4646 10.9875C13.5957 10.9875 13.6903 11.026 13.7483 11.103C13.7846 11.1517 13.8022 11.2043 13.8011 11.2606H13.6629C13.6602 11.2276 13.6486 11.1975 13.628 11.1704C13.5944 11.132 13.5361 11.1127 13.4532 11.1127C13.398 11.1127 13.356 11.1233 13.3273 11.1444C13.2991 11.1655 13.285 11.1935 13.285 11.2281C13.285 11.266 13.3037 11.2964 13.3411 11.3191C13.3628 11.3327 13.3947 11.3446 13.437 11.3549L13.5337 11.3785C13.6388 11.404 13.7093 11.4286 13.745 11.4524C13.8019 11.4898 13.8303 11.5486 13.8303 11.6288C13.8303 11.7063 13.8008 11.7732 13.7418 11.8295C13.6832 11.8859 13.5938 11.9141 13.4735 11.9141C13.3441 11.9141 13.2522 11.8848 13.198 11.8263C13.1444 11.7672 13.1157 11.6944 13.1119 11.6077H13.2525Z" fill="white"/>
<path d="M14.3334 10.9851C14.4315 10.9851 14.5111 11.009 14.5724 11.0566C14.6341 11.1043 14.6713 11.1864 14.6837 11.3029H14.5415C14.5328 11.2493 14.513 11.2048 14.4822 11.1696C14.4513 11.1339 14.4017 11.116 14.3334 11.116C14.2402 11.116 14.1736 11.1615 14.1335 11.2525C14.1075 11.3115 14.0945 11.3844 14.0945 11.4711C14.0945 11.5584 14.1129 11.6318 14.1498 11.6914C14.1866 11.751 14.2446 11.7808 14.3237 11.7808C14.3844 11.7808 14.4323 11.7624 14.4675 11.7255C14.5033 11.6881 14.5279 11.6372 14.5415 11.5727H14.6837C14.6674 11.6881 14.6268 11.7726 14.5618 11.8263C14.4968 11.8794 14.4136 11.9059 14.3123 11.9059C14.1985 11.9059 14.1078 11.8645 14.04 11.7816C13.9723 11.6981 13.9384 11.5941 13.9384 11.4695C13.9384 11.3167 13.9755 11.1978 14.0498 11.1127C14.124 11.0276 14.2186 10.9851 14.3334 10.9851Z" fill="white"/>
<path d="M14.83 11.0144H14.9787V11.8808H14.83V11.0144ZM14.83 10.6869H14.9787V10.8527H14.83V10.6869Z" fill="white"/>
<path d="M15.1973 10.6869H15.3379V11.3802L15.7134 11.0104H15.9003L15.5671 11.3363L15.919 11.8808H15.7321L15.4606 11.4419L15.3379 11.5541V11.8808H15.1973V10.6869Z" fill="white"/>
<path d="M16.0328 11.0144H16.1815V11.8808H16.0328V11.0144ZM16.0328 10.6869H16.1815V10.8527H16.0328V10.6869Z" fill="white"/>
<path d="M16.4327 10.7673H16.5806V11.0103H16.7196V11.1298H16.5806V11.6979C16.5806 11.7283 16.5909 11.7486 16.6115 11.7589C16.6229 11.7648 16.6419 11.7678 16.6684 11.7678C16.6754 11.7678 16.683 11.7678 16.6912 11.7678C16.6993 11.7673 16.7088 11.7665 16.7196 11.7654V11.8808C16.7028 11.8856 16.6852 11.8892 16.6668 11.8913C16.6489 11.8935 16.6294 11.8946 16.6083 11.8946C16.54 11.8946 16.4937 11.8773 16.4693 11.8426C16.4449 11.8074 16.4327 11.7619 16.4327 11.7061V11.1298H16.3148V11.0103H16.4327V10.7673Z" fill="white"/>
</svg>
