<svg width="24" height="24" viewBox="0 0 24 24" fill="none" xmlns="http://www.w3.org/2000/svg">
<path d="M7 3.25C4.92893 3.25 3.25 4.92893 3.25 7V9.25C3.25 9.66421 3.58579 10 4 10C4.41421 10 4.75 9.66421 4.75 9.25V7C4.75 5.75736 5.75736 4.75 7 4.75H9.1387C9.78751 4.75 10.4047 5.03008 10.832 5.51836L11.088 5.81089C11.6101 6.40768 12.3645 6.75 13.1575 6.75H17C18.2426 6.75 19.25 7.75736 19.25 9V17C19.25 18.2426 18.2426 19.25 17 19.25H7C5.75736 19.25 4.75 18.2426 4.75 17V16.25C4.75 15.8358 4.41421 15.5 4 15.5C3.58579 15.5 3.25 15.8358 3.25 16.25V17C3.25 19.0711 4.92893 20.75 7 20.75H17C19.0711 20.75 20.75 19.0711 20.75 17V9C20.75 6.92893 19.0711 5.25 17 5.25H13.1575C12.7971 5.25 12.4542 5.0944 12.2168 4.82313L11.9609 4.53061C11.2488 3.7168 10.2201 3.25 9.1387 3.25H7Z" fill="currentColor"/>
<path d="M14.0289 12.2189C14.1656 12.3556 14.2489 12.5582 14.2489 12.75C14.2489 12.9531 14.1733 13.1358 14.0305 13.2795L14.0289 13.2811L11.78 15.53C11.4867 15.8233 11.0111 15.8233 10.7178 15.53C10.4245 15.2367 10.4245 14.7611 10.7178 14.4678L11.6845 13.5011H2.75111C2.33628 13.5011 2 13.1648 2 12.75C2 12.3352 2.33628 11.9989 2.75111 11.9989H11.6845L10.7178 11.0322C10.4245 10.7389 10.4245 10.2633 10.7178 9.96999C11.0111 9.67667 11.4867 9.67667 11.78 9.97L14.0289 12.2189Z" fill="currentColor"/>
</svg>
