<svg width="24" height="24" viewBox="0 0 24 24" fill="none" xmlns="http://www.w3.org/2000/svg">
<path d="M10.7411 4.86017C9.53622 5.07262 8.45565 5.57024 7.55443 6.27092C7.17788 6.56367 6.83248 6.89202 6.52245 7.25001H9C9.41422 7.25001 9.75 7.58579 9.75 8.00001C9.75 8.41422 9.41422 8.75001 9 8.75001H5C4.58579 8.75001 4.25 8.41422 4.25 8.00001V4.00001C4.25 3.58579 4.58579 3.25001 5 3.25001C5.41422 3.25001 5.75 3.58579 5.75 4.00001V5.87543C6.02553 5.59383 6.32065 5.33014 6.63374 5.08672C7.72322 4.23968 9.02934 3.63885 10.4806 3.38296C15.2397 2.54381 19.7779 5.72153 20.6171 10.4806C20.689 10.8885 20.4166 11.2775 20.0087 11.3494C19.6008 11.4214 19.2118 11.149 19.1399 10.7411C18.4446 6.79785 14.6843 4.16487 10.7411 4.86017Z" fill="currentColor"/>
<path d="M3.9913 12.6506C4.39922 12.5787 4.78822 12.8511 4.86015 13.259C5.55544 17.2022 9.31572 19.8352 13.259 19.1399C14.965 18.8391 16.4253 17.9653 17.4776 16.75H15C14.5858 16.75 14.25 16.4142 14.25 16C14.25 15.5858 14.5858 15.25 15 15.25H19C19.4142 15.25 19.75 15.5858 19.75 16V20C19.75 20.4142 19.4142 20.75 19 20.75C18.5858 20.75 18.25 20.4142 18.25 20V18.1246C17.0161 19.3856 15.3897 20.2873 13.5194 20.6171C8.76035 21.4563 4.22209 18.2785 3.38293 13.5195C3.31101 13.1115 3.58338 12.7225 3.9913 12.6506Z" fill="currentColor"/>
</svg>
