<svg width="24" height="24" viewBox="0 0 24 24" fill="none" xmlns="http://www.w3.org/2000/svg">
<path fill-rule="evenodd" clip-rule="evenodd" d="M3.75 3C3.75 2.58579 3.41421 2.25 3 2.25C2.58579 2.25 2.25 2.58579 2.25 3V9.73288C2.24976 9.74392 2.24976 9.75495 2.25 9.76596L2.25 18.75C2.25 18.7499 2.25 18.7501 2.25 18.75L2.25 18.9871C2.24984 18.9961 2.24984 19.0051 2.25 19.0142V21C2.25 21.4142 2.58579 21.75 3 21.75C3.41421 21.75 3.75 21.5 3.75 21V19.5H11.25V21C11.25 21.4142 11.5858 21.75 12 21.75C12.4142 21.75 12.75 21.5 12.75 21V19.5H20.25V21C20.25 21.4142 20.5858 21.75 21 21.75C21.4142 21.75 21.75 21.5 21.75 21V19.017C21.7502 19.0061 21.7502 18.9952 21.75 18.9842V9.76414C21.7502 9.75434 21.7502 9.74452 21.75 9.73469V5.26639C21.7503 5.25509 21.7503 5.24378 21.75 5.23245V3C21.75 2.58579 21.4142 2.25 21 2.25C20.5858 2.25 20.25 2.58579 20.25 3V4.78648L12.75 8.53648V3C12.75 2.58579 12.4142 2.25 12 2.25C11.5858 2.25 11.25 2.58579 11.25 3V9H3.75V3ZM3.75 10.9635V17.7561L10.359 14.268L3.75 10.9635ZM11.25 10.5H6.17703L11.25 13.0365V10.5ZM11.25 15.4939L6.50159 18H11.25V15.4939ZM12.75 18V15.4939L17.4985 18H12.75ZM12.75 13.0365V10.2135L20.25 6.46354V9.28646L12.75 13.0365ZM20.25 10.9635L13.641 14.268L20.25 17.7561V10.9635Z" fill="currentColor"/>
</svg>
