<svg width="24" height="24" viewBox="0 0 24 24" fill="none" xmlns="http://www.w3.org/2000/svg">
<path fill-rule="evenodd" clip-rule="evenodd" d="M11.2153 2.75C10.8011 2.75 10.4653 3.08579 10.4653 3.5V5.75H7.71533C7.30112 5.75 6.96533 6.08579 6.96533 6.5V8.75H4.21533C3.80112 8.75 3.46533 9.08579 3.46533 9.5V11.7501H2.71239C1.75753 11.7501 0.926738 12.5396 1.00513 13.5593C1.24611 16.6937 2.57205 18.8898 4.50894 20.1993C6.42228 21.4929 8.84187 21.8615 11.1918 21.5433C15.3999 20.9735 18.892 18.0934 20.2517 14.2757C21.261 14.2579 22.0005 13.8924 22.519 13.3586C23.1001 12.7604 23.3277 12.0245 23.4366 11.6436C23.5033 11.4101 23.4528 11.1587 23.3011 10.969C23.0395 10.6421 22.6984 10.3174 22.1733 10.0868C21.7768 9.91269 21.307 9.80596 20.7354 9.76693C20.1101 8.35657 19.0974 7.74736 18.4 7.34888C18.0716 7.16122 17.6549 7.24746 17.4279 7.55006C16.8914 8.26547 16.5184 9.11782 16.3481 9.94212C16.2334 10.4976 16.202 11.0861 16.3087 11.6297C16.1447 11.6726 15.9282 11.7061 15.6345 11.7269C15.5796 11.7308 15.5232 11.7343 15.4653 11.7372V3.5C15.4653 3.08579 15.1295 2.75 14.7153 2.75H11.2153ZM13.9653 7.25H11.9653V8.75H13.9653V7.25ZM13.9653 5.75V4.25H11.9653V5.75H13.9653ZM11.9653 10.25H13.9653V11.75H11.9653V10.25ZM10.4653 7.25V8.75H8.46533V7.25H10.4653ZM10.4653 10.25H8.46533V11.75H10.4653V10.25ZM6.96533 11.75V10.25H4.96533V11.75H6.96533ZM18.2613 9.0288C18.0525 9.4211 17.9007 9.8408 17.8171 10.2455C17.6871 10.8752 17.7401 11.3724 17.8863 11.6646C18.0402 11.9725 17.9648 12.3455 17.7035 12.5695C17.1645 13.0315 16.4865 13.1702 15.7408 13.2232C15.194 13.262 14.5116 13.2581 13.6936 13.2534C13.4052 13.2518 13.1 13.2501 12.7779 13.2501H2.71239C2.64274 13.2501 2.58545 13.278 2.54806 13.3166C2.51267 13.3531 2.49698 13.3957 2.50072 13.4443C2.71119 16.1819 3.83794 17.935 5.34909 18.9567C6.88379 19.9943 8.90759 20.3389 10.9905 20.0568C14.8261 19.5375 17.9607 16.8083 18.9959 13.2884C19.0985 12.9395 19.4368 12.7145 19.7983 12.7546C20.7156 12.8566 21.177 12.5874 21.4431 12.3134C21.6364 12.1144 21.7664 11.8721 21.8611 11.6326C21.777 11.5666 21.6826 11.5096 21.5701 11.4602C21.3099 11.3459 20.9005 11.2501 20.2154 11.2501C19.8926 11.2501 19.606 11.0435 19.5039 10.7372C19.2132 9.86526 18.75 9.3779 18.2613 9.0288Z" fill="currentColor"/>
</svg>
