<svg xmlns="http://www.w3.org/2000/svg" width="24" height="24" viewBox="0 0 24 24" fill="none">
  <path fill-rule="evenodd" clip-rule="evenodd" d="M20.9828 9.2399C21.9378 10.1952 21.4793 11.7288 20.3498 12.2008C18.8334 12.8346 17.393 13.9748 16.5419 14.976C15.684 15.9852 14.6814 17.6021 14.0927 19.2358C13.6623 20.4302 12.1037 20.8641 11.1571 19.9172L8.19794 16.9571L3.77992 21.3765C3.48712 21.6694 3.0124 21.6694 2.7196 21.3765C2.4268 21.0836 2.4268 20.6087 2.7196 20.3158L7.13761 15.8964L4.08832 12.8461C3.14177 11.8993 3.57546 10.3402 4.76952 9.90964C6.40273 9.32079 8.0191 8.31782 9.02792 7.45971C10.0288 6.60832 11.1687 5.16741 11.8023 3.65052C12.2741 2.52073 13.8073 2.06208 14.7622 3.01736L20.9828 9.2399ZM19.7718 10.8168C19.8839 10.7699 19.9617 10.6718 19.988 10.5595C20.0131 10.4523 19.9862 10.3643 19.9225 10.3006L13.7019 4.07802C13.6382 4.01425 13.5502 3.9874 13.443 4.01252C13.3308 4.03882 13.2327 4.11663 13.1859 4.22879C12.4744 5.93216 11.5704 7.18928 9.99931 8.60243C8.41738 10.0253 7.00232 10.6991 5.27799 11.3208C5.17555 11.3577 5.10727 11.4398 5.08333 11.5384C5.06012 11.634 5.08322 11.72 5.14864 11.7855L12.2175 18.8566C12.2829 18.922 12.3689 18.9451 12.4645 18.9219C12.563 18.8979 12.6451 18.8296 12.682 18.7272C13.3035 17.0023 13.9771 15.5868 15.3995 14.0043C16.8122 12.4327 18.0689 11.5284 19.7718 10.8168Z" fill="currentColor"/>
</svg>
