<svg width="24" height="24" viewBox="0 0 24 24" fill="none" xmlns="http://www.w3.org/2000/svg">
<path fill-rule="evenodd" clip-rule="evenodd" d="M12.75 2C12.75 1.58579 12.4142 1.25 12 1.25C11.5858 1.25 11.25 1.58579 11.25 2V4.28582C9.34061 4.46918 7.63359 5.34536 6.38332 6.66001L4.58165 5.25239C4.25524 4.99737 3.78391 5.05524 3.52889 5.38165C3.27388 5.70805 3.33175 6.17939 3.65815 6.4344L5.45906 7.84143C4.69354 9.043 4.25001 10.4697 4.25001 12C4.25001 12.3404 4.27196 12.6757 4.31452 13.0046L2.08759 13.5187C1.68399 13.6119 1.43234 14.0146 1.52552 14.4182C1.6187 14.8218 2.02142 15.0735 2.42501 14.9803L4.65073 14.4664C5.24732 16.2449 6.47136 17.7354 8.05985 18.6751L7.09409 20.7462C6.91904 21.1216 7.08145 21.5678 7.45686 21.7429C7.83226 21.9179 8.2785 21.7555 8.45355 21.3801L9.41894 19.3098C10.2263 19.5949 11.095 19.75 12 19.75C12.905 19.75 13.7737 19.5949 14.5811 19.3098L15.5465 21.3801C15.7215 21.7555 16.1677 21.9179 16.5431 21.7429C16.9186 21.5678 17.081 21.1216 16.9059 20.7462L15.9401 18.6751C17.5286 17.7354 18.7527 16.2449 19.3493 14.4664L21.575 14.9803C21.9786 15.0735 22.3813 14.8218 22.4745 14.4182C22.5677 14.0146 22.316 13.6119 21.9124 13.5187L19.6855 13.0046C19.7281 12.6758 19.75 12.3404 19.75 12C19.75 10.4697 19.3065 9.043 18.5409 7.84143L20.3418 6.43441C20.6683 6.1794 20.7261 5.70806 20.4711 5.38166C20.2161 5.05525 19.7448 4.99738 19.4184 5.2524L17.6167 6.66001C16.3664 5.34536 14.6594 4.46918 12.75 4.28582V2ZM6.12124 14.1269C6.6014 15.4538 7.518 16.5717 8.69765 17.3073L10.2021 14.081C9.95621 13.8683 9.74839 13.6128 9.59026 13.326L6.12124 14.1269ZM9.25329 11.8644C9.26874 11.5463 9.33823 11.2424 9.45278 10.9617L6.64804 8.77036C6.07805 9.7129 5.75001 10.8181 5.75001 12C5.75001 12.2247 5.76186 12.4466 5.78498 12.6651L9.25329 11.8644ZM12.75 5.79454C14.1802 5.96558 15.4621 6.61964 16.4277 7.58892L13.6233 9.77999C13.3632 9.58946 13.0683 9.44355 12.75 9.35352V5.79454ZM17.352 8.77036L14.5472 10.9617C14.6618 11.2424 14.7313 11.5463 14.7467 11.8644L18.215 12.6651C18.2382 12.4466 18.25 12.2247 18.25 12C18.25 10.8181 17.922 9.7129 17.352 8.77036ZM10.3767 9.77999C10.6368 9.58946 10.9317 9.44355 11.25 9.35352V5.79454C9.81977 5.96558 8.53793 6.61964 7.57227 7.58892L10.3767 9.77999ZM12 18.25C11.3216 18.25 10.6684 18.1419 10.0568 17.942L11.5614 14.7152C11.7042 14.7381 11.8507 14.75 12 14.75C12.1493 14.75 12.2958 14.7381 12.4386 14.7152L13.9432 17.942C13.3316 18.1419 12.6784 18.25 12 18.25ZM15.3023 17.3073C16.482 16.5718 17.3986 15.4538 17.8788 14.1269L14.4098 13.3261C14.2516 13.6128 14.0438 13.8683 13.7979 14.081L15.3023 17.3073ZM12 10.75C11.3097 10.75 10.75 11.3096 10.75 12C10.75 12.6904 11.3097 13.25 12 13.25C12.6904 13.25 13.25 12.6904 13.25 12C13.25 11.3096 12.6904 10.75 12 10.75Z" fill="currentColor"/>
</svg>
