<svg width="24" height="24" viewBox="0 0 24 24" fill="none" xmlns="http://www.w3.org/2000/svg">
<path d="M13 4C13 4.82843 12.3284 5.5 11.5 5.5C10.6716 5.5 10 4.82843 10 4C10 3.17157 10.6716 2.5 11.5 2.5C12.3284 2.5 13 3.17157 13 4Z" fill="currentColor"/>
<path d="M4 13.5C4.82843 13.5 5.5 12.8284 5.5 12C5.5 11.1716 4.82843 10.5 4 10.5C3.17157 10.5 2.5 11.1716 2.5 12C2.5 12.8284 3.17157 13.5 4 13.5Z" fill="currentColor"/>
<path d="M21.5 12C21.5 12.8284 20.8284 13.5 20 13.5C19.1716 13.5 18.5 12.8284 18.5 12C18.5 11.1716 19.1716 10.5 20 10.5C20.8284 10.5 21.5 11.1716 21.5 12Z" fill="currentColor"/>
<path d="M11.5 21.5C12.3284 21.5 13 20.8284 13 20C13 19.1716 12.3284 18.5 11.5 18.5C10.6716 18.5 10 19.1716 10 20C10 20.8284 10.6716 21.5 11.5 21.5Z" fill="currentColor"/>
<path d="M8 11.25C7.58579 11.25 7.25 11.5858 7.25 12C7.25 12.4142 7.58579 12.75 8 12.75H16C16.4142 12.75 16.75 12.4142 16.75 12C16.75 11.5858 16.4142 11.25 16 11.25H8Z" fill="currentColor"/>
<path d="M20 15.25C20.4142 15.25 20.75 15.5858 20.75 16V17C20.75 19.0711 19.0711 20.75 17 20.75H16C15.5858 20.75 15.25 20.4142 15.25 20C15.25 19.5858 15.5858 19.25 16 19.25H17C18.2426 19.25 19.25 18.2426 19.25 17V16C19.25 15.5858 19.5858 15.25 20 15.25Z" fill="currentColor"/>
<path d="M3.25 16C3.25 15.5858 3.58579 15.25 4 15.25C4.41421 15.25 4.75 15.5858 4.75 16V17C4.75 18.2426 5.75736 19.25 7 19.25H8C8.41421 19.25 8.75 19.5858 8.75 20C8.75 20.4142 8.41421 20.75 8 20.75H7C4.92893 20.75 3.25 19.0711 3.25 17V16Z" fill="currentColor"/>
<path d="M20 8.75C20.4142 8.75 20.75 8.41421 20.75 8V7C20.75 4.92893 19.0711 3.25 17 3.25H16C15.5858 3.25 15.25 3.58579 15.25 4C15.25 4.41421 15.5858 4.75 16 4.75H17C18.2426 4.75 19.25 5.75736 19.25 7V8C19.25 8.41421 19.5858 8.75 20 8.75Z" fill="currentColor"/>
<path d="M3.25 8C3.25 8.41421 3.58579 8.75 4 8.75C4.41421 8.75 4.75 8.41421 4.75 8V7C4.75 5.75736 5.75736 4.75 7 4.75H8C8.41421 4.75 8.75 4.41421 8.75 4C8.75 3.58579 8.41421 3.25 8 3.25H7C4.92893 3.25 3.25 4.92893 3.25 7V8Z" fill="currentColor"/>
</svg>
