<svg width="24" height="24" viewBox="0 0 24 24" fill="none" xmlns="http://www.w3.org/2000/svg">
<path d="M7 18C7 17.5858 7.32119 17.25 7.71739 17.25H16.2826C16.6788 17.25 17 17.5858 17 18C17 18.4142 16.6788 18.75 16.2826 18.75H7.71739C7.32119 18.75 7 18.4142 7 18Z" fill="currentColor"/>
<path d="M7 14C7 13.5858 7.32119 13.25 7.71739 13.25H16.2826C16.6788 13.25 17 13.5858 17 14C17 14.4142 16.6788 14.75 16.2826 14.75H7.71739C7.32119 14.75 7 14.4142 7 14Z" fill="currentColor"/>
<path d="M7 10C7 9.58579 7.32119 9.25 7.71739 9.25H16.2826C16.6788 9.25 17 9.58579 17 10C17 10.4142 16.6788 10.75 16.2826 10.75H7.71739C7.32119 10.75 7 10.4142 7 10Z" fill="currentColor"/>
<path d="M7 6C7 5.58579 7.32119 5.25 7.71739 5.25H16.2826C16.6788 5.25 17 5.58579 17 6C17 6.41421 16.6788 6.75 16.2826 6.75H7.71739C7.32119 6.75 7 6.41421 7 6Z" fill="currentColor"/>
</svg>
