<svg width="24" height="24" viewBox="0 0 24 24" fill="none" xmlns="http://www.w3.org/2000/svg">
<path d="M7.68124 6.98089C8.22914 5.11287 9.95639 3.75 12 3.75C14.0436 3.75 15.7709 5.11287 16.3188 6.98089C16.6238 8.0209 17.4791 8.8762 18.5191 9.18124C20.3871 9.72914 21.75 11.4564 21.75 13.5C21.75 15.9853 19.7353 18 17.25 18H15.8182C15.404 18 15.0682 18.3358 15.0682 18.75C15.0682 19.1642 15.404 19.5 15.8182 19.5H17.25C20.5637 19.5 23.25 16.8137 23.25 13.5C23.25 10.7726 21.4308 8.47207 18.9413 7.74187C18.3914 7.5806 17.9194 7.10859 17.7581 6.55872C17.0279 4.06917 14.7274 2.25 12 2.25C9.27261 2.25 6.97207 4.06917 6.24187 6.55872C6.0806 7.10859 5.60859 7.5806 5.05872 7.74187C2.56917 8.47207 0.75 10.7726 0.75 13.5C0.75 16.8137 3.43629 19.5 6.75 19.5H8.18182C8.59603 19.5 8.93182 19.1642 8.93182 18.75C8.93182 18.3358 8.59603 18 8.18182 18H6.75C4.26472 18 2.25 15.9853 2.25 13.5C2.25 11.4564 3.61287 9.72914 5.48089 9.18124C6.5209 8.8762 7.3762 8.0209 7.68124 6.98089Z" fill="currentColor"/>
<path d="M17.0303 14.7101C16.7374 15.003 16.2626 15.003 15.9697 14.7101L12.75 11.4904V22.4147C12.75 22.8289 12.4142 23.1647 12 23.1647C11.5858 23.1647 11.25 22.8289 11.25 22.4147V11.4904L8.03033 14.7101C7.73744 15.003 7.26256 15.003 6.96967 14.7101C6.67678 14.4172 6.67678 13.9423 6.96967 13.6494L11.3591 9.26002C11.6843 8.91333 12.3157 8.91333 12.6409 9.26002L17.0303 13.6494C17.3232 13.9423 17.3232 14.4172 17.0303 14.7101Z" fill="currentColor"/>
</svg>
