<svg width="24" height="24" viewBox="0 0 24 24" fill="none" xmlns="http://www.w3.org/2000/svg">
<path d="M16 9.5C16.8284 9.5 17.5 8.82843 17.5 8C17.5 7.17157 16.8284 6.5 16 6.5C15.1716 6.5 14.5 7.17157 14.5 8C14.5 8.82843 15.1716 9.5 16 9.5Z" fill="currentColor"/>
<path d="M9.5 16C9.5 16.8284 8.82843 17.5 8 17.5C7.17157 17.5 6.5 16.8284 6.5 16C6.5 15.1716 7.17157 14.5 8 14.5C8.82843 14.5 9.5 15.1716 9.5 16Z" fill="currentColor"/>
<path d="M13.5 12C13.5 12.8284 12.8284 13.5 12 13.5C11.1716 13.5 10.5 12.8284 10.5 12C10.5 11.1716 11.1716 10.5 12 10.5C12.8284 10.5 13.5 11.1716 13.5 12Z" fill="currentColor"/>
<path fill-rule="evenodd" clip-rule="evenodd" d="M6.5 2.75C4.42893 2.75 2.75 4.42893 2.75 6.5V17.5C2.75 19.5711 4.42893 21.25 6.5 21.25H17.5C19.5711 21.25 21.25 19.5711 21.25 17.5V6.5C21.25 4.42893 19.5711 2.75 17.5 2.75H6.5ZM4.25 6.5C4.25 5.25736 5.25736 4.25 6.5 4.25H17.5C18.7426 4.25 19.75 5.25736 19.75 6.5V17.5C19.75 18.7426 18.7426 19.75 17.5 19.75H6.5C5.25736 19.75 4.25 18.7426 4.25 17.5V6.5Z" fill="currentColor"/>
</svg>
