<svg width="24" height="24" viewBox="0 0 24 24" fill="none" xmlns="http://www.w3.org/2000/svg">
<path fill-rule="evenodd" clip-rule="evenodd" d="M13.6092 6.69907C14.6832 5.62513 16.4244 5.62513 17.4983 6.69907C18.5723 7.77301 18.5723 9.51422 17.4983 10.5882C16.4244 11.6621 14.6832 11.6621 13.6092 10.5882C12.5353 9.51422 12.5353 7.77301 13.6092 6.69907ZM16.4377 7.75973C15.9495 7.27158 15.1581 7.27158 14.6699 7.75973C14.1818 8.24788 14.1818 9.03935 14.6699 9.5275C15.1581 10.0157 15.9495 10.0157 16.4377 9.5275C16.9258 9.03935 16.9258 8.24788 16.4377 7.75973Z" fill="currentColor"/>
<path fill-rule="evenodd" clip-rule="evenodd" d="M21.0332 3.16288C22.8939 5.02288 23.2068 9.70752 17.8578 15.1783C17.7517 15.2869 17.6458 15.3925 17.54 15.4954C17.5408 15.5095 17.5412 15.5236 17.5412 15.5379V17.6422C17.5412 18.2856 17.3157 18.9085 16.9038 19.4027L14.041 22.8381C13.5936 23.3751 12.7197 23.2678 12.4379 22.6022C12.2541 22.1679 11.901 21.3278 11.5851 20.542C11.4273 20.1496 11.2769 19.766 11.161 19.4512C11.1247 19.3527 11.0877 19.2503 11.0536 19.1504C10.0547 19.2915 9.1391 18.8459 8.50315 18.21L6.00265 15.7095C5.36223 15.0691 4.91824 14.148 5.0594 13.148C4.95561 13.1128 4.8488 13.0742 4.74625 13.0364C4.43143 12.9205 4.04778 12.7701 3.65544 12.6124C2.86961 12.2964 2.02955 11.9433 1.59523 11.7595C0.929604 11.4777 0.822337 10.6038 1.35926 10.1564L4.79467 7.29357C5.28888 6.88173 5.91185 6.65618 6.55518 6.65618H8.6595C8.67581 6.65618 8.692 6.6567 8.70805 6.65773C8.80712 6.5539 8.90877 6.44981 9.01305 6.34552C14.4355 0.923038 19.1776 1.30792 21.0332 3.16288ZM16.7853 14.1297C21.9244 8.87348 20.9421 5.19275 19.9727 4.22374C18.9983 3.24968 15.2578 2.22206 10.0737 7.40618C8.84542 8.63448 8.02895 9.81895 7.48595 10.8488C7.52579 10.8755 7.56363 10.9065 7.59884 10.9417L13.2557 16.5986C13.2974 16.6403 13.3331 16.6856 13.363 16.7337C14.3917 16.1917 15.5711 15.3716 16.7853 14.1297ZM11.9061 17.3703L6.84356 12.3077C6.71855 12.6613 6.6293 12.9773 6.56548 13.2475C6.45801 13.7025 6.63058 14.2161 7.06331 14.6488L9.56381 17.1493C9.98994 17.5755 10.4926 17.7478 10.9393 17.6477C11.2159 17.5857 11.5413 17.4971 11.9061 17.3703ZM7.43143 8.15618H6.55517C6.26276 8.15618 5.97959 8.2587 5.75494 8.4459L3.01538 10.7289C3.38697 10.8836 3.80884 11.0573 4.21495 11.2206C4.60206 11.3762 4.97003 11.5204 5.26455 11.6288C5.33825 11.6559 5.40605 11.6804 5.46741 11.7019C5.83394 10.6966 6.43782 9.47234 7.43143 8.15618ZM12.5027 18.7503C13.5102 18.3887 14.7337 17.788 16.0412 16.7913V17.6422C16.0412 17.9347 15.9387 18.2178 15.7515 18.4425L13.4685 21.182C13.3138 20.8104 13.1401 20.3886 12.9768 19.9825C12.8212 19.5954 12.677 19.2274 12.5686 18.9329C12.5444 18.8672 12.5224 18.8062 12.5027 18.7503Z" fill="currentColor"/>
</svg>
