<svg xmlns="http://www.w3.org/2000/svg" fill="none" width="24" height="24" viewBox="0 0 32 32">
<path fill="currentColor" d="M5.872 16.359c0 1.733 0 3.465-0.040 5.138l-1.832 0.219v0.817h5.616v-0.817l-1.812-0.199c-0.040-1.633-0.040-3.306-0.040-5.338h6.433c0 1.852 0 3.625-0.040 5.318l-1.832 0.219v0.817h5.616v-0.817l-1.832-0.219c-0.040-1.713-0.040-3.425-0.040-5.138v-0.976c0-1.733 0-3.465 0.040-5.138l1.832-0.219v-0.817h-5.616v0.817l1.832 0.219c0.040 1.613 0.040 3.246 0.040 4.999h-6.433c0-1.593 0-3.326 0.040-5.019l1.812-0.199v-0.817h-5.616v0.817l1.832 0.219c0.040 1.713 0.040 3.426 0.040 5.138v0.976zM22.224 15.263v0.996h0.956c2.031 0 3.047 1.036 3.047 2.768 0 1.793-0.996 2.868-2.948 2.868-0.299 0-0.677-0.020-1.115-0.12l-0.259-1.036c-0.279-0.996-0.498-1.434-1.175-1.434-0.438 0-0.777 0.199-1.016 0.657 0.359 1.992 1.872 2.828 3.824 2.828 2.689 0 4.461-1.653 4.461-3.804 0-1.653-0.956-2.848-3.007-3.246 1.653-0.577 2.609-1.773 2.609-3.206 0-1.852-1.494-3.127-3.824-3.127-1.832 0-3.286 0.836-3.625 2.509 0.159 0.518 0.538 0.697 0.956 0.697 0.677 0 0.936-0.398 1.155-1.235l0.259-0.996c0.359-0.060 0.657-0.080 0.916-0.080 1.553 0 2.43 0.836 2.43 2.29 0 1.693-1.055 2.669-2.848 2.669h-0.797z"></path>
</svg>
