<svg width="20" height="20" viewBox="0 0 20 20" fill="none" xmlns="http://www.w3.org/2000/svg">
<path d="M19.7459 15.9273C19.9038 16.4182 19.8659 16.9409 19.6554 17.3955C19.5038 17.7273 19.287 17.9841 19.0217 18.2136C18.7017 18.4864 18.3038 18.7182 17.8238 18.9409C17.2512 19.2045 16.5522 19.4523 16.2322 19.5432C15.4133 19.7727 14.6259 19.9182 13.828 19.925C12.687 19.9364 11.7038 19.6455 11.0049 18.9023C10.6427 18.95 10.2764 18.9773 9.90801 18.9773C9.55854 18.9773 9.21327 18.9545 8.87011 18.9091C8.16906 19.6477 7.19011 19.9364 6.05327 19.925C5.25538 19.9182 4.46801 19.7727 3.64696 19.5432C3.32906 19.4523 2.63011 19.2045 2.05748 18.9409C1.57748 18.7182 1.17959 18.4864 0.861693 18.2136C0.594324 17.9841 0.377482 17.7273 0.225903 17.3955C0.0174822 16.9409 -0.0225179 16.4182 0.137482 15.9273C-0.00988628 15.5523 -0.047781 15.1227 0.0680085 14.6477C0.12064 14.4318 0.206956 14.2318 0.31643 14.0545C0.293272 13.9614 0.274324 13.8659 0.261693 13.7614C0.181693 13.1386 0.381693 12.5705 0.758535 12.1295C0.943798 11.9091 1.1438 11.7568 1.35222 11.6591C1.19853 10.9545 1.11853 10.2295 1.11853 9.48864C1.11853 4.24773 5.05327 0 9.90801 0C11.5754 0 13.1354 0.5 14.4659 1.37273C14.7059 1.53182 14.9417 1.70227 15.167 1.88409C15.2785 1.975 15.3901 2.06818 15.4975 2.16591C15.607 2.26136 15.7143 2.36136 15.8175 2.46364C16.1291 2.77045 16.4217 3.1 16.6891 3.45227C16.7796 3.56818 16.8659 3.68864 16.9501 3.81136C17.1206 4.05455 17.2785 4.30682 17.4238 4.56818C17.6449 4.95909 17.8385 5.36818 18.007 5.79318C18.1185 6.07727 18.2154 6.36818 18.3017 6.66591C18.4301 7.11136 18.5291 7.57046 18.5964 8.04318C18.6175 8.2 18.6364 8.35909 18.6512 8.51818C18.6806 8.83636 18.6975 9.15909 18.6975 9.48864C18.6975 10.2205 18.6175 10.9386 18.468 11.6318C18.6996 11.7295 18.9185 11.8886 19.1227 12.1295C19.4996 12.5705 19.6996 13.1409 19.6196 13.7636C19.607 13.8659 19.588 13.9614 19.5649 14.0545C19.6743 14.2318 19.7606 14.4318 19.8133 14.6477C19.9291 15.1227 19.8912 15.5523 19.7459 15.9273Z" fill="white"/>
<path d="M9.84216 17.3863C13.8826 17.3863 17.1579 13.8504 17.1579 9.48861C17.1579 5.12681 13.8826 1.59088 9.84216 1.59088C5.80176 1.59088 2.52637 5.12681 2.52637 9.48861C2.52637 13.8504 5.80176 17.3863 9.84216 17.3863Z" fill="#FFD21E"/>
<path d="M17.1579 9.48864C17.1579 5.12685 13.8825 1.59091 9.8421 1.59091C5.8017 1.59091 2.52631 5.12685 2.52631 9.48864C2.52631 13.8504 5.8017 17.3864 9.8421 17.3864C13.8825 17.3864 17.1579 13.8504 17.1579 9.48864ZM1.6842 9.48864C1.6842 4.62477 5.33662 0.681824 9.8421 0.681824C14.3476 0.681824 18 4.62477 18 9.48864C18 14.3525 14.3476 18.2955 9.8421 18.2955C5.33662 18.2955 1.6842 14.3525 1.6842 9.48864Z" fill="#FFAC03"/>
<path d="M12.2191 7.33896C12.4874 7.44123 12.5941 8.03668 12.8652 7.88111C13.3785 7.58647 13.5733 6.8984 13.3004 6.34427C13.0275 5.79013 12.3901 5.57977 11.8768 5.87441C11.3635 6.16905 11.1686 6.85711 11.4416 7.41125C11.5704 7.67279 11.9793 7.24753 12.2191 7.33896Z" fill="#3A3B45"/>
<path d="M7.25967 7.33896C6.99137 7.44123 6.88462 8.03668 6.61359 7.88111C6.10029 7.58647 5.90543 6.8984 6.17835 6.34427C6.45128 5.79013 7.08865 5.57977 7.60195 5.87441C8.11526 6.16905 8.31012 6.85711 8.03719 7.41125C7.90837 7.67279 7.4995 7.24753 7.25967 7.33896Z" fill="#3A3B45"/>
<path d="M9.78945 12.793C11.8586 12.793 12.5263 10.8014 12.5263 9.77868C12.5263 9.24717 12.1953 9.41447 11.6652 9.69778C11.1754 9.9596 10.5154 10.3205 9.78945 10.3205C8.27794 10.3205 7.05261 8.75598 7.05261 9.77868C7.05261 10.8014 7.7203 12.793 9.78945 12.793Z" fill="#3A3B45"/>
<mask id="mask0_1_45" style="mask-type:alpha" maskUnits="userSpaceOnUse" x="7" y="9" width="6" height="4">
<path d="M9.78945 12.793C11.8586 12.793 12.5263 10.8014 12.5263 9.77868C12.5263 9.24717 12.1953 9.41447 11.6652 9.69778C11.1754 9.9596 10.5154 10.3205 9.78945 10.3205C8.27794 10.3205 7.05261 8.75598 7.05261 9.77868C7.05261 10.8014 7.7203 12.793 9.78945 12.793Z" fill="#EF4E4E"/>
</mask>
<g mask="url(#mask0_1_45)">
<path d="M9.84212 15.1136C10.8505 15.1136 11.668 14.2311 11.668 13.1425C11.668 12.2946 11.1721 11.5717 10.4762 11.2935C10.4506 11.2833 10.4248 11.2736 10.3986 11.2646C10.2232 11.2041 10.0362 11.8551 9.84212 11.8551C9.66079 11.8551 9.48563 11.1999 9.32029 11.2531C8.56615 11.4954 8.01624 12.2496 8.01624 13.1425C8.01624 14.2311 8.83371 15.1136 9.84212 15.1136Z" fill="#EF4E4E"/>
</g>
<g style="mix-blend-mode:multiply">
<path d="M14.7894 8.4091C15.1673 8.4091 15.4736 8.0784 15.4736 7.67046C15.4736 7.26252 15.1673 6.93182 14.7894 6.93182C14.4116 6.93182 14.1052 7.26252 14.1052 7.67046C14.1052 8.0784 14.4116 8.4091 14.7894 8.4091Z" fill="#FFD21E"/>
</g>
<g style="mix-blend-mode:multiply">
<path d="M5.00001 8.4091C5.37789 8.4091 5.68422 8.0784 5.68422 7.67046C5.68422 7.26252 5.37789 6.93182 5.00001 6.93182C4.62213 6.93182 4.3158 7.26252 4.3158 7.67046C4.3158 8.0784 4.62213 8.4091 5.00001 8.4091Z" fill="#FFD21E"/>
</g>
<path d="M3.592 10.9091C3.25116 10.9091 2.94653 11.0603 2.73411 11.3343C2.60274 11.5041 2.46548 11.7778 2.45432 12.1875C2.31137 12.1432 2.1739 12.1184 2.04548 12.1184C1.71916 12.1184 1.42442 12.2534 1.216 12.4987C0.948212 12.8134 0.829265 13.2003 0.881054 13.5873C0.905686 13.7716 0.962738 13.9368 1.048 14.0898C0.868212 14.2468 0.735791 14.4655 0.671791 14.7284C0.621686 14.9346 0.570317 15.3639 0.838528 15.8062C0.821475 15.835 0.805475 15.865 0.790528 15.8957C0.629265 16.2262 0.618949 16.5996 0.761265 16.9473C0.977054 17.4743 1.51326 17.8896 2.55453 18.3353C3.20232 18.6125 3.79495 18.7898 3.80021 18.7914C4.65663 19.0312 5.43116 19.153 6.10169 19.153C7.33411 19.153 8.21642 18.7455 8.72421 17.9418C9.54148 16.6478 9.42463 15.4641 8.36716 14.3232C7.7819 13.6918 7.39284 12.7609 7.31179 12.5566C7.14842 11.9516 6.71642 11.2791 5.99832 11.2791H5.99811C5.93769 11.2791 5.87663 11.2843 5.81642 11.2946C5.5019 11.348 5.22695 11.5434 5.03053 11.8375C4.81853 11.553 4.61263 11.3266 4.42632 11.1989C4.14548 11.0066 3.86484 10.9091 3.592 10.9091ZM3.592 11.8182C3.69937 11.8182 3.83053 11.8675 3.97516 11.9666C4.42421 12.2741 5.29074 13.8821 5.608 14.5075C5.71432 14.7171 5.896 14.8057 6.05958 14.8057C6.38421 14.8057 6.63769 14.4573 6.08926 14.0146C5.26463 13.3484 5.5539 12.2596 5.94758 12.1925C5.96484 12.1896 5.9819 12.1882 5.99832 12.1882C6.35621 12.1882 6.51411 12.8541 6.51411 12.8541C6.51411 12.8541 6.97684 14.1087 7.77179 14.9662C8.56674 15.8239 8.60779 16.5123 8.02842 17.4296C7.63326 18.055 6.87684 18.2439 6.10169 18.2439C5.29769 18.2439 4.47347 18.0407 4.01158 17.9114C3.98884 17.905 1.17979 17.0484 1.53558 16.3193C1.59537 16.1968 1.6939 16.1478 1.8179 16.1478C2.31895 16.1478 3.23032 16.9528 3.62211 16.9528C3.70969 16.9528 3.77137 16.9125 3.79663 16.8143C3.96358 16.1678 1.25832 15.8959 1.48632 14.9593C1.52653 14.7937 1.63558 14.7264 1.78884 14.7266C2.45095 14.7266 3.93642 15.9837 4.24779 15.9837C4.27158 15.9837 4.28863 15.9762 4.2979 15.9603C4.4539 15.6884 4.36842 15.4987 3.26884 14.7803C2.16926 14.0616 1.39747 13.6293 1.83642 13.1134C1.88695 13.0539 1.95853 13.0275 2.04548 13.0275C2.71305 13.0278 4.29032 14.5773 4.29032 14.5773C4.29032 14.5773 4.716 15.0553 4.97348 15.0553C5.03263 15.0553 5.08295 15.03 5.11705 14.9678C5.29958 14.6355 3.42169 13.0991 3.31579 12.4653C3.244 12.0357 3.36611 11.8182 3.592 11.8182Z" fill="#FFAC03"/>
<path d="M8.02839 17.4295C8.60776 16.5123 8.56671 15.8239 7.77176 14.9661C6.97681 14.1086 6.51408 12.8541 6.51408 12.8541C6.51408 12.8541 6.34123 12.1255 5.94755 12.1925C5.55387 12.2595 5.26481 13.3484 6.08944 14.0145C6.91408 14.6805 5.92523 15.133 5.60797 14.5075C5.29071 13.882 4.42439 12.2741 3.97513 11.9666C3.52608 11.6591 3.20987 11.8314 3.31576 12.4652C3.42165 13.0991 5.29976 14.6355 5.11702 14.968C4.93429 15.3002 4.29029 14.5773 4.29029 14.5773C4.29029 14.5773 2.27513 12.5975 1.83639 13.1134C1.39765 13.6293 2.16923 14.0616 3.26881 14.7802C4.3686 15.4986 4.45387 15.6884 4.29787 15.9602C4.14166 16.232 1.71429 14.0227 1.48629 14.9593C1.2585 15.8959 3.96355 16.1677 3.7966 16.8143C3.62966 17.4611 1.89113 15.5905 1.53555 16.3193C1.17976 17.0484 3.98881 17.905 4.01155 17.9114C4.91892 18.1655 7.22334 18.7039 8.02839 17.4295Z" fill="#FFD21E"/>
<path d="M16.1974 10.9091C16.5383 10.9091 16.8429 11.0603 17.0553 11.3343C17.1867 11.5041 17.324 11.7778 17.3351 12.1875C17.4781 12.1432 17.6155 12.1184 17.744 12.1184C18.0703 12.1184 18.365 12.2534 18.5734 12.4987C18.8412 12.8134 18.9602 13.2003 18.9084 13.5873C18.8837 13.7716 18.8267 13.9368 18.7414 14.0898C18.9212 14.2468 19.0536 14.4655 19.1176 14.7284C19.1677 14.9346 19.2191 15.3639 18.9509 15.8062C18.968 15.835 18.984 15.865 18.9989 15.8957C19.1602 16.2262 19.1705 16.5996 19.0282 16.9473C18.8124 17.4743 18.2762 17.8896 17.2349 18.3353C16.5871 18.6125 15.9945 18.7898 15.9892 18.7914C15.1328 19.0312 14.3583 19.153 13.6877 19.153C12.4553 19.153 11.573 18.7455 11.0652 17.9418C10.248 16.6478 10.3648 15.4641 11.4223 14.3232C12.0075 13.6918 12.3966 12.7609 12.4776 12.5566C12.641 11.9516 13.073 11.2791 13.7911 11.2791H13.7913C13.8517 11.2791 13.9128 11.2843 13.973 11.2946C14.2875 11.348 14.5625 11.5434 14.7589 11.8375C14.9709 11.553 15.1768 11.3266 15.3631 11.1989C15.644 11.0066 15.9246 10.9091 16.1974 10.9091ZM16.1974 11.8182C16.0901 11.8182 15.9589 11.8675 15.8143 11.9666C15.3652 12.2741 14.4987 13.8821 14.1814 14.5075C14.0751 14.7171 13.8934 14.8057 13.7298 14.8057C13.4052 14.8057 13.1517 14.4573 13.7002 14.0146C14.5248 13.3484 14.2355 12.2596 13.8418 12.1925C13.8246 12.1896 13.8075 12.1882 13.7911 12.1882C13.4332 12.1882 13.2753 12.8541 13.2753 12.8541C13.2753 12.8541 12.8126 14.1087 12.0176 14.9662C11.2227 15.8239 11.1816 16.5123 11.761 17.4296C12.1562 18.055 12.9126 18.2439 13.6877 18.2439C14.4917 18.2439 15.316 18.0407 15.7778 17.9114C15.8006 17.905 18.6096 17.0484 18.2538 16.3193C18.1941 16.1968 18.0955 16.1478 17.9715 16.1478C17.4705 16.1478 16.5591 16.9528 16.1673 16.9528C16.0797 16.9528 16.0181 16.9125 15.9928 16.8143C15.8258 16.1678 18.5311 15.8959 18.3031 14.9593C18.2629 14.7937 18.1538 14.7264 18.0006 14.7266C17.3385 14.7266 15.853 15.9837 15.5416 15.9837C15.5178 15.9837 15.5008 15.9762 15.4915 15.9603C15.3355 15.6884 15.421 15.4987 16.5206 14.7803C17.6202 14.0616 18.392 13.6293 17.953 13.1134C17.9025 13.0539 17.8309 13.0275 17.744 13.0275C17.0764 13.0278 15.4991 14.5773 15.4991 14.5773C15.4991 14.5773 15.0734 15.0553 14.816 15.0553C14.7568 15.0553 14.7065 15.03 14.6724 14.9678C14.4898 14.6355 16.3677 13.0991 16.4736 12.4653C16.5454 12.0357 16.4233 11.8182 16.1974 11.8182Z" fill="#FFAC03"/>
<path d="M11.761 17.4295C11.1817 16.5123 11.2227 15.8239 12.0177 14.9661C12.8126 14.1086 13.2754 12.8541 13.2754 12.8541C13.2754 12.8541 13.4482 12.1255 13.8419 12.1925C14.2356 12.2595 14.5246 13.3484 13.7 14.0145C12.8754 14.6805 13.8642 15.133 14.1815 14.5075C14.4987 13.882 15.365 12.2741 15.8143 11.9666C16.2634 11.6591 16.5796 11.8314 16.4737 12.4652C16.3678 13.0991 14.4897 14.6355 14.6724 14.968C14.8551 15.3002 15.4991 14.5773 15.4991 14.5773C15.4991 14.5773 17.5143 12.5975 17.953 13.1134C18.3918 13.6293 17.6202 14.0616 16.5206 14.7802C15.4208 15.4986 15.3356 15.6884 15.4916 15.9602C15.6478 16.232 18.0751 14.0227 18.3031 14.9593C18.5309 15.8959 15.8259 16.1677 15.9928 16.8143C16.1598 17.4611 17.8983 15.5905 18.2539 16.3193C18.6097 17.0484 15.8006 17.905 15.7779 17.9114C14.8705 18.1655 12.5661 18.7039 11.761 17.4295Z" fill="#FFD21E"/>
</svg>
