<svg width="24" height="24" viewBox="0 0 24 24" fill="none" xmlns="http://www.w3.org/2000/svg">
    <path fill-rule="evenodd" clip-rule="evenodd"
        d="M3.01719 9.2399C2.06222 10.1952 2.52073 11.7288 3.65016 12.2008C5.16656 12.8346 6.60702 13.9748 7.45814 14.976C8.31598 15.9852 9.31862 17.6021 9.90729 19.2358C10.3377 20.4302 11.8963 20.8641 12.8429 19.9172L15.8021 16.9571L20.2201 21.3765C20.5129 21.6694 20.9876 21.6694 21.2804 21.3765C21.5732 21.0836 21.5732 20.6087 21.2804 20.3158L16.8624 15.8964L19.9117 12.8461C20.8582 11.8993 20.4245 10.3402 19.2305 9.90964C17.5973 9.32079 15.9809 8.31782 14.9721 7.45971C13.9712 6.60832 12.8313 5.16741 12.1977 3.65052C11.7259 2.52073 10.1927 2.06208 9.23776 3.01736L3.01719 9.2399ZM4.22824 10.8168C4.11611 10.7699 4.03833 10.6718 4.01204 10.5595C3.98693 10.4523 4.01377 10.3643 4.07752 10.3006L10.2981 4.07802C10.3618 4.01425 10.4498 3.9874 10.557 4.01252C10.6692 4.03882 10.7673 4.11663 10.8141 4.22879C11.5256 5.93216 12.4296 7.18928 14.0007 8.60243C15.5826 10.0253 16.9977 10.6991 18.722 11.3208C18.8244 11.3577 18.8927 11.4398 18.9167 11.5384C18.9399 11.634 18.9168 11.72 18.8514 11.7855L11.7825 18.8566C11.7171 18.922 11.6311 18.9451 11.5355 18.9219C11.437 18.8979 11.3549 18.8296 11.318 18.7272C10.6965 17.0023 10.0229 15.5868 8.60049 14.0043C7.18779 12.4327 5.93107 11.5284 4.22824 10.8168Z"
        fill="currentColor" />
</svg>
