<svg width="24" height="24" viewBox="0 0 32 32" fill="none" xmlns="http://www.w3.org/2000/svg"><path fill="currentColor" d="M4 2.667h4.952c.736 0 1.333.597 1.333 1.333v4.606c0 .736-.597 1.333-1.333 1.333H4a1.333 1.333 0 0 1-1.333-1.333V4c0-.736.597-1.333 1.333-1.333zm0 9.697h4.952c.736 0 1.333.597 1.333 1.333v4.606c0 .736-.597 1.333-1.333 1.333H4a1.333 1.333 0 0 1-1.333-1.333v-4.606c0-.736.597-1.333 1.333-1.333zm0 9.697h4.952c.736 0 1.333.597 1.333 1.333V28c0 .736-.597 1.333-1.333 1.333H4A1.333 1.333 0 0 1 2.667 28v-4.606c0-.736.597-1.333 1.333-1.333zm9.524-19.394h4.952c.736 0 1.333.597 1.333 1.333v4.606c0 .736-.597 1.333-1.333 1.333h-4.952a1.333 1.333 0 0 1-1.333-1.333V4c0-.736.597-1.333 1.333-1.333zm0 9.697h4.952c.736 0 1.333.597 1.333 1.333v4.606c0 .736-.597 1.333-1.333 1.333h-4.952a1.333 1.333 0 0 1-1.333-1.333v-4.606c0-.736.597-1.333 1.333-1.333zm0 9.697h4.952c.736 0 1.333.597 1.333 1.333V28c0 .736-.597 1.333-1.333 1.333h-4.952A1.333 1.333 0 0 1 12.191 28v-4.606c0-.736.597-1.333 1.333-1.333zm9.524-19.394H28c.736 0 1.333.597 1.333 1.333v4.606c0 .736-.597 1.333-1.333 1.333h-4.952a1.333 1.333 0 0 1-1.333-1.333V4c0-.736.597-1.333 1.333-1.333zm0 9.697H28c.736 0 1.333.597 1.333 1.333v4.606c0 .736-.597 1.333-1.333 1.333h-4.952a1.333 1.333 0 0 1-1.333-1.333v-4.606c0-.736.597-1.333 1.333-1.333zm0 9.697H28c.736 0 1.333.597 1.333 1.333V28c0 .736-.597 1.333-1.333 1.333h-4.952A1.333 1.333 0 0 1 21.715 28v-4.606c0-.736.597-1.333 1.333-1.333z" /></svg>