<svg width="24" height="24" viewBox="0 0 24 24" fill="none" xmlns="http://www.w3.org/2000/svg">
<path d="M4.18212 7.0536C5.82343 4.46534 8.71166 2.75 12 2.75C16.4742 2.75 20.208 5.92737 21.065 10.1492C21.1474 10.5551 21.5432 10.8174 21.9492 10.735C22.3551 10.6526 22.6174 10.2567 22.535 9.8508C21.5389 4.94367 17.2016 1.25 12 1.25C8.95456 1.25 6.20532 2.51674 4.25 4.55026V3.70001C4.25 3.2858 3.91421 2.95001 3.5 2.95001C3.08579 2.95001 2.75 3.2858 2.75 3.70001V6.70001C2.75 7.11423 3.08579 7.45001 3.5 7.45001C3.71682 7.45001 3.91215 7.358 4.04909 7.2109C4.0993 7.16591 4.14423 7.11334 4.18212 7.0536Z" fill="currentColor"/>
<path d="M2.93505 13.8508C2.85265 13.4449 2.45677 13.1826 2.05084 13.265C1.6449 13.3474 1.38263 13.7433 1.46503 14.1492C2.46112 19.0563 6.79837 22.75 12 22.75C15.0454 22.75 17.7947 21.4833 19.75 19.4497V20.3C19.75 20.7142 20.0858 21.05 20.5 21.05C20.9142 21.05 21.25 20.7142 21.25 20.3V17.3L21.2499 17.2882C21.2557 17.0316 21.1296 16.7787 20.8958 16.6334C20.544 16.4148 20.0816 16.5228 19.863 16.8746C19.837 16.9164 19.8107 16.958 19.784 16.9994C18.137 19.5581 15.2658 21.25 12 21.25C7.5258 21.25 3.79203 18.0726 2.93505 13.8508Z" fill="currentColor"/>
<path fill-rule="evenodd" clip-rule="evenodd" d="M10.5833 16.8795C10.5833 18.582 12.7678 19.2821 13.7574 17.8967L17.4808 12.6838C18.3082 11.5256 17.4802 9.91668 16.0568 9.91668H13.6667C13.5286 9.91668 13.4167 9.80475 13.4167 9.66668V7.12047C13.4167 5.418 11.2322 4.71796 10.2426 6.10331L6.51915 11.3162C5.69181 12.4744 6.51978 14.0833 7.94319 14.0833H10.3333C10.4714 14.0833 10.5833 14.1953 10.5833 14.3333V16.8795ZM12.5368 17.0249C12.3954 17.2228 12.0833 17.1227 12.0833 16.8795V14.3333C12.0833 13.3668 11.2998 12.5833 10.3333 12.5833H7.94319C7.73984 12.5833 7.62156 12.3535 7.73975 12.188L11.4632 6.97517C11.6046 6.77726 11.9167 6.87727 11.9167 7.12047V9.66668C11.9167 10.6332 12.7002 11.4167 13.6667 11.4167H16.0568C16.2601 11.4167 16.3784 11.6465 16.2602 11.812L12.5368 17.0249Z" fill="currentColor"/>
</svg>
