<svg width="24" height="24" viewBox="0 0 24 24" fill="none" xmlns="http://www.w3.org/2000/svg">
<path d="M21.3589 12.3093C21.3589 12.2002 21.3356 12.0965 21.2938 12.0029L21.1712 11.8126C21.1609 11.8009 21.1501 11.7894 21.1389 11.7782L16.89 7.52932C16.5967 7.23599 16.1211 7.23599 15.8278 7.52932C15.5344 7.82264 15.5344 8.29822 15.8278 8.59154L18.7944 11.5582H7.86109C7.44627 11.5582 7.10999 11.8945 7.10999 12.3093C7.10999 12.7241 7.44627 13.0604 7.86109 13.0604H18.7945L15.8278 16.0271C15.5344 16.3204 15.5344 16.796 15.8278 17.0893C16.1211 17.3827 16.5967 17.3827 16.89 17.0893L21.1389 12.8404L21.1405 12.8388C21.2097 12.7693 21.2624 12.6895 21.2987 12.6045C21.3374 12.5139 21.3589 12.4141 21.3589 12.3093Z" fill="currentColor"/>
<path d="M10.9827 20.8094C11.3969 20.8094 11.7327 21.1451 11.7327 21.5594C11.7327 21.9736 11.3969 22.3094 10.9827 22.3094H5.75265C3.67258 22.3094 1.98963 20.6209 2.00005 18.5397C2.01638 15.2772 2.03533 10.0219 2.01386 6.11498C2.00237 4.02576 3.68852 2.30936 5.78596 2.30936H10.9827C11.3969 2.30936 11.7327 2.64514 11.7327 3.05936C11.7327 3.47357 11.3969 3.80936 10.9827 3.80936H5.78596C4.52834 3.80936 3.50688 4.84096 3.51383 6.10674C3.53536 10.0223 3.51636 15.2845 3.50003 18.5472C3.49378 19.7959 4.50281 20.8094 5.75265 20.8094H10.9827Z" fill="currentColor"/>
</svg>
