<svg width="24" height="24" viewBox="0 0 24 24" fill="none" xmlns="http://www.w3.org/2000/svg">
<path d="M7.46967 4.46967C7.76256 4.17678 8.23744 4.17678 8.53033 4.46967L10.3182 6.25754C10.7282 6.66759 10.7282 7.33241 10.3182 7.74246L8.53033 9.53033C8.23744 9.82322 7.76256 9.82322 7.46967 9.53033C7.17678 9.23744 7.17678 8.76256 7.46967 8.46967L8.18934 7.75H5C4.58579 7.75 4.25 7.41421 4.25 7C4.25 6.58579 4.58579 6.25 5 6.25H8.18934L7.46967 5.53033C7.17678 5.23744 7.17678 4.76256 7.46967 4.46967Z" fill="currentColor"/>
<path d="M13 6.25C12.5858 6.25 12.25 6.58579 12.25 7C12.25 7.41421 12.5858 7.75 13 7.75H19C19.4142 7.75 19.75 7.41421 19.75 7C19.75 6.58579 19.4142 6.25 19 6.25H13Z" fill="currentColor"/>
<path d="M5 16.25C4.58579 16.25 4.25 16.5858 4.25 17C4.25 17.4142 4.58579 17.75 5 17.75H19C19.4142 17.75 19.75 17.4142 19.75 17C19.75 16.5858 19.4142 16.25 19 16.25H5Z" fill="currentColor"/>
<path d="M5 11.25C4.58579 11.25 4.25 11.5858 4.25 12C4.25 12.4142 4.58579 12.75 5 12.75H19C19.4142 12.75 19.75 12.4142 19.75 12C19.75 11.5858 19.4142 11.25 19 11.25H5Z" fill="currentColor"/>
</svg>
