<svg width="24" height="24" viewBox="0 0 24 24" fill="none" xmlns="http://www.w3.org/2000/svg">
<path fill-rule="evenodd" clip-rule="evenodd" d="M6.5 3C6.8621 3.00001 7.17208 3.25906 7.2373 3.61523L7.70215 6.14941L7.75195 6.375C7.8166 6.62616 7.91212 6.86477 8.03125 7.08887C9.06252 6.10502 10.4607 5.5 12 5.5C14.416 5.5 16.4809 6.98987 17.332 9.09766L17.3711 9.17773C17.4772 9.35618 17.6807 9.48721 17.9004 9.50391L18.1475 9.5293C20.6903 9.84548 22.75 12.0117 22.75 14.7451L22.7432 15.0156C22.6069 17.7025 20.4525 19.8569 17.7656 19.9932L17.4951 20H6.50488C3.69342 20 1.39763 17.7921 1.25684 15.0156L1.25 14.7451C1.25 13.1627 1.94298 11.7713 3.0166 10.8184L2.98633 10.8086L1.7959 10.4717C1.47302 10.3803 1.25002 10.0855 1.25 9.75C1.25 9.41443 1.473 9.11968 1.7959 9.02832L2.98633 8.69141L3.20605 8.62109C4.28776 8.23041 5.08863 7.29199 5.29785 6.14941L5.7627 3.61523L5.79785 3.48633C5.90589 3.19815 6.18313 3 6.5 3ZM12 7C10.8408 7 9.79079 7.46413 9.02344 8.21777C9.31956 8.42719 9.65286 8.58929 10.0137 8.69141L11.2041 9.02832L11.3203 9.07129C11.5794 9.19345 11.75 9.4563 11.75 9.75C11.75 10.0855 11.527 10.3803 11.2041 10.4717L10.0137 10.8086C8.82164 11.146 7.92531 12.132 7.70215 13.3506L7.2373 15.8848C7.17208 16.2409 6.8621 16.5 6.5 16.5C6.13789 16.5 5.82792 16.241 5.7627 15.8848L5.29785 13.3506C5.17664 12.6887 4.85537 12.0968 4.39746 11.6387C3.4107 12.3093 2.75 13.4367 2.75 14.7451L2.75488 14.9385C2.85553 16.9224 4.49597 18.5 6.50488 18.5H17.4951L17.6885 18.4951C19.6083 18.3977 21.1477 16.8583 21.2451 14.9385L21.25 14.7451C21.25 12.7952 19.7804 11.2436 17.9629 11.0176L17.7861 11C17.0336 10.9428 16.3412 10.4849 16.0039 9.7998L15.9414 9.65918C15.3113 8.09862 13.7832 7 12 7ZM6.5 7.35547C6.08274 8.38037 5.3192 9.22776 4.34473 9.75C5.31893 10.2721 6.08267 11.119 6.5 12.1436C6.91722 11.1193 7.68045 10.2721 8.6543 9.75C7.68018 9.22773 6.91716 8.38011 6.5 7.35547Z" fill="currentColor"/>
</svg>
