<svg width="24" height="24" viewBox="0 0 24 24" fill="none" xmlns="http://www.w3.org/2000/svg">
<path fill-rule="evenodd" clip-rule="evenodd" d="M22.955 2.60577C23.2479 2.31288 23.2479 1.838 22.955 1.54511C22.6621 1.25222 22.1872 1.25222 21.8943 1.54511L14.634 8.80545C13.657 8.25925 12.4176 8.35535 11.533 9.09373L9.58295 7.14367C8.50901 6.06973 6.76781 6.06973 5.69387 7.14367L5.03761 7.79993C5.0193 7.81506 5.00154 7.83119 4.9844 7.84833C4.96726 7.86547 4.95113 7.88323 4.93599 7.90154L3.55392 9.28361C2.99154 9.846 2.30245 10.2106 1.47288 10.6253C0.40451 11.1595 0.173449 12.5834 1.01807 13.428L9.04005 21.45H4.79999C4.38577 21.45 4.04999 21.7858 4.04999 22.2C4.04999 22.6142 4.38577 22.95 4.79999 22.95H11.8C12.6195 22.95 13.4152 22.4374 14.0367 21.9605C14.5984 21.5296 15.219 20.9531 15.9283 20.2438L17.3611 18.8109C18.4351 17.737 18.4351 15.9958 17.3611 14.9218L15.4063 12.967C16.1446 12.0824 16.2407 10.8431 15.6946 9.86613L22.955 2.60577ZM5.51713 9.44172L4.61458 10.3443C3.85816 11.1007 2.95869 11.5595 2.1437 11.967C1.99108 12.0433 1.95807 12.2467 2.07873 12.3674L3.61457 13.9032C3.69154 13.8751 3.7801 13.8395 3.87855 13.7947C4.28842 13.6084 4.87543 13.2607 5.51473 12.6214C5.80762 12.3285 6.2825 12.3285 6.57539 12.6214C6.86828 12.9143 6.86828 13.3891 6.57539 13.682C5.91097 14.3464 5.27309 14.7703 4.75019 15.0388L6.26619 16.5548C6.34316 16.5267 6.43173 16.4911 6.53019 16.4464C6.94007 16.2601 7.52707 15.9123 8.16637 15.273C8.45927 14.9801 8.93414 14.9801 9.22703 15.273C9.51993 15.5659 9.51993 16.0407 9.22703 16.3336C8.56261 16.9981 7.92472 17.4219 7.40182 17.6905L8.91781 19.2065C8.9948 19.1783 9.08339 19.1427 9.18187 19.098C9.59174 18.9117 10.1787 18.5639 10.818 17.9246C11.1109 17.6317 11.5858 17.6317 11.8787 17.9246C12.1716 18.2175 12.1716 18.6924 11.8787 18.9853C11.2143 19.6497 10.5764 20.0736 10.0534 20.3421L10.2901 20.5787C11.121 21.4096 11.5617 21.5162 11.9986 21.4022C12.2785 21.3291 12.6372 21.1437 13.1236 20.7704C13.6064 20.4001 14.172 19.8787 14.8676 19.1831L15.0631 18.9877L5.51713 9.44172ZM16.1237 17.927L16.3005 17.7503C16.7886 17.2621 16.7886 16.4707 16.3005 15.9825L8.52229 8.20433C8.03414 7.71618 7.24268 7.71618 6.75453 8.20433L6.57779 8.38106L16.1237 17.927ZM12.6035 10.1641L14.3359 11.8965C14.6574 11.4112 14.6044 10.7508 14.1768 10.3232C13.7492 9.89559 13.0888 9.84256 12.6035 10.1641Z" fill="currentColor"/>
</svg>
