<svg width="24" height="24" viewBox="0 0 24 24" fill="none" xmlns="http://www.w3.org/2000/svg">
<path d="M8.25 6C8.25 5.58579 8.58579 5.25 9 5.25H20C20.4142 5.25 20.75 5.58579 20.75 6C20.75 6.41421 20.4142 6.75 20 6.75H9C8.58579 6.75 8.25 6.41421 8.25 6Z" fill="currentColor"/>
<path d="M3.25 18C3.25 17.5858 3.58579 17.25 4 17.25H15C15.4142 17.25 15.75 17.5858 15.75 18C15.75 18.4142 15.4142 18.75 15 18.75H4C3.58579 18.75 3.25 18.4142 3.25 18Z" fill="currentColor"/>
<path d="M6.5 11.25C6.08579 11.25 5.75 11.5858 5.75 12C5.75 12.4142 6.08579 12.75 6.5 12.75H17.5C17.9142 12.75 18.25 12.4142 18.25 12C18.25 11.5858 17.9142 11.25 17.5 11.25H6.5Z" fill="currentColor"/>
</svg>
