<svg width="24" height="24" viewBox="0 0 24 24" fill="none" xmlns="http://www.w3.org/2000/svg">
<path fill-rule="evenodd" clip-rule="evenodd" d="M8.5 7.25C7.80964 7.25 7.25 7.80964 7.25 8.5V15.5C7.25 16.1904 7.80964 16.75 8.5 16.75H15.5C16.1904 16.75 16.75 16.1904 16.75 15.5V8.5C16.75 7.80964 16.1904 7.25 15.5 7.25H8.5ZM8.75 8.75H15.25V15.25H8.75V8.75Z" fill="currentColor"/>
<path fill-rule="evenodd" clip-rule="evenodd" d="M16.75 20.2418C18.6219 20.1186 20.1186 18.6219 20.2418 16.75H22C22.4142 16.75 22.75 16.4142 22.75 16C22.75 15.5858 22.4142 15.25 22 15.25H20.25V12.75H22C22.4142 12.75 22.75 12.4142 22.75 12C22.75 11.5858 22.4142 11.25 22 11.25H20.25V8.75H22C22.4142 8.75 22.75 8.41421 22.75 8C22.75 7.58579 22.4142 7.25 22 7.25H20.2418C20.1186 5.37812 18.6219 3.88141 16.75 3.7582V2C16.75 1.58579 16.4142 1.25 16 1.25C15.5858 1.25 15.25 1.58579 15.25 2V3.75H12.75V2C12.75 1.58579 12.4142 1.25 12 1.25C11.5858 1.25 11.25 1.58579 11.25 2V3.75H8.75V2C8.75 1.58579 8.41421 1.25 8 1.25C7.58579 1.25 7.25 1.58579 7.25 2V3.7582C5.37812 3.88141 3.88141 5.37812 3.7582 7.25H2C1.58579 7.25 1.25 7.58579 1.25 8C1.25 8.41421 1.58579 8.75 2 8.75H3.75V11.25H2C1.58579 11.25 1.25 11.5858 1.25 12C1.25 12.4142 1.58579 12.75 2 12.75H3.75V15.25H2C1.58579 15.25 1.25 15.5858 1.25 16C1.25 16.4142 1.58579 16.75 2 16.75H3.7582C3.88141 18.6219 5.37812 20.1186 7.25 20.2418V22C7.25 22.4142 7.58579 22.75 8 22.75C8.41421 22.75 8.75 22.4142 8.75 22V20.25H11.25V22C11.25 22.4142 11.5858 22.75 12 22.75C12.4142 22.75 12.75 22.4142 12.75 22V20.25H15.25V22C15.25 22.4142 15.5858 22.75 16 22.75C16.4142 22.75 16.75 22.4142 16.75 22V20.2418ZM7.5 5.25H16.5C17.7426 5.25 18.75 6.25736 18.75 7.5V16.5C18.75 17.7426 17.7426 18.75 16.5 18.75H7.5C6.25736 18.75 5.25 17.7426 5.25 16.5V7.5C5.25 6.25736 6.25736 5.25 7.5 5.25Z" fill="currentColor"/>
</svg>
