<svg width="24" height="24" viewBox="0 0 24 24" fill="none" xmlns="http://www.w3.org/2000/svg">
<path fill-rule="evenodd" clip-rule="evenodd" d="M12 7.75C9.65279 7.75 7.75 9.65279 7.75 12C7.75 14.3472 9.65279 16.25 12 16.25C14.3472 16.25 16.25 14.3472 16.25 12C16.25 9.65279 14.3472 7.75 12 7.75ZM6.25 12C6.25 8.82436 8.82436 6.25 12 6.25C15.1756 6.25 17.75 8.82436 17.75 12C17.75 15.1756 15.1756 17.75 12 17.75C8.82436 17.75 6.25 15.1756 6.25 12Z" fill="currentColor"/>
<path fill-rule="evenodd" clip-rule="evenodd" d="M12 1.25C12.4142 1.25 12.75 1.58579 12.75 2V4C12.75 4.41421 12.4142 4.75 12 4.75C11.5858 4.75 11.25 4.41421 11.25 4V2C11.25 1.58579 11.5858 1.25 12 1.25Z" fill="currentColor"/>
<path fill-rule="evenodd" clip-rule="evenodd" d="M12 19.25C12.4142 19.25 12.75 19.5858 12.75 20V22C12.75 22.4142 12.4142 22.75 12 22.75C11.5858 22.75 11.25 22.4142 11.25 22V20C11.25 19.5858 11.5858 19.25 12 19.25Z" fill="currentColor"/>
<path fill-rule="evenodd" clip-rule="evenodd" d="M1.25 12C1.25 11.5858 1.58579 11.25 2 11.25H4C4.41421 11.25 4.75 11.5858 4.75 12C4.75 12.4142 4.41421 12.75 4 12.75H2C1.58579 12.75 1.25 12.4142 1.25 12Z" fill="currentColor"/>
<path fill-rule="evenodd" clip-rule="evenodd" d="M19.25 12C19.25 11.5858 19.5858 11.25 20 11.25H22C22.4142 11.25 22.75 11.5858 22.75 12C22.75 12.4142 22.4142 12.75 22 12.75H20C19.5858 12.75 19.25 12.4142 19.25 12Z" fill="currentColor"/>
<path fill-rule="evenodd" clip-rule="evenodd" d="M4.3986 4.3986C4.6915 4.10571 5.16637 4.10571 5.45926 4.3986L6.87348 5.81282C7.16637 6.10571 7.16637 6.58058 6.87348 6.87348C6.58058 7.16637 6.10571 7.16637 5.81282 6.87348L4.3986 5.45926C4.10571 5.16637 4.10571 4.6915 4.3986 4.3986Z" fill="currentColor"/>
<path fill-rule="evenodd" clip-rule="evenodd" d="M17.1265 17.1265C17.4194 16.8336 17.8943 16.8336 18.1872 17.1265L19.6014 18.5407C19.8943 18.8336 19.8943 19.3085 19.6014 19.6014C19.3085 19.8943 18.8336 19.8943 18.5407 19.6014L17.1265 18.1872C16.8336 17.8943 16.8336 17.4194 17.1265 17.1265Z" fill="currentColor"/>
<path fill-rule="evenodd" clip-rule="evenodd" d="M4.3986 19.6014C4.10571 19.3085 4.10571 18.8336 4.3986 18.5407L5.81282 17.1265C6.10571 16.8336 6.58058 16.8336 6.87348 17.1265C7.16637 17.4194 7.16637 17.8943 6.87348 18.1872L5.45926 19.6014C5.16637 19.8943 4.6915 19.8943 4.3986 19.6014Z" fill="currentColor"/>
<path fill-rule="evenodd" clip-rule="evenodd" d="M17.1265 6.87348C16.8336 6.58058 16.8336 6.10571 17.1265 5.81282L18.5407 4.3986C18.8336 4.10571 19.3085 4.10571 19.6014 4.3986C19.8943 4.6915 19.8943 5.16637 19.6014 5.45926L18.1872 6.87348C17.8943 7.16637 17.4194 7.16637 17.1265 6.87348Z" fill="currentColor"/>
</svg>
