<svg width="24" height="24" viewBox="0 0 24 24" fill="none" xmlns="http://www.w3.org/2000/svg">
<path d="M13.0191 14.8444C13.2396 14.9481 13.4925 15 13.7779 15C14.3745 15 14.9387 14.7665 15.4705 14.2996C15.9274 13.8984 16.3556 13.4014 16.7551 12.8086C16.8667 12.643 16.8208 12.4199 16.6572 12.3054C16.4936 12.1909 16.2698 12.2252 16.1415 12.3782C15.9026 12.6633 15.679 12.8952 15.4705 13.0739C15.2111 13.2944 14.9646 13.4047 14.7312 13.4047C14.5107 13.4047 14.3291 13.3333 14.1864 13.1907C14.0438 13.048 13.9076 12.7562 13.7779 12.3152L12.9176 9.54876C13.0156 9.40668 13.1143 9.26527 13.2137 9.12451C13.5249 8.68353 13.8427 8.25551 14.167 7.84047C14.5042 7.41245 14.8349 6.99741 15.1592 6.59533C15.1927 6.55347 15.2268 6.51296 15.2617 6.4738C15.3258 6.40177 15.4396 6.41578 15.4899 6.49805C15.6585 6.79637 15.8336 7.01686 16.0152 7.15953C16.2098 7.28923 16.4432 7.35409 16.7156 7.35409C17.2856 7.35409 17.8892 6.76187 17.7662 6.16732C17.6884 5.79118 17.5068 5.50584 17.2214 5.31128C16.9491 5.10376 16.6378 5 16.2876 5C15.9244 5 15.6067 5.07782 15.3343 5.23346C15.0619 5.3891 14.783 5.64202 14.4977 5.99222C14.2253 6.35538 13.8687 6.8677 13.4277 7.52918C13.1755 7.90009 12.9126 8.31342 12.6392 8.76919L12.0463 6.77043C11.8648 6.16083 11.6443 5.71336 11.3849 5.42802C11.1384 5.14267 10.7753 5 10.2954 5C9.98409 5 9.6728 5.08431 9.36152 5.25292C9.0632 5.42153 8.76489 5.67445 8.46658 6.01167C8.21463 6.29648 7.96269 6.64142 7.71075 7.04649C7.62761 7.18016 7.65184 7.35327 7.7654 7.46228C7.91792 7.6087 8.16434 7.58033 8.29418 7.41346C8.48495 7.16828 8.65915 6.99934 8.81677 6.90661C9.05023 6.76394 9.2383 6.69261 9.38097 6.69261C9.5885 6.69261 9.75062 6.76394 9.86736 6.90661C9.98409 7.03632 10.1008 7.28923 10.2176 7.66537L11.0905 10.5476C11.0265 10.6377 10.9625 10.7275 10.8985 10.8171C10.5872 11.2711 10.2629 11.7121 9.92572 12.1401C9.60147 12.5681 9.26424 12.9961 8.91405 13.4241C8.85913 13.4947 8.80184 13.563 8.74218 13.6288C8.6847 13.6923 8.58268 13.6758 8.5444 13.5992C8.34985 13.2101 8.16178 12.9377 7.9802 12.7821C7.79861 12.6265 7.56515 12.5486 7.27981 12.5486C6.72478 12.5486 6.25403 12.9723 6.22159 13.5019C6.19911 13.8691 6.41729 14.3645 6.75451 14.6109C7.09174 14.8573 7.46787 14.9805 7.88292 14.9805C8.24608 14.9805 8.55088 14.9027 8.79732 14.7471C9.04375 14.6044 9.2837 14.3904 9.51716 14.1051C9.91924 13.6122 10.3278 13.035 10.7428 12.3735C10.9436 12.0536 11.1549 11.7064 11.3769 11.3319L12.0074 13.3463C12.1371 13.7613 12.2798 14.0921 12.4354 14.3385C12.6041 14.572 12.7986 14.7406 13.0191 14.8444Z" fill="currentColor"/>
<path d="M21.0289 18.4689C21.1656 18.6056 21.2489 18.8082 21.2489 19C21.2489 19.2031 21.1733 19.3858 21.0305 19.5295L21.0289 19.5311L18.78 21.78C18.4867 22.0733 18.0111 22.0733 17.7178 21.78C17.4245 21.4867 17.4245 21.0111 17.7178 20.7178L18.6845 19.7511H3.75111C3.33628 19.7511 3 19.4148 3 19C3 18.5852 3.33628 18.2489 3.75111 18.2489H18.6845L17.7178 17.2822C17.4245 16.9889 17.4245 16.5133 17.7178 16.22C18.0111 15.9267 18.4867 15.9267 18.78 16.22L21.0289 18.4689Z" fill="currentColor"/>
</svg>
