<svg width="24" height="24" viewBox="0 0 24 24" fill="none" xmlns="http://www.w3.org/2000/svg">
    <path
        d="M21.3458 10.0012C21.7133 10.1923 21.8563 10.6452 21.6652 11.0127L20.9998 10.6667C21.6652 11.0127 21.6652 11.0127 21.6652 11.0127L21.6644 11.0142L21.6634 11.0162L21.6605 11.0216L21.6519 11.0377C21.6448 11.0508 21.6351 11.0685 21.6227 11.0906C21.5979 11.1347 21.5622 11.1963 21.5155 11.2727C21.422 11.4256 21.2838 11.6385 21.0984 11.8914C20.8469 12.2344 20.5068 12.653 20.0715 13.0959C19.9136 13.2565 19.9094 13.5154 20.0687 13.6747L21.2303 14.8363C21.5232 15.1292 21.5232 15.6041 21.2303 15.897C20.9374 16.1899 20.4625 16.1899 20.1696 15.897L18.8569 14.5843C18.7183 14.4457 18.5002 14.4286 18.3376 14.538C17.7094 14.961 16.9854 15.3543 16.1606 15.6706C15.9444 15.7535 15.8335 15.9974 15.9226 16.2112L16.4922 17.5782C16.6515 17.9605 16.4707 18.3997 16.0883 18.559C15.706 18.7183 15.2669 18.5375 15.1076 18.1551L14.4192 16.5031C14.3463 16.328 14.1606 16.229 13.9735 16.2596C13.3566 16.3605 12.6991 16.4167 11.9998 16.4167C11.3006 16.4167 10.6432 16.3605 10.0263 16.2596C9.8392 16.229 9.65352 16.3281 9.58058 16.5031L8.89224 18.1551C8.73293 18.5375 8.29382 18.7183 7.91147 18.559C7.52912 18.3997 7.34831 17.9605 7.50763 17.5782L8.07719 16.2112C8.16627 15.9975 8.0554 15.7536 7.83915 15.6706C7.0144 15.3543 6.29033 14.961 5.6621 14.5381C5.49952 14.4286 5.28141 14.4458 5.14283 14.5843L3.83018 15.897C3.53729 16.1899 3.06242 16.1899 2.76952 15.897C2.47663 15.6041 2.47663 15.1292 2.76952 14.8363L3.93106 13.6748C4.09033 13.5155 4.08616 13.2566 3.92825 13.096C3.49289 12.6531 3.15279 12.2344 2.90126 11.8914C2.71579 11.6385 2.57761 11.4256 2.48417 11.2727C2.43742 11.1963 2.40178 11.1347 2.37695 11.0906C2.36452 11.0685 2.3548 11.0508 2.34772 11.0377L2.33909 11.0216L2.33626 11.0162L2.33521 11.0142C2.33521 11.0142 2.33441 11.0127 2.99977 10.6667L2.33441 11.0127C2.14331 10.6452 2.28631 10.1923 2.65381 10.0012C3.02074 9.81044 3.47274 9.95271 3.66435 10.319L3.66722 10.3243C3.67038 10.3301 3.67603 10.3405 3.68422 10.355C3.70059 10.3841 3.72706 10.43 3.76391 10.4903C3.83765 10.6109 3.9526 10.7886 4.11087 11.0044C4.42796 11.4368 4.91547 12.0175 5.58952 12.5986C6.93141 13.7554 9.01343 14.9167 11.9998 14.9167C14.9862 14.9167 17.0682 13.7554 18.4101 12.5986C19.0842 12.0175 19.5717 11.4368 19.8888 11.0044C20.047 10.7886 20.162 10.6109 20.2357 10.4903C20.2726 10.43 20.299 10.3841 20.3154 10.355C20.3236 10.3405 20.3293 10.3301 20.3324 10.3243L20.3344 10.3206L20.335 10.3196C20.5266 9.95329 20.9789 9.81044 21.3458 10.0012Z"
        fill="currentColor" />
</svg>
