<svg width="24" height="24" viewBox="0 0 24 24" fill="none" xmlns="http://www.w3.org/2000/svg">
<path fill-rule="evenodd" clip-rule="evenodd" d="M11.6492 22.75C11.011 22.75 10.4075 22.4599 10.0088 21.9616L7.01484 18.2191C6.77762 17.9226 6.41848 17.75 6.03875 17.75H4C3.0335 17.75 2.25 16.9665 2.25 16V9C2.25 7.48122 3.48122 6.25 5 6.25H17.4634C18.7087 6.25 19.8004 7.08647 20.1181 8.29373C20.4096 9.40103 20.8122 10.9435 21.1422 12.255C21.307 12.9102 21.4547 13.5115 21.5615 13.9732C21.6148 14.2035 21.659 14.4041 21.6904 14.5616C21.715 14.685 21.75 14.8657 21.75 15L21.75 15.0213C21.7503 15.2786 21.7512 15.9471 21.4012 16.5596C20.9954 17.2697 20.2211 17.75 19 17.75H14.9997C14.3095 17.75 13.75 18.3095 13.75 19V20.6492C13.75 21.8094 12.8094 22.75 11.6492 22.75ZM11.1801 21.0245C11.2941 21.167 11.4667 21.25 11.6492 21.25C11.981 21.25 12.25 20.981 12.25 20.6492V19C12.25 17.4814 13.4808 16.25 14.9997 16.25H19C19.7789 16.25 20.0046 15.9803 20.0988 15.8154C20.2351 15.5768 20.2493 15.2758 20.25 15.0197C20.2496 15.0198 20.2485 15.015 20.2465 15.0029C20.2427 14.98 20.235 14.9334 20.2193 14.8545C20.1923 14.7191 20.152 14.5356 20.1001 14.3112C19.9965 13.8636 19.8516 13.2733 19.6875 12.621C19.3595 11.3176 18.9586 9.78137 18.6675 8.6755C18.524 8.13023 18.0304 7.75 17.4634 7.75H7.75V16.8473C7.90971 16.9742 8.05623 17.1197 8.18614 17.2821L11.1801 21.0245ZM6.25 16.2581C6.18 16.2527 6.10954 16.25 6.03875 16.25H4C3.86193 16.25 3.75 16.1381 3.75 16V9C3.75 8.30964 4.30964 7.75 5 7.75H6.25V16.2581Z" fill="currentColor"/>
</svg>
