<svg width="24" height="24" viewBox="0 0 24 24" fill="none" xmlns="http://www.w3.org/2000/svg">
<path fill-rule="evenodd" clip-rule="evenodd" d="M19.2724 5.81815C19.3729 5.41631 19.7801 5.17199 20.1819 5.27245L20.667 5.39372C21.8912 5.69977 22.75 6.79972 22.75 8.06161V14.7001C22.75 14.7288 22.7484 14.7572 22.7452 14.7852C22.7484 14.8564 22.75 14.928 22.75 15C22.75 17.6234 20.6234 19.75 18 19.75C15.3766 19.75 13.25 17.6234 13.25 15C13.25 14.3542 13.3789 13.7385 13.6123 13.1772C12.6165 12.6076 11.3835 12.6076 10.3877 13.1772C10.6211 13.7385 10.75 14.3542 10.75 15C10.75 17.6234 8.62335 19.75 6 19.75C3.37665 19.75 1.25 17.6234 1.25 15C1.25 14.928 1.2516 14.8564 1.25477 14.7851C1.25162 14.7572 1.25 14.7288 1.25 14.7001V8.06161C1.25 6.79972 2.10882 5.69977 3.33303 5.39372L3.8181 5.27245C4.21994 5.17199 4.62715 5.41631 4.72761 5.81815C4.82807 6.22 4.58375 6.6272 4.1819 6.72766L3.69683 6.84893C3.14037 6.98804 2.75 7.48802 2.75 8.06161V11.5359C3.59965 10.7384 4.74279 10.25 6 10.25C7.43873 10.25 8.72806 10.8896 9.59913 11.9001C11.077 11.0333 12.923 11.0333 14.4009 11.9001C15.2719 10.8896 16.5613 10.25 18 10.25C19.2572 10.25 20.4003 10.7384 21.25 11.5359V8.06161C21.25 7.48802 20.8596 6.98804 20.3032 6.84893L19.8181 6.72766C19.4163 6.6272 19.1719 6.22 19.2724 5.81815ZM6 11.75C4.20507 11.75 2.75 13.2051 2.75 15C2.75 16.7949 4.20507 18.25 6 18.25C7.79493 18.25 9.25 16.7949 9.25 15C9.25 13.2051 7.79493 11.75 6 11.75ZM18 11.75C16.2051 11.75 14.75 13.2051 14.75 15C14.75 16.7949 16.2051 18.25 18 18.25C19.7949 18.25 21.25 16.7949 21.25 15C21.25 13.2051 19.7949 11.75 18 11.75Z" fill="currentColor"/>
</svg>
