<svg width="24" height="24" viewBox="0 0 24 24" fill="none" xmlns="http://www.w3.org/2000/svg">
<path fill-rule="evenodd" clip-rule="evenodd" d="M9.12175 11.5629C8.52329 10.9644 7.5 11.3883 7.5 12.2346V15.3518C7.5 15.9869 8.01487 16.5018 8.65 16.5018H11.7672C12.6135 16.5018 13.0374 15.4785 12.4389 14.88L9.12175 11.5629ZM9 15.0018V13.5624L10.4393 15.0018H9Z" fill="currentColor"/>
<path fill-rule="evenodd" clip-rule="evenodd" d="M4.64602 2.0871C3.66957 1.11065 2 1.80221 2 3.18311V19.7517C2 20.9944 3.00736 22.0017 4.25 22.0017H20.8186C22.1995 22.0017 22.8911 20.3322 21.9146 19.3557L4.64602 2.0871ZM3.5 3.18311C3.5 3.1703 3.50182 3.16368 3.50257 3.16134C3.50338 3.1588 3.50432 3.157 3.50559 3.1552C3.50859 3.15094 3.51651 3.14287 3.53087 3.13692C3.54522 3.13097 3.55653 3.13108 3.56166 3.13197C3.56384 3.13235 3.56577 3.13295 3.56815 3.13418C3.57032 3.1353 3.57629 3.1387 3.58536 3.14776L20.854 20.4164C20.863 20.4254 20.8664 20.4314 20.8676 20.4336C20.8688 20.436 20.8694 20.4379 20.8698 20.4401C20.8707 20.4452 20.8708 20.4565 20.8648 20.4709C20.8589 20.4852 20.8508 20.4932 20.8465 20.4962L20.8451 20.4971L20.8428 20.4983L20.8404 20.4992C20.8381 20.4999 20.8314 20.5017 20.8186 20.5017H17V19.2518C17 18.8376 16.6642 18.5018 16.25 18.5018C15.8358 18.5018 15.5 18.8376 15.5 19.2518V20.5017H13V19.2518C13 18.8376 12.6642 18.5018 12.25 18.5018C11.8358 18.5018 11.5 18.8376 11.5 19.2518V20.5017H9V19.2518C9 18.8376 8.66421 18.5018 8.25 18.5018C7.83579 18.5018 7.5 18.8376 7.5 19.2518V20.5017H4.25C3.83579 20.5017 3.5 20.166 3.5 19.7517V16.5018H4.75C5.16421 16.5018 5.5 16.166 5.5 15.7518C5.5 15.3376 5.16421 15.0018 4.75 15.0018H3.5V12.5018H4.75C5.16421 12.5018 5.5 12.166 5.5 11.7518C5.5 11.3376 5.16421 11.0018 4.75 11.0018H3.5V8.50177H4.75C5.16421 8.50177 5.5 8.16598 5.5 7.75177C5.5 7.33756 5.16421 7.00177 4.75 7.00177H3.5V3.18311Z" fill="currentColor"/>
</svg>
