<svg width="24" height="24" viewBox="0 0 24 24" fill="none" xmlns="http://www.w3.org/2000/svg">
<path fill-rule="evenodd" clip-rule="evenodd" d="M11.8714 19.6998H14.9082C14.9608 19.6998 15.0007 19.6523 14.9915 19.6005L14.6078 17.4239C14.5996 17.3778 14.5558 17.3471 14.5097 17.3552L11.5645 17.8746C11.5185 17.8827 11.4877 17.9265 11.4959 17.9726L11.7881 19.6299C11.7952 19.6704 11.8303 19.6998 11.8714 19.6998ZM4.38461 19.7H7.59677C7.64937 19.7 7.68922 19.6525 7.68009 19.6007L7.51676 18.6743C7.50864 18.6283 7.46476 18.5976 7.41874 18.6057L4.36991 19.1433C4.32948 19.1504 4.3 19.1856 4.3 19.2266V19.6154C4.3 19.6621 4.33788 19.7 4.38461 19.7ZM6.16843 11.5149L4.36991 11.832C4.32948 11.8392 4.3 11.8743 4.3 11.9154V14.9522C4.3 15.0048 4.34749 15.0446 4.3993 15.0355L6.71714 14.6268C6.76315 14.6187 6.79388 14.5748 6.78576 14.5288L6.26644 11.5835C6.25833 11.5375 6.21444 11.5068 6.16843 11.5149ZM13.2588 10.2647L10.3135 10.784C10.2675 10.7921 10.2368 10.836 10.2449 10.882L10.7642 13.8273C10.7723 13.8733 10.8162 13.904 10.8622 13.8959L13.8075 13.3766C13.8535 13.3685 13.8842 13.3246 13.8761 13.2786L13.3568 10.3333C13.3487 10.2873 13.3048 10.2565 13.2588 10.2647ZM5.53563 7.43827L4.99464 4.36991C4.98751 4.32948 4.95238 4.3 4.91132 4.3H4.38461C4.33788 4.3 4.3 4.33788 4.3 4.3846V7.64122C4.3 7.69383 4.34749 7.73368 4.3993 7.72455L5.467 7.53628C5.51302 7.52816 5.54375 7.48428 5.53563 7.43827ZM12.2216 4.3H9.18479C9.13219 4.3 9.09233 4.34749 9.10147 4.39929L9.51358 6.73682C9.5217 6.78284 9.56558 6.81357 9.61159 6.80545L12.557 6.28612C12.603 6.27801 12.6337 6.23413 12.6256 6.18811L12.305 4.36991C12.2978 4.32948 12.2627 4.3 12.2216 4.3ZM19.7005 19.6152V16.5407C19.7005 16.4881 19.653 16.4483 19.6012 16.4574L18.6553 16.6242C18.6093 16.6323 18.5786 16.6762 18.5867 16.7222L19.0994 19.6299C19.1065 19.6704 19.1416 19.6998 19.1827 19.6998H19.6159C19.6626 19.6998 19.7005 19.662 19.7005 19.6152ZM19.819 12.2685V9.23166C19.819 9.17906 19.7715 9.13921 19.7197 9.14834L17.5235 9.5356C17.4774 9.54371 17.4467 9.58759 17.4548 9.63361L17.9742 12.5789C17.9823 12.6249 18.0262 12.6556 18.0722 12.6475L19.7491 12.3518C19.7895 12.3447 19.819 12.3095 19.819 12.2685ZM19.6152 4.3H16.4963C16.4437 4.3 16.4039 4.34749 16.413 4.39929L16.6047 5.48648C16.6128 5.5325 16.6567 5.56323 16.7027 5.55511L19.6299 5.03896C19.6703 5.03183 19.6998 4.9967 19.6998 4.95564V4.3846C19.6998 4.33788 19.6619 4.3 19.6152 4.3ZM6.2749 4.14419C6.15822 3.48245 5.58327 3 4.91132 3H4.38461C3.61991 3 3 3.61991 3 4.3846V7.64122C3 8.5021 3.77725 9.15429 4.62504 9.00479L5.69275 8.81652C6.44582 8.68374 6.94866 7.96561 6.81589 7.21254L6.2749 4.14419ZM8.96463 11.1077C8.83184 10.3546 9.33469 9.63651 10.0878 9.50373L13.033 8.9844C13.7861 8.85161 14.5043 9.35446 14.637 10.1075L15.1564 13.0528C15.2892 13.8059 14.7863 14.524 14.0332 14.6568L11.088 15.1761C10.3349 15.3089 9.61674 14.8061 9.48395 14.053L8.96463 11.1077ZM4.14415 10.5518C3.48243 10.6685 3 11.2434 3 11.9154V14.9522C3 15.813 3.77725 16.4652 4.62504 16.3157L6.94288 15.907C7.69596 15.7743 8.1988 15.0561 8.06601 14.303L7.54669 11.3578C7.4139 10.6047 6.69575 10.1018 5.94267 10.2346L4.14415 10.5518ZM16.2718 19.3748C16.4213 20.2226 15.7691 20.9998 14.9082 20.9998H11.8714C11.1995 20.9998 10.6245 20.5174 10.5078 19.8557L10.2156 18.1983C10.0828 17.4452 10.5857 16.7271 11.3387 16.5943L14.284 16.075C15.0371 15.9422 15.7552 16.445 15.888 17.1981L16.2718 19.3748ZM8.96034 19.375C9.10982 20.2228 8.45763 21 7.59677 21H4.38461C3.61991 21 3 20.3801 3 19.6154V19.2266C3 18.5547 3.48244 17.9798 4.14417 17.8631L7.193 17.3255C7.94608 17.1927 8.66422 17.6955 8.79701 18.4486L8.96034 19.375ZM7.82121 4.62501C7.67175 3.77723 8.32393 3 9.18479 3H12.2216C12.8936 3 13.4685 3.48242 13.5852 4.14414L13.9059 5.96234C14.0387 6.71543 13.5358 7.43359 12.7827 7.56637L9.83733 8.0857C9.08424 8.21849 8.3661 7.71563 8.23333 6.96254L7.82121 4.62501ZM21.0005 16.5407C21.0005 15.6799 20.2232 15.0277 19.3754 15.1772L18.4295 15.344C17.6765 15.4768 17.1736 16.1949 17.3064 16.948L17.8191 19.8557C17.9358 20.5174 18.5107 20.9998 19.1827 20.9998H19.6159C20.3806 20.9998 21.0005 20.3799 21.0005 19.6152V16.5407ZM19.4939 7.86809C20.3417 7.7186 21.119 8.37079 21.119 9.23166V12.2685C21.119 12.9404 20.6365 13.5153 19.9748 13.632L18.2979 13.9277C17.5448 14.0605 16.8267 13.5577 16.6939 12.8046L16.1746 9.85935C16.0418 9.10627 16.5446 8.38814 17.2977 8.25535L19.4939 7.86809ZM16.4963 3C15.6355 3 14.9833 3.77723 15.1327 4.62501L15.3244 5.7122C15.4572 6.46529 16.1753 6.96816 16.9284 6.83536L19.8556 6.31921C20.5173 6.20253 20.9998 5.62758 20.9998 4.95564V4.3846C20.9998 3.61991 20.3799 3 19.6152 3H16.4963Z" fill="currentColor"/>
</svg>
