<svg width="24" height="24" viewBox="0 0 24 24" fill="none" xmlns="http://www.w3.org/2000/svg">
<path fill-rule="evenodd" clip-rule="evenodd" d="M19.5207 12.8021C20.9606 12.7414 21.7812 11.1304 20.9837 9.93L19.8382 8.20591C19.7819 8.12119 19.7653 8.01617 19.7926 7.91819L20.3487 5.92439C20.736 4.53619 19.4574 3.25793 18.0693 3.64548L16.0756 4.20211C15.9776 4.22946 15.8726 4.21284 15.7879 4.15657L14.0635 3.01153C12.8629 2.21429 11.2521 3.03529 11.1917 4.47521L11.1051 6.54331C11.1008 6.64494 11.0525 6.73968 10.9728 6.80289L9.35098 8.08902C8.22175 8.98449 8.5048 10.7702 9.85559 11.2725L11.1758 11.7635L3.46967 19.4697C3.17678 19.7626 3.17678 20.2374 3.46967 20.5303C3.76256 20.8232 4.23744 20.8232 4.53033 20.5303L12.2347 12.826L12.7237 14.1399C13.2264 15.4906 15.0121 15.7732 15.9073 14.6438L17.1931 13.0216C17.2563 12.9419 17.351 12.8936 17.4526 12.8893L19.5207 12.8021ZM12.6852 10.7731C12.5712 10.6987 12.4484 10.6364 12.3186 10.5881L10.3785 9.86661C10.1229 9.77156 10.0694 9.43374 10.283 9.26432L11.9048 7.97819C12.3261 7.64412 12.5812 7.14331 12.6037 6.60613L12.6904 4.53803C12.7019 4.26562 13.0066 4.11029 13.2337 4.26112L14.9581 5.40616C15.406 5.70358 15.9611 5.79143 16.479 5.64685L18.4726 5.09023C18.7353 5.01691 18.9772 5.25874 18.9039 5.52137L18.3478 7.51517C18.2033 8.03306 18.2913 8.58817 18.5888 9.03599L19.7343 10.7601C19.8852 10.9872 19.7299 11.292 19.4575 11.3034L17.3894 11.3906C16.8522 11.4133 16.3515 11.6685 16.0175 12.0899L14.7318 13.712C14.5624 13.9257 14.2246 13.8723 14.1295 13.6167L13.4075 11.6768C13.3603 11.5501 13.2999 11.4301 13.2278 11.3185C13.1961 11.1907 13.1303 11.0696 13.0303 10.9697C12.9314 10.8707 12.8116 10.8052 12.6852 10.7731Z" fill="currentColor"/>
<path d="M5.5 3.25C5.91421 3.25 6.25 3.58579 6.25 4V4.75H7C7.41421 4.75 7.75 5.08579 7.75 5.5C7.75 5.91421 7.41421 6.25 7 6.25H6.25V7C6.25 7.41421 5.91421 7.75 5.5 7.75C5.08579 7.75 4.75 7.41421 4.75 7V6.25H4C3.58579 6.25 3.25 5.91421 3.25 5.5C3.25 5.08579 3.58579 4.75 4 4.75H4.75V4C4.75 3.58579 5.08579 3.25 5.5 3.25Z" fill="currentColor"/>
<path d="M19.25 17C19.25 16.5858 18.9142 16.25 18.5 16.25C18.0858 16.25 17.75 16.5858 17.75 17V17.75H17C16.5858 17.75 16.25 18.0858 16.25 18.5C16.25 18.9142 16.5858 19.25 17 19.25H17.75V20C17.75 20.4142 18.0858 20.75 18.5 20.75C18.9142 20.75 19.25 20.4142 19.25 20V19.25H20C20.4142 19.25 20.75 18.9142 20.75 18.5C20.75 18.0858 20.4142 17.75 20 17.75H19.25V17Z" fill="currentColor"/>
</svg>
