<svg width="24" height="24" viewBox="0 0 24 24" fill="none" xmlns="http://www.w3.org/2000/svg">
<path d="M12.5282 22.4827L12.5266 22.4843C12.2379 22.7713 11.7537 22.7704 11.4654 22.482L9.21263 20.2293C8.91896 19.9356 8.91868 19.4598 9.212 19.1664C9.50532 18.8731 9.98118 18.8734 10.2749 19.1671L11.2438 20.1361L11.2423 15.4001C11.2423 15.1792 11.4214 15 11.6423 15H12.3454C12.5663 15 12.7454 15.179 12.7454 15.3999L12.7469 20.137L13.7136 19.1703C14.0069 18.877 14.4828 18.8772 14.7765 19.1709C15.0701 19.4646 15.0704 19.9404 14.7771 20.2338L12.5282 22.4827Z" fill="currentColor"/>
<path d="M15.3995 12.7513C15.1788 12.7511 15 12.5721 15 12.3513V11.6482C15 11.4271 15.1794 11.248 15.4005 11.2482C16.9756 11.2502 18.5508 11.2529 20.1261 11.2538L19.1571 10.2848C18.8634 9.99117 18.8631 9.51531 19.1565 9.22199C19.4498 8.92867 19.9256 8.92895 20.2193 9.22262L22.472 11.4754C22.7612 11.7646 22.7618 12.2473 22.4743 12.5366L22.4727 12.5382L20.2238 14.7871C19.9304 15.0804 19.4546 15.0801 19.1609 14.7865C18.8672 14.4928 18.867 14.0169 19.1603 13.7236L20.127 12.7569C18.5511 12.756 16.9753 12.7533 15.3995 12.7513Z" fill="currentColor"/>
<path d="M12.7418 8.59953C12.7421 8.82063 12.5629 9 12.3418 9H11.6387C11.418 9 11.239 8.8212 11.2387 8.60047C11.2367 7.02136 11.2341 5.4422 11.2332 3.86304L10.2665 4.82973C9.97316 5.12305 9.49731 5.12277 9.20364 4.8291C8.90996 4.53543 8.90968 4.05957 9.20301 3.76625L11.4519 1.51736L11.4535 1.51575C11.7422 1.22873 12.2264 1.22966 12.5147 1.51798L14.7675 3.77071C15.0612 4.06438 15.0614 4.54024 14.7681 4.83356C14.4748 5.12689 13.9989 5.12661 13.7053 4.83294L12.7363 3.86395C12.7372 5.44257 12.7398 7.02104 12.7418 8.59953Z" fill="currentColor"/>
<path d="M8.60013 11.2446C8.82099 11.2447 9 11.4237 9 11.6446V12.3477C9 12.5687 8.82084 12.7478 8.59987 12.7477L3.85404 12.7462L4.82303 13.7152C5.1167 14.0088 5.11698 14.4847 4.82366 14.778C4.53033 15.0713 4.05448 15.0711 3.7608 14.7774L1.50807 12.5247C1.21974 12.2363 1.21882 11.7521 1.50584 11.4634L1.50745 11.4618L3.75634 9.21291C4.04966 8.91959 4.52552 8.91987 4.81919 9.21354C5.11286 9.50721 5.11314 9.98307 4.81982 10.2764L3.85313 11.2431L8.60013 11.2446Z" fill="currentColor"/>
</svg>
