<svg width="24" height="24" viewBox="0 0 24 24" fill="none" xmlns="http://www.w3.org/2000/svg">
<path d="M13.8777 14.5752C13.6857 14.5752 13.4937 14.5022 13.3477 14.3552L11.9988 13.0063L10.6499 14.3552C10.5039 14.5022 10.3119 14.5752 10.1199 14.5752C9.92793 14.5752 9.73593 14.5022 9.58993 14.3552C9.29693 14.0622 9.29693 13.5882 9.58993 13.2952L10.9388 11.9463L9.58975 10.5972C9.29675 10.3042 9.29675 9.83019 9.58975 9.53719C9.88275 9.24419 10.3567 9.24419 10.6497 9.53719L11.9988 10.8863L13.3479 9.53719C13.6409 9.24419 14.1149 9.24419 14.4079 9.53719C14.7009 9.83019 14.7009 10.3042 14.4079 10.5972L13.0588 11.9463L14.4077 13.2952C14.7007 13.5882 14.7007 14.0622 14.4077 14.3552C14.2617 14.5022 14.0697 14.5752 13.8777 14.5752Z" fill="currentColor"/>
<path fill-rule="evenodd" clip-rule="evenodd" d="M12 22.5C11.9269 22.5 11.8537 22.4899 11.7826 22.4678C11.4469 22.3661 3.56153 19.8866 3.56153 12.956C3.56153 11.0516 3.53716 9.66661 3.51919 8.64535L3.51837 8.59865C3.47235 6.04174 3.46275 5.50824 4.12063 4.84801C4.90716 4.05544 10.8638 2 12 2C13.1352 2 19.0918 4.05544 19.8804 4.84801C20.5373 5.50825 20.5276 6.04175 20.4816 8.59573L20.4808 8.64227C20.4628 9.66353 20.4385 11.0487 20.4385 12.956C20.4385 19.8866 12.5531 22.3661 12.2174 22.4678C12.1463 22.4899 12.0731 22.5 12 22.5ZM12 3.51061C11.1503 3.51061 5.78988 5.40794 5.17168 5.92658C4.98932 6.11088 4.98231 6.43112 5.02138 8.57519L5.02222 8.62342C5.04019 9.65202 5.06447 11.0424 5.06447 12.956C5.06447 18.1937 10.7976 20.5191 11.999 20.9471C13.1993 20.5171 18.9355 18.1786 18.9355 12.956C18.9355 11.0103 18.9606 9.60542 18.9796 8.57217C19.0177 6.43012 19.0107 6.10987 18.8173 5.91651C18.2111 5.40794 12.8497 3.51061 12 3.51061Z" fill="currentColor"/>
</svg>
