<svg width="24" height="24" viewBox="0 0 24 24" fill="none" xmlns="http://www.w3.org/2000/svg">
<path d="M9.03033 12.2803C8.73744 12.5732 8.26256 12.5732 7.96967 12.2803C7.67678 11.9874 7.67678 11.5126 7.96967 11.2197L8.46967 10.7197C9.31485 9.87449 10.6852 9.87449 11.5303 10.7197C11.7897 10.9791 12.2103 10.9791 12.4697 10.7197C13.3148 9.87449 14.6852 9.87449 15.5303 10.7197L16.0303 11.2197C16.3232 11.5126 16.3232 11.9874 16.0303 12.2803C15.7374 12.5732 15.2626 12.5732 14.9697 12.2803L14.4697 11.7803C14.2103 11.5209 13.7897 11.5209 13.5303 11.7803C12.6852 12.6255 11.3148 12.6255 10.4697 11.7803C10.2103 11.5209 9.78972 11.5209 9.53033 11.7803L9.03033 12.2803Z" fill="currentColor"/>
<path fill-rule="evenodd" clip-rule="evenodd" d="M12 1.5C7.44365 1.5 3.75 5.19365 3.75 9.75C3.75 12.6202 5.21633 15.1476 7.43726 16.6244C7.953 16.9673 8.25 17.4579 8.25 17.9347V20.25C8.25 21.7688 9.48122 23 11 23H13C14.5188 23 15.75 21.7688 15.75 20.25V17.9347C15.75 17.4579 16.047 16.9673 16.5627 16.6244C18.7837 15.1476 20.25 12.6202 20.25 9.75C20.25 5.19365 16.5563 1.5 12 1.5ZM5.25 9.75C5.25 6.02208 8.27208 3 12 3C15.7279 3 18.75 6.02208 18.75 9.75C18.75 12.097 17.5528 14.1648 15.7322 15.3753C15.4659 15.5524 15.2142 15.7698 14.9963 16.0215L9.50693 16.8057C9.24017 16.2076 8.78105 15.7166 8.26781 15.3753C6.44724 14.1648 5.25 12.097 5.25 9.75ZM9.75 18.2862V19.3852L14.25 18.7424V17.9347C14.25 17.8351 14.2554 17.7372 14.2658 17.6411L9.75 18.2862ZM14.25 20.2576L9.91807 20.8765C10.1344 21.2493 10.5379 21.5 11 21.5H13C13.6878 21.5 14.2459 20.9445 14.25 20.2576Z" fill="currentColor"/>
</svg>
