<svg width="24" height="24" viewBox="0 0 24 24" fill="none" xmlns="http://www.w3.org/2000/svg">
<path d="M3.75 3C3.75 2.58579 3.41421 2.25 3 2.25C2.58579 2.25 2.25 2.58579 2.25 3V21C2.25 21.4142 2.58579 21.75 3 21.75H21C21.4142 21.75 21.75 21.4142 21.75 21C21.75 20.5858 21.4142 20.25 21 20.25H3.75V3Z" fill="currentColor"/>
<path d="M21.0303 4.03033C21.3232 3.73744 21.3232 3.26256 21.0303 2.96967C20.7374 2.67678 20.2626 2.67678 19.9697 2.96967L5.46967 17.4697C5.17678 17.7626 5.17678 18.2374 5.46967 18.5303C5.76256 18.8232 6.23744 18.8232 6.53033 18.5303L21.0303 4.03033Z" fill="currentColor"/>
</svg>
