<svg width="24" height="24" viewBox="0 0 24 24" fill="none" xmlns="http://www.w3.org/2000/svg">
<path d="M4.06571 16.693C4.02384 16.7866 4.00056 16.8903 4.00056 16.9994C4.00056 17.1042 4.02202 17.204 4.06077 17.2946C4.09708 17.3797 4.14981 17.4594 4.21897 17.529L4.22057 17.5306L8.46946 21.7795C8.76279 22.0728 9.23836 22.0728 9.53169 21.7795C9.82501 21.4861 9.82501 21.0106 9.53169 20.7172L6.565 17.7506H17.4984C17.9132 17.7506 18.2495 17.4143 18.2495 16.9994C18.2495 16.5846 17.9132 16.2483 17.4984 16.2483H6.56502L9.53169 13.2817C9.82502 12.9883 9.82502 12.5128 9.53169 12.2194C9.23837 11.9261 8.76279 11.9261 8.46947 12.2194L4.22057 16.4683C4.20937 16.4795 4.1986 16.491 4.18826 16.5027L4.06571 16.693Z" fill="currentColor"/>
<path d="M19.9343 6.69302C19.9762 6.7866 19.9995 6.89031 19.9995 6.99945C19.9995 7.10422 19.978 7.20399 19.9393 7.29459C19.903 7.37966 19.8502 7.4594 19.7811 7.52896L19.7795 7.53057L15.5306 11.7795C15.2373 12.0728 14.7617 12.0728 14.4684 11.7795C14.175 11.4861 14.175 11.0106 14.4684 10.7172L17.435 7.75056H6.50167C6.08685 7.75056 5.75056 7.41427 5.75056 6.99945C5.75056 6.58462 6.08685 6.24834 6.50167 6.24834H17.435L14.4683 3.28167C14.175 2.98834 14.175 2.51277 14.4684 2.21944C14.7617 1.92612 15.2373 1.92612 15.5306 2.21945L19.7795 6.46835C19.7907 6.47955 19.8014 6.49101 19.8118 6.50272L19.9343 6.69302Z" fill="currentColor"/>
</svg>
