<svg width="400" height="132" viewBox="0 0 400 132" fill="none" xmlns="http://www.w3.org/2000/svg">
<path d="M47.874 109.906C48.7644 114.956 44.8796 119.586 39.7518 119.586H20.6185C16.0636 119.586 12.3711 115.893 12.3711 111.338V109.023C12.3711 105.02 15.2447 101.596 19.1863 100.9L37.3467 97.6982C41.8325 96.9073 46.1101 99.9025 46.9011 104.388L47.874 109.906Z" fill="white"/>
<path d="M91.4223 109.906C92.3127 114.956 88.428 119.586 83.3002 119.586H65.2114C61.2089 119.586 57.7843 116.712 57.0892 112.77L55.3486 102.898C54.5576 98.4125 57.5528 94.1349 62.0386 93.344L79.5821 90.2506C84.0678 89.4597 88.3454 92.4549 89.1364 96.9407L91.4223 109.906Z" fill="white"/>
<path d="M109.908 84.9028C114.958 84.0123 119.588 87.8971 119.588 93.0249V111.338C119.588 115.893 115.895 119.586 111.34 119.586H108.76C104.757 119.586 101.333 116.712 100.638 112.77L97.5838 95.4505C96.7929 90.9648 99.7881 86.6873 104.274 85.8963L109.908 84.9028Z" fill="white"/>
<path d="M109.908 41.3544C114.958 40.4639 119.588 44.3487 119.588 49.4765V67.5653C119.588 71.5677 116.714 74.9923 112.772 75.6874L102.784 77.4488C98.2983 78.2398 94.0206 75.2446 93.2297 70.7588L90.1363 53.2153C89.3454 48.7296 92.3406 44.452 96.8263 43.661L109.908 41.3544Z" fill="white"/>
<path d="M84.6405 22.0485C83.7502 16.9987 87.635 12.3691 92.7627 12.3691H111.34C115.895 12.3691 119.588 16.0616 119.588 20.6166V24.0179C119.588 28.0204 116.714 31.445 112.772 32.1401L95.3366 35.2145C90.8508 36.0055 86.5731 33.0102 85.7823 28.5244L84.6405 22.0485Z" fill="white"/>
<path d="M23.7559 12.3691C27.7584 12.3691 31.1831 15.2429 31.8781 19.1845L35.1005 37.4612C35.8914 41.9469 32.8962 46.2244 28.4105 47.0154L22.0507 48.1368C17.0008 49.0272 12.3711 45.1425 12.3711 40.0147V20.6166C12.3711 16.0616 16.0636 12.3691 20.6185 12.3691H23.7559Z" fill="white"/>
<path d="M12.3711 65.4732C12.3711 61.4708 15.2447 58.0461 19.1863 57.3511L29.8991 55.4619C34.3849 54.6709 38.6626 57.6661 39.4535 62.1519L42.5469 79.6954C43.3378 84.1811 40.3426 88.4587 35.8569 89.2497L22.0507 91.6841C17.0008 92.5745 12.3711 88.6898 12.3711 83.562V65.4732Z" fill="white"/>
<path d="M41.0922 22.0485C40.2019 16.9987 44.0866 12.3691 49.2143 12.3691H67.3035C71.3058 12.3691 74.7305 15.2427 75.4255 19.1842L77.3354 30.0143C78.1265 34.5001 75.1313 38.7779 70.6454 39.5688L53.1012 42.6622C48.6154 43.4531 44.3378 40.4578 43.5469 35.972L41.0922 22.0485Z" fill="white"/>
<path d="M47.901 60.6629C47.1101 56.1772 50.1053 51.8996 54.591 51.1086L72.1346 48.0153C76.6203 47.2243 80.8979 50.2195 81.6889 54.7053L84.7822 72.2489C85.5732 76.7346 82.5779 81.0122 78.0922 81.8031L60.5486 84.8965C56.0629 85.6874 51.7853 82.6922 50.9944 78.2065L47.901 60.6629Z" fill="white"/>
<path d="M91.4221 109.905C92.3125 114.955 88.4277 119.585 83.3 119.585H65.2112C61.2087 119.585 57.784 116.711 57.089 112.769L55.3484 102.897C54.5574 98.4116 57.5526 94.134 62.0384 93.3431L79.5819 90.2497C84.0676 89.4588 88.3452 92.454 89.1361 96.9398L91.4221 109.905Z" fill="#FFD95C"/>
<path d="M47.874 109.907C48.7644 114.957 44.8796 119.586 39.7518 119.586H20.6185C16.0636 119.586 12.3711 115.894 12.3711 111.339V109.023C12.3711 105.021 15.2447 101.596 19.1863 100.901L37.3467 97.6989C41.8325 96.908 46.1101 99.9032 46.9011 104.389L47.874 109.907Z" fill="#00CDDB"/>
<path d="M12.3711 65.4729C12.3711 61.4705 15.2447 58.0458 19.1863 57.3508L29.8991 55.4617C34.3849 54.6706 38.6626 57.6659 39.4535 62.1516L42.5469 79.6951C43.3378 84.1808 40.3426 88.4584 35.8569 89.2494L22.0507 91.6838C17.0008 92.5742 12.3711 88.6895 12.3711 83.5617V65.4729Z" fill="#DE72FF"/>
<path d="M47.9011 60.663C47.1101 56.1772 50.1054 51.8997 54.5911 51.1087L72.1347 48.0153C76.6204 47.2244 80.898 50.2196 81.6889 54.7053L84.7823 72.2489C85.5733 76.7347 82.578 81.0122 78.0923 81.8032L60.5487 84.8966C56.063 85.6875 51.7854 82.6923 50.9945 78.2066L47.9011 60.663Z" fill="#454B52"/>
<path d="M23.7559 12.3691C27.7584 12.3691 31.1831 15.2429 31.8781 19.1845L35.1005 37.4612C35.8914 41.9469 32.8962 46.2244 28.4105 47.0154L22.0507 48.1368C17.0008 49.0272 12.3711 45.1425 12.3711 40.0147V20.6166C12.3711 16.0616 16.0636 12.3691 20.6185 12.3691H23.7559Z" fill="#FFCBAD"/>
<path d="M41.0924 22.0485C40.2021 16.9987 44.0868 12.3691 49.2145 12.3691H67.3036C71.306 12.3691 74.7306 15.2427 75.4257 19.1842L77.3356 30.0143C78.1267 34.5001 75.1315 38.7779 70.6456 39.5688L53.1014 42.6622C48.6156 43.4531 44.338 40.4578 43.5471 35.972L41.0924 22.0485Z" fill="#FFD95C"/>
<path d="M109.908 84.902C114.958 84.0115 119.587 87.8963 119.587 93.0241V111.337C119.587 115.892 115.895 119.585 111.34 119.585H108.76C104.757 119.585 101.332 116.711 100.637 112.769L97.5837 95.4497C96.7928 90.964 99.7879 86.6865 104.274 85.8955L109.908 84.902Z" fill="#FFCBAD"/>
<path d="M109.908 41.3551C114.958 40.4647 119.588 44.3494 119.588 49.4772V67.566C119.588 71.5684 116.714 74.9931 112.773 75.6881L102.784 77.4495C98.2984 78.2405 94.0207 75.2453 93.2298 70.7595L90.1364 53.216C89.3455 48.7303 92.3407 44.4527 96.8264 43.6618L109.908 41.3551Z" fill="#DE72FF"/>
<path d="M84.6412 22.0485C83.7509 16.9987 87.6356 12.3691 92.7634 12.3691H111.341C115.896 12.3691 119.588 16.0616 119.588 20.6166V24.0179C119.588 28.0204 116.715 31.445 112.773 32.1401L95.3373 35.2145C90.8515 36.0055 86.5738 33.0102 85.7829 28.5244L84.6412 22.0485Z" fill="#00CDDB"/>
<path d="M177.154 94.8454L166.433 40.9072H176.247L180.948 68.1237C181.388 70.9828 181.828 73.8694 182.268 76.7835C182.763 79.6426 183.202 82.5017 183.587 85.3608H183.917C184.522 82.5017 185.099 79.6426 185.649 76.7835C186.254 73.8694 186.859 70.9828 187.464 68.1237L194.061 40.9072H202.391L208.989 68.1237C209.594 70.9278 210.199 73.787 210.804 76.701C211.409 79.5601 212.013 82.4467 212.618 85.3608H212.948C213.388 82.4467 213.828 79.5601 214.268 76.701C214.708 73.8419 215.12 70.9828 215.505 68.1237L220.206 40.9072H229.36L219.051 94.8454H207.175L200.494 66.4742C200.055 64.3849 199.615 62.2955 199.175 60.2062C198.79 58.1168 198.433 56.055 198.103 54.0206H197.773C197.388 56.055 196.976 58.1168 196.536 60.2062C196.151 62.2955 195.738 64.3849 195.299 66.4742L188.783 94.8454H177.154Z" fill="#2B2E33"/>
<path d="M255.076 95.8351C251.337 95.8351 247.956 95.0103 244.932 93.3608C241.908 91.6564 239.516 89.2371 237.757 86.1031C235.997 82.9141 235.118 79.0928 235.118 74.6392C235.118 70.2406 235.997 66.4467 237.757 63.2577C239.571 60.0687 241.908 57.622 244.767 55.9175C247.626 54.2131 250.623 53.3608 253.757 53.3608C257.441 53.3608 260.52 54.1856 262.994 55.8351C265.468 57.4296 267.337 59.6839 268.602 62.5979C269.867 65.4571 270.499 68.7835 270.499 72.5773C270.499 74.5567 270.362 76.0962 270.087 77.1959H244.355C244.795 80.7698 246.087 83.5464 248.231 85.5258C250.375 87.5052 253.069 88.4949 256.313 88.4949C258.073 88.4949 259.695 88.2474 261.179 87.7526C262.719 87.2028 264.231 86.4605 265.715 85.5258L268.932 91.4639C267.008 92.7285 264.863 93.7732 262.499 94.598C260.135 95.4227 257.661 95.8351 255.076 95.8351ZM244.272 70.7629H262.252C262.252 67.6289 261.564 65.1821 260.19 63.4227C258.815 61.6083 256.753 60.701 254.004 60.701C251.64 60.701 249.523 61.5808 247.654 63.3402C245.839 65.0447 244.712 67.5189 244.272 70.7629Z" fill="#2B2E33"/>
<path d="M289.23 95.8351C285.711 95.8351 282.825 94.7354 280.571 92.5361C278.371 90.3368 277.272 87.4777 277.272 83.9588C277.272 79.6151 279.168 76.2612 282.962 73.8969C286.756 71.4777 292.804 69.8282 301.107 68.9485C301.052 66.8041 300.474 64.9622 299.375 63.4227C298.33 61.8282 296.433 61.0309 293.684 61.0309C291.705 61.0309 289.753 61.4158 287.828 62.1856C285.959 62.9553 284.117 63.89 282.302 64.9897L278.839 58.6392C281.093 57.2096 283.622 55.9725 286.426 54.9278C289.285 53.8832 292.309 53.3608 295.498 53.3608C300.557 53.3608 304.323 54.8729 306.797 57.8969C309.327 60.866 310.591 65.1821 310.591 70.8454V94.8454H302.756L302.096 90.3918H301.766C299.952 91.9313 298 93.2234 295.911 94.2681C293.876 95.3127 291.65 95.8351 289.23 95.8351ZM292.282 88.4124C293.931 88.4124 295.416 88.0275 296.735 87.2577C298.11 86.433 299.567 85.3333 301.107 83.9588V74.8866C295.608 75.6014 291.787 76.6735 289.643 78.1031C287.498 79.4777 286.426 81.1821 286.426 83.2165C286.426 85.0309 286.976 86.3505 288.076 87.1753C289.175 88 290.577 88.4124 292.282 88.4124Z" fill="#2B2E33"/>
<path d="M331.839 94.8454L317.735 54.3505H327.385L333.818 75.3815C334.368 77.3608 334.918 79.3677 335.467 81.4021C336.072 83.4364 336.65 85.4983 337.199 87.5876H337.529C338.134 85.4983 338.711 83.4364 339.261 81.4021C339.866 79.3677 340.443 77.3608 340.993 75.3815L347.426 54.3505H356.581L342.808 94.8454H331.839Z" fill="#2B2E33"/>
<path d="M381.262 95.8351C377.523 95.8351 374.142 95.0103 371.118 93.3608C368.093 91.6564 365.702 89.2371 363.942 86.1031C362.183 82.9141 361.303 79.0928 361.303 74.6392C361.303 70.2406 362.183 66.4467 363.942 63.2577C365.757 60.0687 368.093 57.622 370.953 55.9175C373.812 54.2131 376.808 53.3608 379.942 53.3608C383.626 53.3608 386.705 54.1856 389.179 55.8351C391.654 57.4296 393.523 59.6839 394.788 62.5979C396.052 65.4571 396.685 68.7835 396.685 72.5773C396.685 74.5567 396.547 76.0962 396.272 77.1959H370.54C370.98 80.7698 372.272 83.5464 374.417 85.5258C376.561 87.5052 379.255 88.4949 382.499 88.4949C384.258 88.4949 385.88 88.2474 387.365 87.7526C388.904 87.2028 390.417 86.4605 391.901 85.5258L395.118 91.4639C393.193 92.7285 391.049 93.7732 388.685 94.598C386.32 95.4227 383.846 95.8351 381.262 95.8351ZM370.458 70.7629H388.437C388.437 67.6289 387.75 65.1821 386.375 63.4227C385.001 61.6083 382.939 60.701 380.19 60.701C377.825 60.701 375.709 61.5808 373.839 63.3402C372.025 65.0447 370.898 67.5189 370.458 70.7629Z" fill="#2B2E33"/>
</svg>
